<svg width="95" height="26" viewBox="0 0 95 26" fill="none" xmlns="http://www.w3.org/2000/svg">
<path d="M27.9792 4.35254H15.314V10.0185H18.5756V21.9591H24.7175V10.0185H27.9792V4.35254Z" fill="#FFC700"/>
<path d="M11.1814 15.3861C10.6177 15.9566 9.8342 16.3103 8.97741 16.3103C7.25256 16.3103 5.86026 14.8955 5.86026 13.1557C5.86026 11.4101 7.25819 10.0012 8.97741 10.0012C9.83984 10.0012 10.6177 10.3549 11.1814 10.9252L15.3131 6.74394C13.6898 5.10106 11.452 4.08569 8.97177 4.08569C4.02268 4.08569 0.00927734 8.14731 0.00927734 13.1557C0.00927734 18.1642 4.02268 22.2257 8.97177 22.2257C11.4463 22.2257 13.6898 21.2103 15.3131 19.5674L11.1814 15.3861Z" fill="#FFC700"/>
<path d="M94.1957 18.1387C93.6625 17.5545 92.6126 17.2596 91.0463 17.2596C91.0463 17.2596 90.2266 17.2596 89.16 17.2596C88.0933 17.2596 87.4757 17.2255 87.2455 17.1631C87.0154 17.1007 86.8974 16.8909 86.8974 16.5335C86.8974 16.1819 87.0209 15.9664 87.2681 15.8926C87.515 15.8189 88.1662 15.7792 89.2161 15.7792C91.1305 15.7792 92.781 15.8699 94.1677 16.0571V11.1963C92.2477 11.0431 89.6877 10.89 87.1446 10.89C85.5389 10.89 84.3544 11.0203 83.5908 11.2813C82.8274 11.5422 82.1817 12.1265 81.8897 12.9318V0.884644H75.6413V7.64558C75.327 7.05007 74.8497 6.58491 74.2042 6.25026C73.5586 5.9156 72.649 5.7455 71.7058 5.7455C69.4996 5.7455 68.6013 6.56796 68.2308 6.93097C68.0231 7.13512 67.8434 7.39043 67.6863 7.69103C67.7817 7.35068 67.8321 6.99337 67.8321 6.62466C67.8321 4.42397 66.0637 2.63728 63.8855 2.63728C61.7072 2.63728 59.9388 4.42397 59.9388 6.62466C59.9388 8.82535 61.7072 10.612 63.8855 10.612C65.3845 10.612 66.6926 9.76692 67.3606 8.51905C67.1697 9.14861 66.9395 10.3851 66.9395 11.2926H60.7642V24.9167L56.256 17.8608L60.5396 11.2983H53.9318L50.5858 16.7434V0.884644H44.3374V25.2627H50.5858V19.4774L54.235 25.2627H60.7585H60.9774H67.0069V15.8132C67.181 17.407 67.6806 18.7002 68.1747 19.1994C68.7192 19.7496 69.5669 20.4132 71.7115 20.4132C73.4406 20.4132 74.6476 19.8006 75.6413 18.5698V20.0219H81.8897V17.3049C82.0245 17.7474 82.2042 18.0877 82.4455 18.3315C82.9789 18.8817 84.0568 19.1539 85.6792 19.1539H87.5375C88.4414 19.1539 89.4126 19.1937 89.6483 19.2675C89.8785 19.3411 89.9964 19.5681 89.9964 19.9367C89.9964 20.2884 89.8617 20.504 89.5978 20.5776C89.3284 20.6514 88.6548 20.691 87.5656 20.691C85.5951 20.691 83.8041 20.6003 82.1985 20.4132V25.4158C83.9108 25.603 85.9655 25.6938 88.3628 25.6938C90.9789 25.6938 92.7416 25.4158 93.6455 24.8543C94.5494 24.2927 94.9986 23.1527 94.9986 21.417C94.9986 19.8233 94.7291 18.7285 94.1957 18.1387ZM75.6413 14.3498C75.6413 14.7583 75.5403 15.0929 75.3382 15.3424C75.1361 15.592 74.8779 15.7168 74.5634 15.7168C74.1031 15.7168 73.783 15.5239 73.6091 15.1439C73.4351 14.764 73.3452 14.089 73.3452 13.119C73.3452 12.0924 73.4351 11.3834 73.6202 10.9807C73.8055 10.578 74.1199 10.3795 74.5579 10.3795C74.8722 10.3795 75.1304 10.4815 75.3325 10.6858C75.5346 10.89 75.6358 11.1792 75.6358 11.5536V14.3498H75.6413Z" fill="white"/>
<path d="M38.6223 15.3861C38.0584 15.9566 37.2746 16.3103 36.4175 16.3103C34.6921 16.3103 33.2992 14.8955 33.2992 13.1557C33.2992 11.4101 34.6976 10.0012 36.4175 10.0012C37.2802 10.0012 38.0584 10.3549 38.6223 10.9252L42.7555 6.74394C41.1316 5.10106 38.8929 4.08569 36.4175 4.08569C31.4665 4.08569 27.4517 8.14731 27.4517 13.1557C27.4517 18.1642 31.4665 22.2257 36.4175 22.2257C38.8929 22.2257 41.1372 21.2103 42.7555 19.5674L38.6223 15.3861Z" fill="#FFC700"/>
</svg>
