<svg width="43" height="10" viewBox="0 0 43 10" fill="none" xmlns="http://www.w3.org/2000/svg">
<path d="M5.8333 9.02715C3.57191 9.83381 2.79688 9.10145 2.14925 7.29707L1.31052 4.97261C0.503635 2.71183 1.2362 1.93701 3.04107 1.28956L5.36616 0.451053C7.62756 -0.35561 8.40259 0.376755 9.05022 2.18113L9.88895 4.50559C10.6958 6.76637 9.96327 7.54119 8.1584 8.18864L5.8333 9.02715Z" fill="#FF4F3E"/>
<path d="M16.0849 9.02715C18.3463 9.83381 19.1213 9.10145 19.769 7.29707L20.6077 4.97261C21.4146 2.71183 20.682 1.93701 18.8771 1.28956L16.5521 0.451053C14.2907 -0.35561 13.5156 0.376755 12.868 2.18113L12.0293 4.50559C11.2224 6.76637 11.9549 7.54119 13.7598 8.18864L16.0849 9.02715Z" fill="#FABC22"/>
<path d="M27.2552 9.02715C24.9938 9.84443 24.2188 9.10145 23.5711 7.29707L22.7324 4.97261C21.9255 2.71183 22.6581 1.93701 24.4629 1.28956L26.788 0.451053C29.0494 -0.35561 29.8245 0.376755 30.4721 2.18113L31.3108 4.50559C32.1177 6.76637 31.3851 7.54119 29.5803 8.18864L27.2552 9.02715Z" fill="#06C92E"/>
<path d="M37.499 9.02715C39.7604 9.83381 40.5354 9.10145 41.183 7.29707L42.0218 4.97261C42.8286 2.71183 42.0961 1.93701 40.2912 1.28956L37.9661 0.451053C35.7047 -0.35561 34.9297 0.376755 34.2821 2.18113L33.4433 4.50559C32.6364 6.76637 33.369 7.54119 35.1739 8.18864L37.499 9.02715Z" fill="#00C2FC"/>
</svg>
