<svg width="200" height="97" viewBox="0 0 200 97" fill="none" xmlns="http://www.w3.org/2000/svg">
<g clip-path="url(#clip0_736_15369)">
<g clip-path="url(#clip1_736_15369)">
<g clip-path="url(#clip2_736_15369)">
<mask id="mask0_736_15369" style="mask-type:luminance" maskUnits="userSpaceOnUse" x="0" y="0" width="200" height="97">
<path d="M199.689 0.983398H0.00244141V96.2185H199.689V0.983398Z" fill="white"/>
</mask>
<g mask="url(#mask0_736_15369)">
<path d="M117.85 44.1704V55.6824L129.08 44.1704H134.906L121.781 57.2174L134.976 73.055H129.08L118.692 60.2175L117.85 61.0546V72.9851H113.428V44.1704H117.85Z" fill="white"/>
<path d="M145.221 44.1704H149.643C151.607 44.1704 153.222 44.31 154.416 44.6589C155.609 45.0077 156.732 45.5659 157.644 46.4031C159.188 47.8683 159.961 49.7521 159.961 52.1242C159.961 53.4498 159.68 54.6358 159.118 55.5429C158.626 56.4499 157.855 57.0778 156.943 57.5662C158.487 57.9151 159.68 58.6127 160.662 59.6593C161.926 60.9848 162.558 62.7989 162.558 65.1012C162.558 67.1943 161.926 68.9385 160.662 70.2642C158.837 72.1479 156.17 73.055 152.521 73.055H145.221V44.1704ZM149.713 48.3566V56.6592H151.047C152.661 56.6592 153.854 56.3103 154.696 55.5429C155.469 54.8451 155.82 53.7288 155.82 52.2637C155.82 51.0777 155.469 50.1707 154.766 49.4729C153.995 48.7752 152.802 48.3566 151.257 48.3566H149.713ZM149.713 60.2872V68.9385H152.38C154.416 68.9385 155.82 68.5898 156.802 67.8222C157.784 67.0549 158.206 66.0083 158.206 64.6129C158.206 63.357 157.784 62.3803 157.013 61.6128C156.1 60.7755 154.555 60.2872 152.45 60.2872H149.713Z" fill="white"/>
<path d="M27.376 73.0551L24.2877 55.6129L15.9353 74.3807L7.5828 55.6129L4.5647 73.0551H0.00244141L6.10885 42.0078L15.9353 63.8456L25.7616 42.0078L31.8681 73.0551H27.376Z" fill="white"/>
<path d="M185.231 42.0078L170.701 73.0551H175.475L178.633 66.0783H191.688L194.846 73.0551H199.62L185.231 42.0078ZM180.528 61.892L185.231 51.636L189.934 61.892H180.528Z" fill="white"/>
<path d="M54.8205 43.6123C46.4681 43.6123 39.73 50.3101 39.73 58.6127C39.73 66.9152 46.4681 73.613 54.8205 73.613C63.1729 73.613 69.911 66.9152 69.911 58.6127C69.911 50.3101 63.1028 43.6123 54.8205 43.6123ZM54.8205 69.3571C48.8544 69.3571 44.0817 64.5431 44.0817 58.6824C44.0817 52.7521 48.9246 48.0077 54.8205 48.0077C60.7865 48.0077 65.5593 52.8218 65.5593 58.6824C65.5593 64.5431 60.7162 69.3571 54.8205 69.3571Z" fill="white"/>
<path d="M92.7907 69.3572C86.8247 69.3572 82.0519 64.5432 82.0519 58.6825C82.0519 52.7521 86.8949 48.0078 92.7907 48.0078C95.7387 48.0078 98.4761 49.1939 100.371 51.1474L103.459 48.0777C100.722 45.3566 96.9318 43.6821 92.7907 43.6821C84.4383 43.6821 77.7002 50.3799 77.7002 58.6825C77.7002 66.9851 84.4383 73.6829 92.7907 73.6829C97.0021 73.6829 100.722 72.0085 103.459 69.2875L100.371 66.2177C98.4761 68.1013 95.8089 69.3572 92.7907 69.3572Z" fill="white"/>
<path d="M33.9738 87.4971V90.3576L36.7814 87.4971H38.2553L35.0266 90.7064L38.2553 94.6135H36.7814L34.2546 91.474L34.044 91.6833V94.6135H32.9209V87.4971H33.9738Z" fill="white"/>
<path d="M43.0973 88.4045C43.7992 87.7068 44.7116 87.3579 45.7645 87.3579C46.8172 87.3579 47.7297 87.7068 48.4316 88.4045C49.1335 89.1021 49.4844 90.0091 49.4844 91.0556C49.4844 92.1022 49.1335 93.0092 48.4316 93.707C47.7297 94.4046 46.8172 94.7534 45.7645 94.7534C44.7116 94.7534 43.7992 94.4046 43.0973 93.707C42.3954 93.0092 42.0444 92.1022 42.0444 91.0556C42.0444 90.0091 42.3954 89.1021 43.0973 88.4045ZM43.8693 93.0092C44.3607 93.4976 44.9923 93.7767 45.7645 93.7767C46.5365 93.7767 47.1682 93.4976 47.6595 93.0092C48.1509 92.5208 48.4316 91.8929 48.4316 91.0556C48.4316 90.2883 48.1509 89.5905 47.6595 89.1021C47.1682 88.6138 46.5365 88.3346 45.7645 88.3346C44.9923 88.3346 44.3607 88.6138 43.8693 89.1021C43.378 89.5905 43.0973 90.2184 43.0973 91.0556C43.1674 91.8232 43.378 92.5208 43.8693 93.0092Z" fill="white"/>
<path d="M55.5898 87.4971V90.2878H58.6781V87.4971H59.8011V94.6135H58.6781V91.3344H55.5898V94.6135H54.4668V87.4971H55.5898Z" fill="white"/>
<path d="M65.0669 94.6135V87.4971H66.19V93.5669H69.1379V87.4971H70.2609V93.5669H71.1733V96.2183H70.1205V94.6135H65.0669Z" fill="white"/>
<path d="M79.6669 87.4971V88.5436H76.7892V90.3576H79.5967V91.4041H76.7892V93.6368H79.6669V94.6834H75.7363V87.4971H79.6669Z" fill="white"/>
<path d="M84.6492 87.4971H86.2636C86.8954 87.4971 87.4568 87.6367 87.8078 87.9157C88.0885 88.125 88.299 88.3343 88.4394 88.6831C88.5798 89.032 88.65 89.311 88.65 89.6599C88.65 90.2878 88.4394 90.846 87.9481 91.1948C87.527 91.5437 86.8954 91.753 86.1935 91.753H85.7021V94.6834H84.5791V87.4971H84.6492ZM85.7722 88.4739V90.7064H86.2636C86.7549 90.7064 87.0356 90.6367 87.3164 90.4274C87.527 90.2181 87.6674 89.9389 87.6674 89.5902C87.6674 89.4506 87.6674 89.3809 87.5973 89.2413C87.5973 89.1017 87.527 89.032 87.3866 88.8924C87.3164 88.7529 87.176 88.6831 86.9655 88.6133C86.7549 88.5436 86.5444 88.4739 86.1935 88.4739H85.7722Z" fill="white"/>
<path d="M97.2835 88.5436H95.6691V94.6135H94.546V88.5436H92.9316V87.4971H97.3536V88.5436H97.2835Z" fill="white"/>
<path d="M102.9 87.4971V90.2878H105.988V87.4971H107.111V94.6135H105.988V91.3344H102.9V94.6135H101.777V87.4971H102.9Z" fill="white"/>
<path d="M112.377 94.6135V87.4971H113.5V90.3576H114.342C115.114 90.3576 115.676 90.5669 116.167 90.9158C116.588 91.3344 116.869 91.8227 116.869 92.5204C116.869 92.8693 116.799 93.2182 116.658 93.4972C116.518 93.7762 116.307 94.0554 116.027 94.2647C115.606 94.5438 115.114 94.6834 114.483 94.6834H112.377V94.6135ZM113.5 91.4041V93.6368H114.272C115.255 93.6368 115.746 93.2879 115.746 92.5903C115.746 92.3111 115.606 92.032 115.395 91.8227C115.184 91.6134 114.833 91.474 114.272 91.474H113.5V91.4041ZM117.501 87.4971H118.624V94.6135H117.501V87.4971Z" fill="white"/>
<path d="M128.727 94.6139V89.7997L123.884 94.8929V87.4973H125.007V92.3114L129.85 87.2183V94.6139H128.727ZM125.147 85.7531L125.989 85.3345C126.06 85.4741 126.13 85.6136 126.2 85.6834C126.27 85.7531 126.411 85.823 126.481 85.8927C126.621 85.8927 126.691 85.9624 126.762 85.9624C126.832 85.9624 126.902 85.9624 126.902 85.9624C126.972 85.9624 126.972 85.9624 127.042 85.9624C127.112 85.9624 127.183 85.9624 127.323 85.8927C127.463 85.8927 127.534 85.823 127.604 85.6834C127.674 85.6136 127.744 85.4741 127.814 85.3345L128.657 85.7531C128.516 86.1717 128.235 86.4509 127.885 86.5903C127.534 86.7299 127.183 86.8695 126.832 86.8695C126.481 86.8695 126.13 86.7996 125.779 86.5903C125.498 86.381 125.288 86.102 125.147 85.7531Z" fill="white"/>
<path d="M141.851 89.1021L141.15 88.4045C141.431 88.0556 141.712 87.7765 142.062 87.6369C142.413 87.4276 142.835 87.3579 143.395 87.3579C144.098 87.3579 144.659 87.5672 145.08 87.916C145.431 88.2649 145.572 88.6835 145.572 89.1718C145.572 89.5207 145.502 89.7998 145.361 90.0789C145.221 90.358 145.01 90.5673 144.729 90.7069C145.15 90.7766 145.431 90.9859 145.711 91.3347C145.922 91.6139 146.064 92.0325 146.064 92.5208C146.064 93.1487 145.853 93.707 145.361 94.1256C144.87 94.5441 144.238 94.7534 143.395 94.7534C142.694 94.7534 142.132 94.5442 141.642 94.1953C141.22 93.9163 140.939 93.4976 140.728 93.0092L141.712 92.5208C141.851 92.8697 142.062 93.1487 142.413 93.3581C142.694 93.5674 143.116 93.707 143.606 93.707C144.098 93.707 144.448 93.5674 144.729 93.2883C144.94 93.079 145.08 92.7999 145.08 92.3812C145.08 92.0325 144.94 91.7533 144.659 91.544C144.379 91.3347 143.957 91.265 143.325 91.265H142.694V90.2184H143.255C143.747 90.2184 144.028 90.1487 144.309 89.9394C144.518 89.7301 144.659 89.5207 144.659 89.2417C144.659 88.8928 144.518 88.6835 144.309 88.4742C144.098 88.3346 143.817 88.2649 143.466 88.2649C143.116 88.2649 142.835 88.3346 142.624 88.4742C142.202 88.6835 141.992 88.8928 141.851 89.1021Z" fill="white"/>
<path d="M155.68 94.6138L154.908 92.8695H151.819L151.048 94.6138H149.855L153.434 87.0786L156.803 94.6138H155.68ZM152.311 91.8928H154.486L153.434 89.4508L152.311 91.8928Z" fill="white"/>
<path d="M162.277 87.4971H166.839V94.6135H165.715V88.5436H163.329V92.1019C163.329 92.4507 163.329 92.7297 163.329 92.939C163.329 93.1483 163.259 93.3576 163.12 93.6368C162.979 93.9158 162.839 94.1251 162.628 94.2647C162.277 94.5438 161.855 94.6834 161.294 94.6834C161.154 94.6834 161.013 94.6834 160.803 94.6135V93.6368C160.943 93.7065 161.084 93.7065 161.224 93.7065C161.505 93.7065 161.716 93.6368 161.855 93.4275C161.996 93.2879 162.066 93.1483 162.136 92.939C162.206 92.7297 162.206 92.5204 162.206 92.3809C162.206 92.2414 162.206 92.032 162.206 91.753V87.4971H162.277Z" fill="white"/>
<path d="M96.7251 8.3089C96.5145 8.3089 96.3741 8.09959 96.5145 7.96006C98.1289 6.14606 99.1817 3.42505 99.6731 1.0529C99.6731 0.913358 99.8836 0.913358 99.8836 1.0529C100.445 3.49482 101.498 6.21582 103.042 7.96006C103.182 8.09959 103.042 8.3089 102.832 8.3089H96.7251Z" fill="white"/>
<path d="M89.2133 29.7279C89.4239 29.7279 89.5643 29.5186 89.4239 29.379C87.8095 27.5651 86.7567 24.844 86.2655 22.4719C86.2655 22.3323 86.0548 22.3323 86.0548 22.4719C85.4933 24.9137 84.4406 27.6348 82.8964 29.379C82.756 29.5186 82.8964 29.7279 83.1069 29.7279H89.2133Z" fill="white"/>
<path d="M98.3364 29.7279C98.5469 29.7279 98.6872 29.5186 98.5469 29.379C96.9326 27.5651 95.8797 24.844 95.3884 22.4719C95.3884 22.3323 95.1778 22.3323 95.1778 22.4719C94.6163 24.9137 93.5635 27.6348 92.0194 29.379C91.879 29.5186 92.0194 29.7279 92.2299 29.7279H98.3364Z" fill="white"/>
<path d="M107.532 29.7279C107.743 29.7279 107.883 29.5186 107.743 29.379C106.128 27.5651 105.076 24.844 104.584 22.4719C104.584 22.3323 104.374 22.3323 104.374 22.4719C103.812 24.9137 102.759 27.6348 101.215 29.379C101.075 29.5186 101.215 29.7279 101.426 29.7279H107.532Z" fill="white"/>
<path d="M116.586 29.7279C116.796 29.7279 116.937 29.5186 116.796 29.379C115.182 27.5651 114.129 24.844 113.638 22.4719C113.638 22.3323 113.427 22.3323 113.427 22.4719C112.866 24.9137 111.813 27.6348 110.269 29.379C110.129 29.5186 110.269 29.7279 110.479 29.7279H116.586Z" fill="white"/>
<path d="M97.5678 19.542C97.7784 19.542 97.9889 19.3327 97.7784 19.1234C95.8832 17.0304 94.4795 13.5419 93.8478 10.6116C93.8478 10.4023 93.6372 10.4023 93.4968 10.6116C92.8652 13.5419 91.4614 16.8908 89.5662 19.1234C89.426 19.3327 89.5662 19.542 89.7769 19.542H97.5678Z" fill="white"/>
<path d="M109.639 19.542C109.85 19.542 110.06 19.3327 109.85 19.1234C107.954 17.0304 106.551 13.5419 105.919 10.6116C105.919 10.4023 105.709 10.4023 105.568 10.6116C104.936 13.5419 103.533 16.8908 101.638 19.1234C101.497 19.3327 101.638 19.542 101.848 19.542H109.639Z" fill="white"/>
</g>
</g>
</g>
</g>
<defs>
<clipPath id="clip0_736_15369">
<rect width="200" height="95.8884" fill="white" transform="translate(0 0.983398)"/>
</clipPath>
<clipPath id="clip1_736_15369">
<rect width="200" height="95.8884" fill="white" transform="translate(0 0.983398)"/>
</clipPath>
<clipPath id="clip2_736_15369">
<rect width="199.996" height="95.8884" fill="white" transform="translate(0.00244141 0.983398)"/>
</clipPath>
</defs>
</svg>
