<svg width="171" height="44" viewBox="0 0 171 44" fill="none" xmlns="http://www.w3.org/2000/svg">
<g clip-path="url(#clip0_553_26341)">
<g clip-path="url(#clip1_553_26341)">
<g clip-path="url(#clip2_553_26341)">
<path d="M27.9792 16.3525H15.314V22.0185H18.5756V33.9591H24.7175V22.0185H27.9792V16.3525Z" fill="#FFC700"/>
<path d="M11.1814 27.3861C10.6177 27.9566 9.8342 28.3103 8.97741 28.3103C7.25256 28.3103 5.86026 26.8955 5.86026 25.1557C5.86026 23.4101 7.25819 22.0012 8.97741 22.0012C9.83984 22.0012 10.6177 22.3549 11.1814 22.9252L15.3131 18.7439C13.6898 17.1011 11.452 16.0857 8.97177 16.0857C4.02268 16.0857 0.00927734 20.1473 0.00927734 25.1557C0.00927734 30.1642 4.02268 34.2257 8.97177 34.2257C11.4463 34.2257 13.6898 33.2103 15.3131 31.5674L11.1814 27.3861Z" fill="#FFC700"/>
<path d="M94.1957 30.1387C93.6625 29.5545 92.6126 29.2596 91.0463 29.2596C91.0463 29.2596 90.2266 29.2596 89.16 29.2596C88.0933 29.2596 87.4757 29.2255 87.2455 29.1631C87.0154 29.1007 86.8974 28.8909 86.8974 28.5335C86.8974 28.1819 87.0209 27.9664 87.2681 27.8926C87.515 27.8189 88.1662 27.7792 89.2161 27.7792C91.1305 27.7792 92.781 27.8699 94.1677 28.0571V23.1963C92.2477 23.0431 89.6877 22.89 87.1446 22.89C85.5389 22.89 84.3544 23.0203 83.5908 23.2813C82.8274 23.5422 82.1817 24.1265 81.8897 24.9318V12.8846H75.6413V19.6456C75.327 19.0501 74.8497 18.5849 74.2042 18.2503C73.5586 17.9156 72.649 17.7455 71.7058 17.7455C69.4996 17.7455 68.6013 18.568 68.2308 18.931C68.0231 19.1351 67.8434 19.3904 67.6863 19.691C67.7817 19.3507 67.8321 18.9934 67.8321 18.6247C67.8321 16.424 66.0637 14.6373 63.8855 14.6373C61.7072 14.6373 59.9388 16.424 59.9388 18.6247C59.9388 20.8254 61.7072 22.612 63.8855 22.612C65.3845 22.612 66.6926 21.7669 67.3606 20.519C67.1697 21.1486 66.9395 22.3851 66.9395 23.2926H60.7642V36.9167L56.256 29.8608L60.5396 23.2983H53.9318L50.5858 28.7434V12.8846H44.3374V37.2627H50.5858V31.4774L54.235 37.2627H60.7585H60.9774H67.0069V27.8132C67.181 29.407 67.6806 30.7002 68.1747 31.1994C68.7192 31.7496 69.5669 32.4132 71.7115 32.4132C73.4406 32.4132 74.6476 31.8006 75.6413 30.5698V32.0219H81.8897V29.3049C82.0245 29.7474 82.2042 30.0877 82.4455 30.3315C82.9789 30.8817 84.0568 31.1539 85.6792 31.1539H87.5375C88.4414 31.1539 89.4126 31.1937 89.6483 31.2675C89.8785 31.3411 89.9964 31.5681 89.9964 31.9367C89.9964 32.2884 89.8617 32.504 89.5978 32.5776C89.3284 32.6514 88.6548 32.691 87.5656 32.691C85.5951 32.691 83.8041 32.6003 82.1985 32.4132V37.4158C83.9108 37.603 85.9655 37.6938 88.3628 37.6938C90.9789 37.6938 92.7416 37.4158 93.6455 36.8543C94.5494 36.2927 94.9986 35.1527 94.9986 33.417C94.9986 31.8233 94.7291 30.7285 94.1957 30.1387ZM75.6413 26.3498C75.6413 26.7583 75.5403 27.0929 75.3382 27.3424C75.1361 27.592 74.8779 27.7168 74.5634 27.7168C74.1031 27.7168 73.783 27.5239 73.6091 27.1439C73.4351 26.764 73.3452 26.089 73.3452 25.119C73.3452 24.0924 73.4351 23.3834 73.6202 22.9807C73.8055 22.578 74.1199 22.3795 74.5579 22.3795C74.8722 22.3795 75.1304 22.4815 75.3325 22.6858C75.5346 22.89 75.6358 23.1792 75.6358 23.5536V26.3498H75.6413Z" fill="white"/>
<path d="M38.6223 27.3861C38.0584 27.9566 37.2746 28.3103 36.4175 28.3103C34.6921 28.3103 33.2992 26.8955 33.2992 25.1557C33.2992 23.4101 34.6976 22.0012 36.4175 22.0012C37.2802 22.0012 38.0584 22.3549 38.6223 22.9252L42.7555 18.7439C41.1316 17.1011 38.8929 16.0857 36.4175 16.0857C31.4665 16.0857 27.4517 20.1473 27.4517 25.1557C27.4517 30.1642 31.4665 34.2257 36.4175 34.2257C38.8929 34.2257 41.1372 33.2103 42.7555 31.5674L38.6223 27.3861Z" fill="#FFC700"/>
<mask id="mask0_553_26341" style="mask-type:luminance" maskUnits="userSpaceOnUse" x="113" y="0" width="59" height="43">
<path d="M171.002 0.800049H113.997V42.1156H171.002V0.800049Z" fill="white"/>
</mask>
<g mask="url(#mask0_553_26341)">
<path d="M143.611 11.4337C143.591 14.569 143.13 24.7461 143.211 27.0456C143.509 29.2119 146.976 28.806 148.342 28.7002C150.948 28.4956 154.489 27.745 156.634 25.6877C158.161 24.2241 158.725 22.1737 158.725 21.0649C158.715 16.5887 158.059 14.3745 155.941 12.5117C154.036 10.8332 148.974 10.7923 146.565 10.6694C143.044 10.4886 143.614 10.9117 143.611 11.4337ZM148.151 12.8904C149.339 12.8802 150.825 13.0747 151.809 13.9003C153.628 15.4322 154.644 17.5678 154.524 18.3117C154.072 21.1434 151.839 23.9956 149.224 23.9956C148.228 23.9956 146.688 24.0843 146.719 23.1221C146.733 22.7092 147.615 14.3643 147.62 13.7809C147.628 13.2487 147.672 12.8939 148.151 12.8904Z" fill="#FD1F21"/>
<path d="M126.74 28.5163C128.369 28.5505 130.425 28.4685 132.054 28.4516C132.491 28.4481 132.874 28.1513 132.686 27.6259C132.088 25.9474 128.461 22.0307 127.044 20.2566C126.654 19.7722 125.51 18.4246 125.51 18.2813C125.51 18.155 126.32 17.2408 128.102 15.2415C129.984 13.1331 130.678 12.1471 130.449 11.6899C130.251 11.2907 129.892 10.5743 129.236 10.2911C127.266 9.43479 127.576 10.1922 126.606 11.2327C126.128 11.7445 122.969 14.7673 122.323 15.627C122.33 15.6338 119.157 18.2403 119.191 16.2957C119.219 14.6069 117.313 14.8969 116.951 14.351C116.654 13.9041 120.793 10.5777 119.396 10.605C117.719 10.6391 116.848 10.5675 116.739 11.0895C116.493 12.2767 116.619 14.8457 116.732 19.2706C116.821 22.7711 115.632 23.6377 115.673 26.7286C115.694 28.2604 117.04 28.4823 118.334 28.4823C119.325 28.4823 120.312 28.5027 121.302 28.513C122.457 28.5266 122.323 27.4349 122.323 26.7286C122.323 25.6539 122.323 24.5827 122.354 23.508C122.351 23.4807 124.154 27.892 126.74 28.5163Z" fill="#FD1F21"/>
<path d="M164.009 10.2097C161.704 10.4076 159.566 11.3219 159.408 14.6244C159.306 16.8079 162.136 17.9542 163.674 19.2541C164.292 19.7761 165.72 22.1199 165.761 23.2014C165.791 24.085 165.286 24.7094 163.786 24.5832C162.174 24.4467 160.931 22.7715 159.664 24.4126C158.954 25.3337 158.029 23.9111 158.729 26.6234C159.36 28.6465 162.356 29.1412 164.323 29.131C166.895 29.1172 168.466 28.4998 169.686 26.8349C170.512 25.709 170.611 24.6207 170.611 23.836C170.611 22.5293 169.743 21.1203 168.92 20.1685C168.046 19.1585 166.966 18.2919 165.952 17.4255C164.501 16.1903 164.125 15.7776 164.466 14.9826C165.357 12.8981 167.666 16.3951 169.306 14.7472C170.202 13.8466 170.269 12.6456 169.176 11.2298C167.865 9.72183 165.924 10.0459 164.009 10.2097Z" fill="#FD1F21"/>
<path d="M135.588 31.3423C133.99 31.4139 133.269 31.9291 132.859 32.4818C131.828 33.8635 131.561 36.1663 131.691 37.5516C132.289 42.5394 135.213 42.0583 136.254 42.0174C139.837 41.8776 140.708 38.6296 140.613 35.6819C140.585 34.8564 139.953 33.2426 139.359 32.4818C138.461 31.3355 137.272 31.2672 135.588 31.3423ZM135.291 31.9837C137.074 32.0076 137.829 34.8461 137.819 37.4424C137.815 38.6808 136.889 39.7555 135.872 39.7555C133.921 39.7555 133.484 37.4049 133.481 36.3506C132.46 35.4091 134.307 31.97 135.291 31.9837Z" fill="#FD1F21"/>
<path d="M124.274 31.5523C123.553 31.5625 123.669 31.9752 123.665 32.1186C123.655 32.5961 123.471 38.7578 123.44 40.0099C123.426 40.5728 123.286 41.4597 124.431 41.8794C125.387 42.2309 126.251 41.8316 126.623 41.2789C127.904 39.2831 126.429 39.0101 126.569 38.8907C126.729 38.9965 128.089 41.5041 128.802 41.7429C129.342 41.9237 130.237 41.8896 130.951 41.876C132.191 41.8556 132.348 40.5455 131.914 40.0815C130.428 38.2562 129.544 39.3036 128.799 38.8089C129.028 38.6724 129.526 38.4268 130.107 37.9492C131.18 37.0655 131.357 35.1106 131.275 33.9609C130.63 31.1633 129.991 31.8865 128.608 31.6375C128.42 31.6034 124.933 31.5421 124.274 31.5523ZM127.932 32.3949C128.878 32.3676 128.352 33.5037 128.515 34.4454C128.884 36.547 127.354 36.8916 126.569 36.772C126.207 36.7175 126.22 36.5537 126.217 36.4207C126.207 35.4756 124.683 35.1993 124.704 34.2509C123.515 33.473 124.106 30.8084 127.932 32.3949Z" fill="#FD1F21"/>
<path d="M135.52 11.9444C135.298 11.9171 136.928 8.42014 136.408 9.35494C135.964 10.1465 135.643 10.9107 135.233 10.8868C134.199 10.8288 131.302 10.4876 131.169 11.1017C131.125 11.2996 131.418 11.5316 131.961 11.941C132.938 12.6814 133.638 13.3296 133.495 14.1791C133.427 14.5919 132.146 14.8785 131.685 15.6564C130.609 17.4611 131.148 18.5664 131.473 18.7234C131.692 18.8292 133.269 16.656 136.227 17.4577C138.489 18.0718 139.257 19.1055 141.484 21.3232C141.737 21.5722 141.774 19.9073 141.709 19.5627C140.975 15.7416 140.493 15.479 140.148 14.568C140.083 14.394 140.463 14.1313 141.019 13.8106C141.61 13.4694 142.157 13.2102 142.59 12.9816C143.192 12.6711 143.772 12.2378 143.803 11.9444C143.212 10.3546 139.517 10.6616 140.148 11.0881C138.174 11.4122 135.951 12.0365 135.52 11.9444Z" fill="#FD1F21"/>
<path d="M118.044 31.5375C117.067 31.534 115.858 31.4624 115.851 32.4451C115.827 35.1983 115.55 37.0712 115.571 39.8244C115.578 40.8173 115.708 41.8886 117.62 41.7179C119.01 41.5952 118.949 39.9064 119.01 39.0227C119.014 38.992 120.889 39.0978 121.661 38.6168C123 37.7741 123.69 36.4845 123.69 34.5193C123.69 33.8063 122.866 32.3257 122.214 31.7388C121.111 30.7425 119.868 31.5443 118.044 31.5375ZM118.833 32.097C119.516 32.0867 120.93 32.7316 121.019 33.8882C121.111 35.0789 120.513 36.7949 119.01 36.8155C118.563 36.8222 117.648 36.2866 117.62 35.594C117.576 34.5398 117.357 33.3593 117.364 32.3699C117.368 32.1721 118.484 32.1005 118.833 32.097Z" fill="#FD1F21"/>
<path d="M148.513 31.6501C148.148 31.6568 147.602 31.708 147.588 32.4483C147.558 34.1064 147.206 38.8623 147.206 40.0666C147.206 40.2782 147.137 41.8407 148.641 41.9192C150.174 41.9192 151.704 41.909 153.237 41.8885C154.317 41.8749 155.096 39.2683 154.146 38.8896C153.9 38.7907 150.928 39.3536 150.217 39.3536C149.737 39.3536 149.627 38.3847 149.634 37.9174C149.64 37.3612 150.125 36.9347 150.505 36.9279C151.359 36.9109 152.677 36.8905 152.674 35.9727C152.418 34.3862 150.774 35.2971 150.217 35.0515C149.839 34.8809 149.634 34.84 149.634 34.5227C149.634 33.8778 150.109 33.4071 150.624 33.3969C151.464 33.3798 152.401 33.3798 153.241 33.3969C153.459 33.4002 153.801 33.3184 153.783 32.9703C153.783 32.4927 153.783 32.4585 153.783 32.0663C153.791 31.7831 153.747 30.7426 153.241 30.7186C152.94 30.7015 149.767 31.6295 148.513 31.6501Z" fill="#FD1F21"/>
<path d="M157.668 31.4638C156.181 31.7539 154.914 32.2928 154.457 34.3706C154.207 35.5033 153.842 35.9502 153.921 37.2262C154.03 38.9252 154.805 40.4161 155.829 41.1257C157.004 41.9378 159.146 41.9036 160.485 41.6068C161.001 41.4908 162.122 40.788 162.462 40.0203C162.801 39.3449 161.951 37.697 161.073 37.4787C159.931 37.1955 159.915 39.3209 158.122 39.0241C157.448 38.9116 156.561 38.0757 156.462 37.39C156.311 36.3528 155.888 34.0601 158.122 33.6917C159.236 33.5074 160.414 34.0396 160.97 33.6234C161.814 32.9958 161.479 31.1705 160.235 30.7235C159.448 30.4369 158.781 31.2455 157.668 31.4638Z" fill="#FD1F21"/>
<path d="M141.024 30.8473C140.836 30.8507 140.617 31.8331 140.614 32.0583C140.604 32.6862 141.519 31.243 141.519 32.0583C141.519 32.3552 141.697 31.5773 141.963 31.5808C143.606 29.5508 143.961 32.0583 144.077 32.0583C144.911 32.0448 144.187 33.9383 144.193 34.1566C144.214 34.7297 144.152 38.2506 144.077 38.5337C143.613 40.2567 140.843 37.4454 139.948 38.3358C139.538 38.7418 139.746 40.0588 140.354 40.7547C141.294 41.8294 143.596 42.4504 145.228 41.5326C146.068 41.0584 147.466 39.8234 147.466 38.6429C147.466 37.8787 147.445 32.7339 147.432 32.1608C147.422 31.6933 146.834 30.7791 146.467 30.7791C145.737 30.7791 142.684 30.8131 141.024 30.8473Z" fill="#FD1F21"/>
<path d="M163.767 31.585C161.841 31.5475 162.889 31.8306 164.197 31.9261C164.876 31.9773 165.632 32.1991 165.267 34.0413C165.297 34.0413 165.331 34.0755 165.331 34.1062C165.351 35.604 164.911 36.6036 164.881 38.1047C164.726 39.7083 164.948 41.8917 166.639 42.0929C167.463 42.1203 168.166 41.8064 168.337 40.5953C168.35 37.7363 167.931 36.4023 167.951 34.0755C167.951 34.0448 167.985 34.0141 168.015 34.0106C168.644 33.9902 169.272 34.0209 169.898 34.0106C170.421 34.0039 170.628 33.3897 170.677 33.1578C171.008 31.5884 170.659 30.5649 169.389 30.6842C169.044 30.616 168.935 31.5884 168.651 31.5884C167.407 31.585 164.149 31.5918 163.767 31.585Z" fill="#FD1F21"/>
<path d="M134.514 20.3452C134.223 20.3316 134.012 20.509 134.001 20.8229C133.981 21.5462 133.4 25.3808 133.424 26.8274C133.434 27.6292 133.8 28.291 136.245 28.3252C137.543 28.3423 138.551 28.3559 138.568 27.8681C138.588 27.3256 138.551 24.2858 138.247 23.4055C136.703 20.3452 136.191 20.4203 134.514 20.3452Z" fill="#FD1F21"/>
<path d="M143.195 10.5613C143.174 13.6693 143.113 24.2489 143.195 26.5279C143.239 27.78 146.532 27.6026 147.888 27.4969C150.473 27.2956 153.988 26.736 156.118 24.6959C157.632 23.2459 158.195 21.2126 158.192 20.1106C158.182 15.6719 157.571 13.8535 155.47 12.0044C153.579 10.3395 149.183 9.92328 146.792 9.80045C143.301 9.62646 143.202 10.0427 143.195 10.5613ZM148.475 13.3418C149.653 13.3315 151.129 13.5226 152.106 14.3448C153.913 15.8631 153.807 18.0125 153.691 18.7493C153.247 21.5572 151.362 23.0174 148.769 23.0174C147.781 23.0174 147.832 22.8365 147.863 21.8813C147.878 21.4718 147.946 14.8054 147.957 14.2254C147.96 13.6966 148 13.3486 148.475 13.3418Z" fill="white"/>
<path d="M125.746 27.5011C127.362 27.5352 128.974 27.484 130.59 27.4704C131.023 27.4669 131.402 27.1701 131.215 26.6516C130.62 24.9867 127.027 21.1007 125.62 19.3437C125.234 18.8626 124.1 17.5253 124.1 17.3819C124.1 17.2558 124.903 16.3483 126.668 14.3661C128.533 12.2747 129.199 11.3501 128.974 10.8998C128.776 10.504 128.451 10.487 127.803 10.2038C125.849 9.35771 125.617 9.67158 124.653 10.7019C124.179 11.2103 121.576 13.8953 120.937 14.7482C120.941 14.755 120.951 14.6151 120.985 12.6875C121.013 11.0124 121.159 10.7429 120.801 10.2038C120.507 9.76029 119.417 9.74323 118.031 9.77052C116.367 9.80464 115.503 9.73299 115.397 10.2516C115.151 11.4286 115.278 13.9771 115.39 18.3646C115.479 21.8377 115.568 22.7861 115.606 25.8533C115.626 27.3715 115.694 27.5011 116.975 27.5011C117.956 27.5011 118.939 27.5216 119.92 27.5318C121.064 27.5454 120.934 26.464 120.934 25.761C120.934 24.6967 120.934 23.6323 120.965 22.5678C120.968 22.5405 124.589 27.4771 125.746 27.5011Z" fill="white"/>
<path d="M163.567 9.37354C161.279 9.57141 159.161 10.4755 159.008 13.7507C158.905 15.9171 160.773 17.93 162.3 19.2197C162.911 19.7383 165.268 21.1814 165.306 22.2561C165.337 23.1328 164.834 23.7504 163.345 23.6276C161.746 23.4945 160.513 21.8331 159.261 23.457C158.556 24.3713 158.328 24.9274 158.577 25.7293C159.202 27.7353 161.931 28.1481 163.881 28.1379C166.433 28.1242 167.986 27.5101 169.199 25.8622C170.019 24.7466 170.119 23.6686 170.119 22.8907C170.119 21.5943 169.258 20.1954 168.441 19.2537C167.573 18.2541 166.505 17.3911 165.496 16.5347C164.058 15.3099 163.687 14.9005 164.022 14.1124C164.906 12.0449 167.194 15.5111 168.819 13.8804C169.708 12.9865 169.67 11.7242 168.819 10.8781C167.823 9.87847 165.466 9.20978 163.567 9.37354Z" fill="white"/>
<path d="M135.41 30.3328C133.826 30.4044 133.112 30.9162 132.702 31.462C131.681 32.8302 131.561 35.621 131.688 36.9958C132.039 40.8203 135.035 40.9601 136.066 40.9192C139.618 40.7829 140.045 37.4836 139.95 34.5599C139.922 33.7411 139.615 32.5401 139.024 31.7828C138.139 30.6466 137.081 30.2577 135.41 30.3328ZM135.475 32.6459C137.245 32.6697 137.364 33.9218 137.357 36.4943C137.354 37.7224 136.705 38.6744 135.697 38.6744C133.761 38.6744 134.054 35.788 134.051 34.7441C134.044 33.7377 134.499 32.6323 135.475 32.6459Z" fill="white"/>
<path d="M124.167 30.5582C123.45 30.5685 123.57 30.9778 123.566 31.1178C123.556 31.592 123.501 38.3813 123.471 39.623C123.457 40.1792 123.839 40.5886 124.225 40.7284C125.021 41.0219 125.793 40.7695 126.162 40.2235C126.452 39.7971 126.531 39.0636 126.671 38.9442C126.831 39.0465 127.641 40.4316 128.348 40.667C128.881 40.8445 129.772 40.8104 130.479 40.8002C131.709 40.7797 131.056 39.9574 130.626 39.4969C130.021 38.8486 129.4 38.2482 128.662 37.7569C128.887 37.6204 129.386 37.3748 129.96 36.904C131.026 36.0272 131.053 34.6932 130.974 33.5536C130.879 32.1924 129.847 30.8926 128.474 30.6436C128.283 30.6094 124.823 30.5447 124.167 30.5582ZM126.322 32.4756C127.258 32.4482 128.215 32.4893 128.379 33.424C128.744 35.5085 127.224 35.8498 126.449 35.7337C126.09 35.6792 126.104 35.5189 126.1 35.3858C126.09 34.4476 126.08 33.5094 126.1 32.5711C126.1 32.4893 126.312 32.4756 126.322 32.4756Z" fill="white"/>
<path d="M135.883 7.1536C135.678 7.14678 135.316 8.09182 134.92 8.98227C134.585 9.73967 134.356 10.4595 133.984 10.4732C133.041 10.5073 130.384 10.4425 130.312 11.0122C130.288 11.1965 130.575 11.3807 131.104 11.7082C132.054 12.2984 132.744 12.8272 132.686 13.6119C132.658 13.9906 132.293 14.3693 131.941 15.1131C131.118 16.8429 130.923 17.7913 131.234 17.9072C131.439 17.9857 132.693 15.8773 135.445 16.3584C137.549 16.7233 138.335 17.6002 140.541 19.4254C140.791 19.6302 140.599 18.2144 140.511 17.9072C139.52 14.499 139.284 14.5297 138.895 13.7348C138.82 13.5812 139.114 13.4413 139.592 13.1036C140.101 12.7454 140.572 12.4622 140.948 12.22C141.467 11.889 141.805 11.6332 141.805 11.3636C141.822 10.8553 138.171 10.9372 137.942 10.6676C136.586 9.05732 136.279 7.19795 135.883 7.1536Z" fill="white"/>
<path d="M117.711 30.5337C116.741 30.5304 115.545 30.4586 115.535 31.4344C115.511 34.1638 115.545 36.8931 115.566 39.6225C115.573 40.6085 116.184 40.663 117.287 40.6289C118.407 40.5947 118.189 38.7832 118.25 37.9064C118.254 37.8757 120.532 38.0291 121.294 37.5516C122.622 36.7156 122.909 35.5011 122.909 33.5531C122.909 32.8468 122.605 31.9666 121.96 31.3832C120.867 30.3939 119.521 30.5406 117.711 30.5337ZM118.472 32.3999C119.152 32.3897 120.337 32.5671 120.426 33.7167C120.518 34.8972 120.16 35.7467 118.67 35.7672C118.226 35.7741 117.912 35.8219 117.885 35.136C117.841 34.092 117.854 33.6793 117.861 32.6967C117.861 32.4988 118.124 32.4033 118.472 32.3999Z" fill="white"/>
<path d="M148.227 30.632C147.865 30.6389 147.323 30.6901 147.308 31.4235C147.277 33.068 147.244 38.7383 147.244 39.9289C147.244 40.137 147.318 40.8159 148.35 40.8126C149.87 40.8126 151.39 40.8024 152.906 40.7819C153.979 40.7682 154.007 38.7246 153.064 38.3459C152.822 38.2504 150.615 38.2674 149.911 38.2674C149.433 38.2674 149.522 37.5851 149.529 37.1176C149.535 36.5685 150.158 36.5787 150.533 36.5718C151.379 36.5547 152.398 36.6605 152.394 35.7496C152.388 34.4055 150.324 35.0469 149.775 34.8012C149.395 34.634 149.443 33.9448 149.443 33.6276C149.443 32.9862 149.808 32.8906 150.321 32.8804C151.154 32.8633 152.234 32.8259 153.067 32.8428C153.285 32.8463 153.433 32.8394 153.415 32.4949C153.392 32.0104 153.436 31.526 153.446 31.0415C153.453 30.7583 153.348 30.656 152.845 30.632C152.551 30.6184 149.471 30.6116 148.227 30.632Z" fill="white"/>
<path d="M157.247 30.4395C155.775 30.726 154.518 31.2616 154.064 33.3223C153.814 34.4447 153.78 35.5774 153.862 36.8397C153.972 38.5216 154.412 39.3166 155.43 40.0229C156.598 40.828 158.72 40.7939 160.048 40.5005C160.56 40.388 161.441 40.091 161.694 39.5827C162.028 38.9106 161.803 37.6176 160.937 37.4026C159.806 37.1194 159.484 38.2351 157.708 37.9418C157.042 37.8326 156.51 37.2594 156.411 36.5838C156.26 35.5569 155.839 33.2813 158.056 32.9164C159.16 32.7321 159.972 33.4213 160.526 33.0118C161.363 32.3875 161.339 31.0978 160.109 30.6543C159.32 30.3677 158.354 30.2245 157.247 30.4395Z" fill="white"/>
<path d="M140.843 30.6986C140.655 30.702 140.306 30.7975 140.303 31.0227C140.293 31.6437 140.293 31.6402 140.293 32.4487C140.293 32.7422 140.337 32.9742 140.6 32.9776C140.651 32.9776 140.737 32.9776 140.849 32.9742C141.676 32.9605 143.923 32.9094 143.93 33.1243C143.951 33.6941 143.889 37.1842 143.814 37.464C143.353 39.1733 140.931 37.2456 140.047 38.1293C139.64 38.5352 139.797 39.2994 140.125 39.6713C141.048 40.7222 143.339 41.3534 144.958 40.4423C145.792 39.9716 146.283 39.238 146.283 38.0679C146.283 37.3105 146.403 32.8787 146.39 32.3089C146.38 31.8449 146.492 30.7804 146.133 30.7771C145.406 30.7737 142.485 30.6645 140.843 30.6986Z" fill="white"/>
<path d="M163.379 30.5741C161.47 30.5367 161.545 32.8838 162.839 32.976C163.513 33.0238 164.193 32.976 164.865 33.0067C164.896 33.0067 164.926 33.0407 164.929 33.0714C164.95 34.559 164.96 36.0431 164.929 37.5305C164.896 39.1819 164.612 40.9354 166.228 40.9934C167.044 41.0207 167.526 40.4134 167.526 39.9665C167.539 37.1314 167.506 35.3504 167.526 33.0407C167.526 33.01 167.56 32.9794 167.59 32.976C168.211 32.9555 168.837 32.9862 169.459 32.976C169.636 32.9725 169.886 32.8293 169.933 32.5972C170.114 31.7272 170.063 30.7822 169.332 30.6356C168.99 30.5673 168.505 30.5707 168.226 30.5707C166.99 30.5741 163.759 30.5843 163.379 30.5741Z" fill="white"/>
<path d="M133.875 19.4766C133.588 19.4628 133.377 19.6369 133.37 19.9508C133.349 20.6672 133.349 24.966 133.37 26.4022C133.38 27.1972 133.534 27.3609 135.593 27.3882C136.878 27.4053 137.656 27.4224 137.673 26.9379C137.694 26.4022 137.878 23.3829 137.578 22.5129C136.963 20.7218 135.539 19.5482 133.875 19.4766Z" fill="white"/>
<path d="M146.602 28.133C145.069 28.133 144.072 27.9145 143.573 27.4676C143.327 27.2493 143.194 26.9695 143.184 26.6625C143.092 24.0832 143.18 11.2246 143.184 10.6787C143.184 10.5115 143.187 10.1703 143.474 9.89741C143.853 9.53918 144.615 9.34471 147.245 9.48118C150.305 9.63811 154.343 10.1635 156.198 11.7943C157.365 12.8212 158.042 13.8004 158.469 15.0661C158.882 16.3012 159.063 17.8466 159.069 20.2314C159.074 21.5722 158.382 23.6772 156.86 25.1374C155.856 26.0996 154.469 26.8364 152.73 27.3346C151.483 27.6894 150.052 27.9282 148.354 28.0612C147.705 28.109 147.122 28.133 146.602 28.133ZM145.79 10.3239C145.339 10.3239 144.974 10.3409 144.687 10.375C144.167 10.4399 144.079 10.5422 144.079 10.5422C144.075 10.5525 144.069 10.5832 144.069 10.6821C144.065 11.228 143.976 24.0696 144.069 26.6318C144.072 26.6795 144.082 26.7341 144.164 26.8057C144.376 26.9969 145.206 27.4131 148.283 27.1708C152.065 26.874 154.667 25.9971 156.241 24.4927C157.666 23.1279 158.182 21.197 158.178 20.2281C158.168 15.8917 157.615 14.22 155.606 12.4562C154.311 11.3167 151.327 10.5729 147.197 10.3648C146.658 10.3375 146.19 10.3239 145.79 10.3239ZM149.195 23.5816C148.758 23.5816 148.344 23.5578 148.081 23.2848C147.812 23.0051 147.825 22.6265 147.843 22.101L147.846 21.9851C147.856 21.7154 147.891 18.5665 147.912 16.482C147.922 15.3936 147.932 14.5305 147.935 14.3394C147.938 14.046 147.952 13.7629 148.061 13.5206C148.147 13.3364 148.369 13.0225 148.898 13.0191C150.073 13.0089 151.71 13.1931 152.816 14.1245C153.669 14.8443 154.229 15.7654 154.476 16.8606C154.691 17.8125 154.599 18.6314 154.551 18.9384C154.315 20.4191 153.707 21.5825 152.744 22.3944C151.828 23.1723 150.599 23.5816 149.195 23.5816ZM148.731 22.6639C148.785 22.6776 148.911 22.6947 149.195 22.6947C151.689 22.6947 153.281 21.313 153.68 18.8019C153.772 18.2219 153.94 16.2261 152.249 14.8034C151.347 14.046 149.933 13.8993 148.908 13.9061C148.888 13.9061 148.875 13.9061 148.864 13.9095C148.84 13.9744 148.826 14.1211 148.823 14.3531C148.819 14.5441 148.809 15.4039 148.799 16.4955C148.775 18.7098 148.742 21.7394 148.734 22.0191L148.731 22.1352C148.721 22.3364 148.714 22.5649 148.731 22.6639Z" fill="#FD1F21"/>
<path d="M120.336 28.112C120.33 28.112 120.319 28.112 120.312 28.112C119.995 28.1086 119.677 28.1051 119.36 28.0984C118.707 28.0882 118.034 28.0778 117.372 28.0813C116.689 28.0813 116.183 28.054 115.865 27.6651C115.585 27.3205 115.565 26.8326 115.555 25.9968C115.531 24.2193 115.493 23.1446 115.445 21.8959C115.411 20.9952 115.374 19.9717 115.336 18.515C115.319 17.7985 115.298 17.1435 115.281 16.5088C115.189 13.2848 115.135 11.3401 115.35 10.303C115.432 9.90381 115.742 9.65476 116.272 9.55923C116.641 9.491 117.119 9.48759 117.778 9.47735C117.976 9.47394 118.185 9.47394 118.407 9.46712C120.036 9.43641 121.132 9.46029 121.556 10.0983C121.901 10.6169 121.884 10.9853 121.846 11.7939C121.832 12.0668 121.819 12.4046 121.812 12.8345C121.808 13.1381 121.802 13.4076 121.798 13.6464C122.556 12.8038 123.584 11.7256 124.233 11.0467C124.452 10.8181 124.623 10.6373 124.712 10.5418L124.773 10.4736C125.265 9.94816 125.617 9.56605 126.173 9.45005C126.693 9.33746 127.287 9.47052 128.363 9.93793C128.513 10.0027 128.65 10.0539 128.769 10.1017C129.176 10.2586 129.527 10.3917 129.756 10.842C130.006 11.3367 129.695 11.9133 129.36 12.408C129.002 12.9368 128.411 13.6533 127.386 14.803C126.337 15.9801 125.34 17.0991 125.002 17.529C125.224 17.836 125.723 18.4399 125.986 18.7605C126.132 18.9379 126.259 19.0949 126.351 19.2075C126.699 19.6442 127.181 20.2038 127.734 20.8554C129.432 22.8443 131.546 25.3212 132.017 26.6449C132.14 26.993 132.106 27.3341 131.922 27.6002C131.724 27.8799 131.372 28.0506 130.979 28.054C130.511 28.0574 130.033 28.0676 129.572 28.0745C128.441 28.0915 127.277 28.112 126.122 28.0882C125.589 28.0778 124.609 27.5798 121.771 23.9737C121.764 24.6423 121.764 25.2974 121.764 25.9046C121.764 25.9661 121.764 26.0309 121.767 26.0957C121.774 26.604 121.788 27.3001 121.344 27.7436C121.108 27.9857 120.763 28.112 120.336 28.112ZM117.447 27.1909C118.089 27.1909 118.741 27.2011 119.373 27.2114C119.691 27.2147 120.005 27.2216 120.323 27.2249C120.514 27.2283 120.651 27.1909 120.726 27.1124C120.903 26.935 120.896 26.4744 120.89 26.1025C120.89 26.0309 120.886 25.9626 120.886 25.8944C120.886 24.9016 120.886 23.7792 120.917 22.6874L120.927 22.3735L121.224 22.278C121.521 22.1825 121.699 22.4077 121.754 22.4828C121.781 22.5168 121.822 22.5715 121.873 22.6362C122.211 23.0797 123.113 24.2534 124.039 25.3008C125.634 27.1056 126.102 27.1874 126.15 27.1909C127.284 27.2147 128.445 27.1976 129.565 27.1772C130.03 27.1704 130.508 27.1636 130.979 27.1567C131.105 27.1567 131.184 27.1089 131.205 27.0817C131.225 27.0544 131.211 26.9862 131.191 26.9315C130.774 25.7614 128.633 23.2538 127.068 21.4217C126.508 20.7667 126.027 20.2002 125.668 19.7534C125.583 19.6442 125.456 19.4941 125.313 19.3167C124.1 17.8427 124.052 17.7336 124.052 17.5153C124.052 17.314 124.124 17.1809 124.783 16.4167C125.214 15.9152 125.866 15.1851 126.737 14.2059C127.646 13.1859 128.206 12.5172 128.547 12.0327C128.96 11.4527 128.974 11.2583 128.971 11.2241C128.906 11.0979 128.831 11.0604 128.465 10.9239C128.339 10.8761 128.192 10.8181 128.025 10.7465C127.174 10.378 126.679 10.2484 126.375 10.3132C126.105 10.3712 125.88 10.5998 125.439 11.074L125.378 11.1423C125.285 11.2412 125.111 11.422 124.893 11.654C124.022 12.5649 122.222 14.455 121.703 15.1339C121.655 15.209 121.583 15.2636 121.494 15.2977L121.214 15.4035L120.756 14.9122L120.9 14.7211C120.907 14.5301 120.917 14.0388 120.937 12.814C120.944 12.3705 120.961 12.0259 120.972 11.7461C121.006 10.9853 121.006 10.8523 120.828 10.5793C120.825 10.5725 120.736 10.4463 120.172 10.3814C119.691 10.3269 119.025 10.3337 118.437 10.3439C118.209 10.3473 118 10.3507 117.802 10.3542C117.31 10.361 116.924 10.3644 116.631 10.3951C116.354 10.4224 116.255 10.4667 116.227 10.4838C116.036 11.4254 116.091 13.4383 116.18 16.4748C116.197 17.1093 116.217 17.7643 116.234 18.4841C116.272 19.9376 116.309 20.9577 116.344 21.855C116.388 23.1071 116.429 24.192 116.453 25.9763C116.46 26.3721 116.467 26.9724 116.566 27.0953C116.637 27.184 117.177 27.184 117.378 27.184C117.399 27.1909 117.423 27.1909 117.447 27.1909Z" fill="#FD1F21"/>
<path d="M164.245 28.7161C162.416 28.7161 159.318 28.3546 158.583 25.9971C158.265 24.9804 158.603 24.2741 159.338 23.3223C159.795 22.7285 160.311 22.442 160.916 22.442C160.927 22.442 160.937 22.442 160.947 22.442C161.459 22.4522 161.958 22.6707 162.439 22.8821C162.883 23.08 163.344 23.2812 163.813 23.3223C164.421 23.3734 164.861 23.2881 165.083 23.0766C165.233 22.9333 165.302 22.7149 165.292 22.4079C165.284 22.2681 165.182 21.9439 164.543 21.3434C164.071 20.8999 163.494 20.4803 163.034 20.1425C162.781 19.9583 162.579 19.8116 162.439 19.6956C161.459 18.8665 160.674 18.0273 160.102 17.2016C159.315 16.0588 158.938 14.9363 158.99 13.865C159.065 12.2342 159.622 10.9992 160.639 10.1941C161.445 9.55607 162.531 9.1876 163.956 9.06478C166.008 8.88737 168.467 9.60383 169.56 10.6922C170.059 11.1903 170.336 11.8283 170.342 12.4867C170.35 13.1588 170.073 13.8104 169.563 14.3222C168.543 15.3491 167.313 14.7896 166.416 14.3802C165.93 14.1584 165.431 13.9298 165.169 14.0322C165.052 14.0766 164.95 14.2062 164.858 14.4177C164.674 14.851 164.687 15.0318 166.209 16.3283C166.344 16.4408 166.477 16.5535 166.61 16.666C167.501 17.4201 168.423 18.1978 169.202 19.0917C169.739 19.7093 170.988 21.3332 170.988 23.0186C170.988 23.8203 170.886 25.028 169.984 26.2529C168.714 27.986 167.067 28.699 164.311 28.7094C164.291 28.7161 164.267 28.7161 164.245 28.7161ZM160.916 23.3257C160.602 23.3257 160.339 23.4757 160.041 23.8613C159.376 24.7245 159.242 25.1271 159.43 25.7309C159.665 26.4882 160.298 27.0511 161.308 27.406C162.324 27.7608 163.502 27.8326 164.308 27.829C166.781 27.8188 168.171 27.2286 169.27 25.7343C170.008 24.7278 170.104 23.759 170.104 23.0255C170.104 22.0633 169.517 20.8112 168.536 19.6785C167.805 18.8359 166.909 18.0784 166.043 17.3483C165.91 17.2358 165.773 17.1198 165.64 17.0072C164.339 15.8983 163.55 15.2297 164.045 14.0732C164.232 13.633 164.503 13.343 164.85 13.21C165.463 12.9746 166.135 13.2816 166.787 13.5784C167.76 14.022 168.393 14.254 168.939 13.7047C169.639 13.0019 169.639 12.0261 168.939 11.3267C168.043 10.4329 165.8 9.80171 164.038 9.95523C161.282 10.1906 160 11.412 159.882 13.9128C159.788 15.8677 161.535 17.7714 163.016 19.0235C163.129 19.1191 163.331 19.2658 163.56 19.433C164.919 20.4257 166.145 21.3946 166.179 22.3806C166.207 23.0869 165.93 23.4997 165.698 23.7214C165.281 24.1206 164.622 24.2843 163.741 24.2094C163.123 24.1581 162.572 23.9124 162.084 23.6976C161.589 23.4757 161.226 23.3257 160.916 23.3257Z" fill="#FD1F21"/>
<path d="M136.227 41.4992C135.318 41.4992 134.481 41.3013 133.798 40.926C133.218 40.6053 132.746 40.1584 132.391 39.5955C131.978 38.9405 131.725 38.125 131.636 37.1663C131.558 36.31 131.585 35.2386 131.715 34.2971C131.892 32.9972 132.234 31.9976 132.736 31.3255C133.354 30.4998 134.321 30.0836 135.779 30.0154C136.708 29.9745 137.436 30.07 138.064 30.3157C138.717 30.5716 139.273 31.0047 139.765 31.6394C140.428 32.4923 140.752 33.7786 140.783 34.6724C140.844 36.6101 140.653 38.0158 140.172 39.0905C139.492 40.6121 138.249 41.4207 136.473 41.489C136.391 41.4992 136.309 41.4992 136.227 41.4992ZM136.186 30.8991C136.066 30.8991 135.943 30.9024 135.817 30.9093C134.276 30.9809 133.726 31.4858 133.446 31.8611C132.535 33.0825 132.394 35.7164 132.521 37.0879C132.815 40.2744 135.103 40.6633 136.438 40.6088C137.866 40.5541 138.822 39.94 139.359 38.7357C139.782 37.7873 139.953 36.5045 139.895 34.7066C139.871 33.9525 139.577 32.8471 139.065 32.1886C138.354 31.2744 137.528 30.8991 136.186 30.8991ZM136.083 39.2475C135.547 39.2475 135.103 39.0701 134.758 38.7186C133.928 37.8725 133.966 36.2315 133.986 35.2524C133.989 35.1057 133.993 34.9794 133.993 34.8736C133.989 34.0276 134.263 33.2497 134.72 32.7959C135.035 32.4856 135.434 32.3251 135.868 32.3286C136.9 32.3422 137.559 32.7515 137.883 33.5772C138.174 34.3142 138.191 35.3922 138.187 36.6204C138.184 37.3198 137.992 37.9647 137.647 38.432C137.262 38.9574 136.708 39.2475 136.083 39.2475ZM135.847 33.2155C135.653 33.2155 135.489 33.2838 135.345 33.4271C135.062 33.7103 134.878 34.2766 134.881 34.8702C134.881 34.9863 134.878 35.1192 134.874 35.2728C134.857 36.0575 134.823 37.5212 135.393 38.0977C135.567 38.2751 135.786 38.3604 136.083 38.3604C136.917 38.3604 137.299 37.4598 137.299 36.6204C137.309 33.7751 137.081 33.2326 135.858 33.2155C135.854 33.2155 135.851 33.2155 135.847 33.2155Z" fill="#FD1F21"/>
<path d="M125.323 41.4274C125.053 41.4274 124.773 41.3797 124.503 41.2774C123.987 41.0862 123.441 40.5268 123.458 39.7455C123.478 38.9437 123.506 35.8494 123.53 33.5874C123.54 32.3796 123.55 31.4243 123.553 31.2435C123.553 31.2367 123.553 31.2264 123.553 31.2197C123.547 31.0934 123.526 30.7966 123.755 30.5476C123.936 30.3497 124.209 30.2508 124.592 30.2473C125.053 30.2406 128.704 30.2917 128.984 30.3395C130.501 30.6159 131.734 32.0385 131.85 33.6522C131.942 34.9418 131.874 36.3918 130.675 37.3778C130.395 37.6097 130.128 37.7907 129.903 37.9305C130.477 38.3843 130.965 38.8823 131.382 39.3258C131.788 39.7591 132.226 40.3254 132.003 40.8474C131.86 41.1886 131.491 41.3661 130.914 41.3763C130.852 41.3763 130.791 41.3797 130.73 41.3797C130.009 41.3934 129.196 41.407 128.636 41.2193C128.134 41.0522 127.676 40.5437 127.246 39.9877C127.174 40.1993 127.085 40.4176 126.959 40.6053C126.604 41.134 125.989 41.4274 125.323 41.4274ZM124.438 31.148C124.438 31.1548 124.438 31.1583 124.438 31.1617C124.442 31.189 124.442 31.2231 124.442 31.2573C124.438 31.4209 124.428 32.3796 124.418 33.5942C124.397 35.8562 124.366 38.9574 124.346 39.766C124.339 40.1106 124.582 40.3596 124.81 40.4448C125.371 40.6495 125.951 40.5131 126.224 40.1071C126.344 39.9263 126.429 39.6329 126.498 39.3941C126.583 39.0939 126.648 38.8754 126.812 38.7391L127.065 38.5241L127.341 38.7049C127.454 38.7765 127.543 38.896 127.734 39.1553C127.997 39.5135 128.544 40.2538 128.919 40.3801C129.336 40.5199 130.101 40.5063 130.716 40.4926C130.777 40.4926 130.842 40.4892 130.9 40.4892C131.013 40.4859 131.088 40.479 131.139 40.4688C131.095 40.3767 130.986 40.2095 130.73 39.9332C130.221 39.3872 129.596 38.7595 128.844 38.2614L128.264 37.8758L128.861 37.5143C128.913 37.4835 128.971 37.4494 129.035 37.4119C129.288 37.2686 129.674 37.0503 130.105 36.6955C130.989 35.9688 131.037 34.836 130.958 33.7171C130.87 32.499 129.958 31.4244 128.831 31.2128C128.537 31.1821 125.292 31.1208 124.602 31.131C124.527 31.1344 124.472 31.1412 124.438 31.148ZM127.167 36.3304C127.041 36.3304 126.921 36.3202 126.812 36.3031C126.334 36.2315 126.091 35.9721 126.088 35.5355V35.5219C126.078 34.5972 126.067 33.6386 126.088 32.6935C126.095 32.3865 126.358 32.175 126.744 32.1648C127.215 32.151 127.755 32.151 128.212 32.3011C128.79 32.4888 129.148 32.8982 129.251 33.4816C129.462 34.686 129.09 35.3614 128.742 35.7162C128.291 36.17 127.683 36.3304 127.167 36.3304ZM126.973 35.4332C127.331 35.4809 127.813 35.3956 128.103 35.0953C128.397 34.7951 128.489 34.3038 128.369 33.6352C128.291 33.1917 127.942 33.0415 126.966 33.0483C126.955 33.8433 126.966 34.6484 126.973 35.4332Z" fill="#FD1F21"/>
<path d="M141.007 20.0173C140.891 20.0173 140.778 19.9764 140.679 19.8944C140.386 19.6523 140.126 19.4339 139.873 19.219C138.244 17.8475 137.499 17.2197 135.792 16.9228C133.889 16.592 132.8 17.6256 132.277 18.1238C132.028 18.3626 131.809 18.5673 131.502 18.4513C131.338 18.3899 131.208 18.2603 131.14 18.0896C131.034 17.827 131.061 17.4448 131.225 16.8888C131.369 16.4008 131.618 15.7834 131.966 15.0533C132.12 14.7326 132.274 14.4733 132.4 14.2686C132.54 14.0332 132.663 13.8319 132.67 13.7125C132.707 13.1973 132.195 12.7743 131.297 12.2182C131.013 12.0442 130.802 11.9077 130.648 11.7815C130.549 11.703 130.255 11.4608 130.299 11.0889C130.371 10.5055 131.119 10.3451 131.843 10.2667C132.492 10.195 133.285 10.1814 133.862 10.1745C134.053 10.1711 134.22 10.1677 134.354 10.1643C134.47 10.0517 134.654 9.61845 134.777 9.32505C134.832 9.19881 134.887 9.06916 134.945 8.9361C135.013 8.77916 135.081 8.62222 135.15 8.46529C135.634 7.34285 135.857 6.82768 136.325 6.84133L136.362 6.84473C136.789 6.89251 136.97 7.31555 137.274 8.01154C137.564 8.68023 137.957 9.59457 138.65 10.4373C138.866 10.4884 139.477 10.5362 139.935 10.5703C140.498 10.6147 141.079 10.6556 141.547 10.7307C141.823 10.775 142.032 10.8262 142.186 10.8876C142.616 11.0582 142.677 11.3379 142.674 11.4983C142.667 12.0032 142.209 12.3342 141.612 12.7197C141.513 12.7811 141.41 12.8493 141.297 12.9176C140.987 13.112 140.638 13.3338 140.269 13.5931C140.16 13.6681 140.065 13.7364 139.976 13.7944C139.928 13.8251 139.877 13.8592 139.832 13.8933C139.866 13.9547 139.901 14.0161 139.935 14.0775C140.242 14.6166 140.56 15.1727 141.355 17.9157C141.407 18.0931 141.472 18.4855 141.502 18.8299C141.557 19.4135 141.537 19.7648 141.267 19.9422C141.192 19.99 141.099 20.0173 141.007 20.0173ZM135.061 15.971C135.337 15.971 135.631 15.9949 135.942 16.0495C137.885 16.3872 138.794 17.1514 140.444 18.54C140.495 18.5809 140.543 18.6254 140.594 18.6663C140.566 18.4547 140.532 18.2534 140.505 18.1579C139.737 15.5173 139.433 14.985 139.166 14.5142C139.088 14.3777 139.006 14.2379 138.92 14.057C138.879 13.9683 138.763 13.6579 139.084 13.3542C139.183 13.2587 139.316 13.17 139.484 13.0574C139.566 13.0028 139.661 12.938 139.761 12.8664C140.146 12.5934 140.508 12.3649 140.83 12.167C140.939 12.0987 141.041 12.0339 141.137 11.9725C141.342 11.8395 141.502 11.7303 141.612 11.6416C141.161 11.5529 140.358 11.4915 139.873 11.4539C138.613 11.3584 138.241 11.3209 138.036 11.0786C137.223 10.1131 136.765 9.05893 136.465 8.36295C136.417 8.25719 136.369 8.13778 136.318 8.032C136.205 8.26742 136.075 8.56764 135.969 8.81669C135.901 8.97364 135.833 9.13398 135.761 9.29433C135.706 9.42056 135.652 9.5468 135.6 9.66962C135.293 10.3997 135.027 11.0275 134.436 11.0479C134.285 11.0548 134.098 11.0548 133.879 11.0582C133.37 11.065 132.735 11.0752 132.175 11.123C131.809 11.1537 131.567 11.1946 131.409 11.2288C131.526 11.3072 131.662 11.3925 131.772 11.4573C132.721 12.0442 133.64 12.7094 133.561 13.7705C133.537 14.1014 133.363 14.388 133.165 14.7189C133.046 14.9202 132.909 15.1488 132.772 15.4286C132.404 16.203 132.202 16.7352 132.093 17.0934C132.687 16.5953 133.657 15.971 135.061 15.971Z" fill="#FD1F21"/>
<path d="M117.293 41.2043C116.702 41.2043 116.22 41.1394 115.886 40.8152C115.633 40.5731 115.51 40.2251 115.506 39.7509C115.503 39.222 115.5 38.6932 115.493 38.1644C115.476 35.998 115.455 33.76 115.472 31.5559C115.476 31.2046 115.605 30.5802 116.446 30.3347C116.893 30.2049 117.44 30.2084 117.921 30.2118C117.979 30.2118 118.034 30.2118 118.092 30.2118C118.311 30.2118 118.522 30.2118 118.727 30.2084C120.24 30.1982 121.548 30.1913 122.638 31.1739C123.447 31.904 123.734 32.9445 123.734 33.6746C123.734 35.6705 123.43 37.0966 121.914 38.0484C121.309 38.4271 120.104 38.4783 119.065 38.4715C119.065 38.5055 119.065 38.5397 119.065 38.5738C119.058 39.0685 119.052 39.6314 118.915 40.116C118.659 41.0302 118.034 41.1838 117.686 41.194C117.549 41.2008 117.419 41.2043 117.293 41.2043ZM117.662 31.0988C117.303 31.0988 116.955 31.1124 116.695 31.1875C116.415 31.2694 116.36 31.3785 116.36 31.5628C116.343 33.76 116.36 35.9946 116.381 38.1576C116.384 38.6865 116.391 39.2152 116.394 39.7474C116.394 39.8975 116.415 40.0955 116.504 40.1807C116.675 40.3445 117.293 40.3241 117.662 40.3138C117.768 40.3103 117.942 40.3036 118.061 39.8805C118.167 39.512 118.171 39.0106 118.177 38.5704C118.181 38.3657 118.181 38.1713 118.194 38.0006C118.208 37.8063 118.362 37.6015 118.625 37.5878C118.642 37.5878 118.666 37.5844 118.697 37.5844C118.741 37.5844 118.802 37.5844 118.881 37.5878C120.247 37.6082 121.111 37.5128 121.443 37.3047C122.494 36.6462 122.85 35.7318 122.85 33.6815C122.85 33.1662 122.638 32.3748 122.047 31.8392C121.214 31.0886 120.175 31.0955 118.737 31.1022C118.529 31.1022 118.314 31.1057 118.092 31.1057C118.034 31.1057 117.976 31.1057 117.918 31.1057C117.832 31.0988 117.747 31.0988 117.662 31.0988ZM118.871 36.3358C118.468 36.3358 117.863 36.2607 117.822 35.2747C117.785 34.357 117.788 33.9168 117.795 33.18C117.795 33.0673 117.798 32.9445 117.798 32.8114C117.798 32.692 117.856 32.0917 118.847 32.0779C119.216 32.0746 119.759 32.1155 120.244 32.3441C120.852 32.634 121.2 33.1391 121.251 33.8009C121.316 34.6504 121.159 35.2714 120.766 35.6978C120.394 36.1038 119.82 36.3152 119.058 36.3256C119.035 36.3256 119.007 36.3256 118.983 36.3256C118.946 36.3358 118.908 36.3358 118.871 36.3358ZM118.734 35.4453C118.789 35.4521 118.888 35.4488 118.963 35.4488C118.99 35.4488 119.018 35.4488 119.045 35.4488C119.55 35.4419 119.906 35.3259 120.107 35.1075C120.326 34.8687 120.408 34.4661 120.363 33.8759C120.302 33.0708 119.393 32.9616 118.857 32.9684C118.782 32.9684 118.727 32.9752 118.683 32.9821C118.683 33.0537 118.683 33.1253 118.679 33.1902C118.673 33.9339 118.666 34.3434 118.707 35.2372C118.714 35.3498 118.724 35.4112 118.734 35.4453Z" fill="#FD1F21"/>
<path d="M148.76 41.395C148.252 41.395 147.853 41.2551 147.58 40.9788C147.261 40.6613 147.213 40.2691 147.213 40.0644C147.213 38.8567 147.248 33.2171 147.279 31.5521C147.289 30.9449 147.583 30.6515 147.828 30.5083C148.094 30.3547 148.385 30.3309 148.635 30.3273C149.867 30.3069 152.98 30.3138 153.283 30.3273C153.567 30.3411 154.325 30.3751 154.308 31.1906C154.304 31.3578 154.298 31.525 154.29 31.6853C154.277 32.0059 154.263 32.3096 154.277 32.6132C154.28 32.7122 154.298 33.0158 154.089 33.2307C153.891 33.4354 153.631 33.4287 153.478 33.4252C152.847 33.4116 152.053 33.432 151.357 33.4491C151.145 33.4559 150.939 33.4594 150.748 33.4627C150.492 33.4696 150.397 33.5003 150.359 33.5241C150.329 33.5446 150.305 33.6435 150.305 33.7698C150.305 33.8005 150.305 33.8347 150.305 33.8721C150.301 34.244 150.326 34.4692 150.38 34.5408C150.479 34.5715 150.793 34.5613 151.005 34.5579C151.636 34.5408 152.426 34.5203 152.901 34.981C153.136 35.2095 153.256 35.5132 153.256 35.8885C153.259 36.4445 152.972 36.8471 152.456 37.0246C152.088 37.1508 151.651 37.1542 151.227 37.1542C151.138 37.1542 151.049 37.1542 150.96 37.1575H150.913C150.79 37.1611 150.469 37.1644 150.393 37.2258C150.393 37.2327 150.39 37.2429 150.39 37.2633C150.39 37.3214 150.387 37.3827 150.387 37.4441C150.383 37.5875 150.372 37.8365 150.4 37.9628C150.472 37.9628 150.558 37.9628 150.65 37.9628C152.965 37.9559 153.447 37.9901 153.649 38.0719C154.441 38.3892 154.714 39.3854 154.567 40.1667C154.431 40.8968 153.959 41.354 153.33 41.3643C151.866 41.3847 150.372 41.395 148.76 41.395ZM148.645 31.2144C148.208 31.2213 148.167 31.3133 148.163 31.5692C148.136 33.1898 148.098 38.8941 148.098 40.0677C148.098 40.1224 148.109 40.2589 148.204 40.3543C148.306 40.4568 148.497 40.5079 148.76 40.5079C148.76 40.5079 148.76 40.5079 148.765 40.5079C150.369 40.5079 151.859 40.4977 153.317 40.4772C153.57 40.4737 153.662 40.1804 153.693 40.0064C153.779 39.539 153.611 39.034 153.335 38.9043C153.02 38.843 151.24 38.8498 150.65 38.8498C150.523 38.8498 150.413 38.8498 150.329 38.8498C150.106 38.8498 149.912 38.7713 149.764 38.6213C149.468 38.3142 149.481 37.8365 149.496 37.4169C149.498 37.3589 149.498 37.3043 149.498 37.2531C149.506 36.8369 149.734 36.5161 150.134 36.3729C150.397 36.2774 150.684 36.274 150.896 36.2705H150.939C151.031 36.2671 151.125 36.2671 151.22 36.2671C151.572 36.2671 151.933 36.2638 152.163 36.1853C152.313 36.1341 152.364 36.0828 152.364 35.8918C152.364 35.7008 152.3 35.6395 152.275 35.6155C152.071 35.4176 151.463 35.4312 151.021 35.4414C150.615 35.4518 150.264 35.4621 150.007 35.346C149.396 35.0764 149.406 34.2849 149.414 33.8585C149.414 33.8244 149.414 33.7937 149.414 33.7664C149.414 32.603 150.4 32.5826 150.725 32.5757C150.916 32.5723 151.118 32.5655 151.33 32.5621C151.999 32.545 152.75 32.5279 153.381 32.5348C153.371 32.2311 153.386 31.9343 153.399 31.6408C153.406 31.5045 153.412 31.3611 153.416 31.2246C153.376 31.2179 153.317 31.2144 153.238 31.211C152.972 31.2008 149.946 31.1939 148.645 31.2144Z" fill="#FD1F21"/>
<path d="M158.642 41.27C157.515 41.27 156.361 41.0584 155.582 40.5228C154.413 39.7142 153.935 38.7622 153.822 37.0052C153.73 35.5723 153.795 34.45 154.034 33.3651C154.547 31.0383 156.036 30.4412 157.566 30.1443C158.625 29.9398 159.666 30.0147 160.657 30.3729C161.368 30.6288 161.828 31.1474 161.924 31.8024C162.019 32.4405 161.736 33.0921 161.189 33.5014C160.732 33.8427 160.223 33.7199 159.731 33.6004C159.352 33.5083 158.964 33.4162 158.525 33.4878C156.951 33.7471 157.023 35.139 157.232 36.5412L157.248 36.6539C157.319 37.1486 157.713 37.5614 158.18 37.6399C159.004 37.7764 159.431 37.575 159.881 37.3636C160.298 37.1657 160.77 36.9438 161.442 37.111C161.891 37.2237 162.256 37.5443 162.474 38.0185C162.751 38.6224 162.757 39.3867 162.491 39.9223C162.126 40.6524 161.009 40.9697 160.545 41.0721C159.981 41.1949 159.319 41.27 158.642 41.27ZM157.74 31.0143C156.234 31.3077 155.288 31.8162 154.905 33.5561C154.683 34.5557 154.625 35.603 154.711 36.9507C154.821 38.6259 155.26 39.2229 156.088 39.796C157.064 40.4716 158.974 40.5125 160.356 40.2055C161.012 40.0621 161.576 39.7722 161.702 39.5232C161.848 39.2297 161.835 38.7418 161.674 38.387C161.603 38.2266 161.467 38.0254 161.235 37.9674C160.869 37.8753 160.643 37.9845 160.267 38.1619C159.766 38.4007 159.137 38.6975 158.041 38.5132C157.191 38.37 156.504 37.6604 156.377 36.7802L156.361 36.6675C156.275 36.1012 156.149 35.2482 156.336 34.4534C156.579 33.4298 157.289 32.7919 158.389 32.611C159.004 32.5087 159.526 32.635 159.947 32.7373C160.315 32.826 160.548 32.8771 160.663 32.7884C160.951 32.5734 161.102 32.246 161.053 31.9287C161.005 31.6046 160.76 31.3487 160.364 31.2055C159.523 30.9018 158.642 30.8369 157.74 31.0143Z" fill="#FD1F21"/>
<path d="M143.6 41.4497C142.264 41.4497 140.929 40.9004 140.222 40.0918C139.733 39.5358 139.59 38.5157 140.164 37.9459C140.721 37.3899 141.568 37.574 142.316 37.7412C143.419 37.9835 143.689 37.939 143.815 37.4922C143.87 37.168 143.924 34.5751 143.921 33.5789C143.532 33.538 142.708 33.5277 141.458 33.5482L141.288 33.5517C141.154 33.5551 141.076 33.5551 141.028 33.5551C140.734 33.5517 140.495 33.4016 140.376 33.1422C140.29 32.9614 140.28 32.7567 140.28 32.5828V32.3371C140.28 31.764 140.28 31.706 140.29 31.1498C140.297 30.6688 140.799 30.3992 141.264 30.389C142.384 30.3652 144.064 30.4094 145.29 30.4401C145.875 30.4539 146.336 30.4675 146.568 30.4675C146.732 30.4675 146.888 30.5323 147.005 30.6517C147.279 30.9349 147.289 31.4399 147.271 32.1222C147.268 32.2382 147.265 32.3507 147.268 32.4292C147.276 32.7533 147.241 34.2203 147.21 35.6396C147.186 36.7825 147.159 37.8606 147.159 38.1984C147.159 39.4504 146.636 40.3819 145.608 40.9619C144.997 41.2996 144.297 41.4497 143.6 41.4497ZM141.185 38.4577C141.014 38.4577 140.874 38.4884 140.789 38.5702C140.591 38.7681 140.676 39.2663 140.888 39.5051C141.288 39.9622 142.001 40.3272 142.794 40.4842C143.672 40.6582 144.515 40.5491 145.168 40.184C145.919 39.7609 146.267 39.1298 146.267 38.1949C146.267 37.847 146.291 36.7654 146.318 35.6157C146.349 34.2716 146.384 32.7465 146.377 32.4463C146.374 32.3439 146.377 32.2245 146.38 32.0982C146.384 31.9072 146.394 31.549 146.364 31.3476C146.1 31.3443 145.718 31.334 145.26 31.3238C144.044 31.2931 142.374 31.2522 141.274 31.2727C141.243 31.2727 141.202 31.2794 141.168 31.2898C141.161 31.7196 141.161 31.8151 141.161 32.3303V32.5759C141.161 32.61 141.161 32.6373 141.165 32.6578C141.199 32.6578 141.236 32.6578 141.271 32.6578L141.441 32.6544C141.919 32.6475 142.64 32.6339 143.258 32.6509C143.614 32.6613 143.883 32.6749 144.085 32.7022C144.276 32.726 144.785 32.7909 144.802 33.2378C144.816 33.6438 144.778 37.3181 144.672 37.7105C144.508 38.3178 144.109 38.6794 143.521 38.7579C143.081 38.8159 142.592 38.7101 142.124 38.6044C141.803 38.5327 141.455 38.4577 141.185 38.4577Z" fill="#FD1F21"/>
<path d="M166.693 41.5797C166.669 41.5797 166.649 41.5797 166.626 41.5797C166.105 41.5626 165.693 41.392 165.399 41.0748C164.797 40.4298 164.838 39.3654 164.884 38.2395C164.889 38.0485 164.897 37.854 164.9 37.663C164.93 36.2369 164.92 34.8211 164.904 33.5826C164.729 33.5792 164.555 33.5826 164.374 33.5826C163.998 33.5861 163.609 33.5894 163.219 33.5587C162.409 33.5007 161.829 32.7911 161.87 31.9142C161.908 31.1159 162.509 30.2699 163.745 30.2699C163.763 30.2699 163.78 30.2699 163.801 30.2699C164.059 30.2733 165.737 30.2733 167.086 30.2699C167.697 30.2699 168.258 30.2699 168.633 30.2699H168.688C168.996 30.2699 169.464 30.2699 169.829 30.3415C170.153 30.4064 170.419 30.5838 170.6 30.8601C170.969 31.4196 170.902 32.2419 170.779 32.8286C170.682 33.279 170.245 33.5554 169.877 33.5587C169.594 33.5621 169.31 33.5587 169.037 33.5554C168.821 33.5519 168.598 33.5485 168.381 33.5519C168.373 34.6095 168.378 35.575 168.381 36.5917C168.384 37.6528 168.391 38.7513 168.384 40.1023C168.384 40.4469 168.21 40.8189 167.923 41.0952C167.594 41.4125 167.162 41.5797 166.693 41.5797ZM164.698 32.699C164.897 32.699 165.098 32.7024 165.296 32.7092C165.563 32.7228 165.781 32.9447 165.785 33.2108C165.801 34.5345 165.819 36.1005 165.785 37.6835C165.781 37.8813 165.775 38.0826 165.765 38.2771C165.73 39.171 165.696 40.099 166.044 40.4743C166.174 40.6141 166.373 40.6857 166.652 40.696C166.981 40.7062 167.185 40.5766 167.301 40.4674C167.431 40.3411 167.489 40.1979 167.489 40.1126C167.497 38.7615 167.492 37.6664 167.486 36.6088C167.482 35.4727 167.476 34.398 167.489 33.1868C167.492 32.9173 167.714 32.6921 167.98 32.6853C168.337 32.675 168.695 32.6785 169.04 32.6819C169.306 32.6853 169.579 32.6888 169.849 32.6853C169.867 32.6819 169.893 32.6648 169.903 32.6512C170.023 32.0814 170.003 31.5867 169.852 31.3582C169.801 31.2831 169.74 31.2422 169.648 31.2217C169.371 31.1672 168.94 31.1672 168.685 31.1672H168.626C168.251 31.1672 167.691 31.1672 167.079 31.1672C165.655 31.1672 164.043 31.1705 163.773 31.1672C163.045 31.1534 162.766 31.5696 162.748 31.9655C162.735 32.2384 162.864 32.6546 163.275 32.6853C163.63 32.7126 163.985 32.7092 164.357 32.7059C164.476 32.699 164.585 32.699 164.698 32.699Z" fill="#FD1F21"/>
<path d="M136.686 27.9664C136.492 27.9664 136.28 27.9629 136.051 27.9595H136.01C134.818 27.9424 134.295 27.8777 133.94 27.7072C133.36 27.4273 133.353 26.8677 133.346 26.5335C133.325 25.1005 133.325 20.8087 133.346 20.0649C133.353 19.7988 133.455 19.56 133.633 19.3961C133.81 19.2325 134.053 19.1471 134.316 19.1609C135.228 19.2018 136.095 19.5395 136.823 20.1365C137.537 20.7234 138.09 21.5388 138.421 22.494C138.681 23.2514 138.63 25.2029 138.551 26.8201C138.544 26.9326 138.541 27.0247 138.541 27.0827C138.531 27.3966 138.36 27.7992 137.612 27.9153C137.363 27.9562 137.055 27.9664 136.686 27.9664ZM134.244 20.0513C134.241 20.058 134.241 20.0717 134.237 20.0922C134.217 20.8087 134.217 25.138 134.237 26.5233C134.241 26.8677 134.275 26.8848 134.33 26.9122C134.589 27.0384 135.33 27.0658 136.024 27.076H136.065C136.526 27.0827 136.925 27.0896 137.229 27.0691C137.486 27.052 137.605 27.0213 137.656 27.0009C137.66 26.9429 137.663 26.8712 137.667 26.7825C137.769 24.5922 137.742 23.248 137.585 22.7874C137.028 21.1669 135.761 20.116 134.282 20.0513C134.265 20.0478 134.251 20.0478 134.244 20.0513Z" fill="#FD1F21"/>
<path d="M116.367 0.844925C115.684 1.03257 116.948 1.35668 118.973 2.24031C121.959 3.54357 124.326 4.55343 129.001 8.50758C130.405 9.69485 130.986 9.72215 131.402 9.08416C132 8.16641 130.849 6.8188 128.776 5.44729C126.105 3.68003 124.438 2.90217 121.525 1.89231C119.25 1.10421 117.074 0.650459 116.367 0.844925Z" fill="#61D9EF"/>
<path d="M124.32 1.61571C123.668 1.62936 123.131 1.76242 123.213 1.89889C123.347 2.12406 124.579 2.40041 124.89 2.50275C126.383 3.00086 127.893 3.68319 129.194 4.46448C130.352 5.15705 132.237 7.07783 132.739 6.58314C133.6 5.73363 132.135 4.41672 131.441 3.89473C129.426 2.38334 127.244 1.56113 124.32 1.61571Z" fill="#61D9EF"/>
<path d="M143.606 10.693C143.585 13.8011 143.524 24.3807 143.606 26.6598C143.65 27.9119 146.943 27.7345 148.299 27.6287C150.884 27.4274 154.398 26.8679 156.531 24.8276C158.043 23.3776 158.607 21.3443 158.603 20.2424C158.593 15.8038 157.982 13.9853 155.882 12.1362C153.989 10.4713 149.593 10.055 147.203 9.93221C143.712 9.75481 143.609 10.1744 143.606 10.693ZM148.886 13.4736C150.064 13.4633 151.54 13.6544 152.516 14.4766C154.324 15.9948 154.217 18.1442 154.102 18.8811C153.658 21.6889 151.772 23.1491 149.18 23.1491C148.193 23.1491 148.245 22.9683 148.275 22.013C148.288 21.6037 148.357 14.9372 148.367 14.3572C148.367 13.8284 148.411 13.477 148.886 13.4736Z" fill="white"/>
<path d="M126.163 27.627C127.778 27.661 129.39 27.6099 131.006 27.5962C131.439 27.5928 131.819 27.296 131.631 26.7775C131.04 25.1125 127.447 21.2299 126.036 19.4696C125.65 18.9885 124.516 17.6512 124.516 17.5078C124.516 17.3817 125.319 16.4742 127.085 14.4919C128.95 12.4006 129.616 11.476 129.39 11.0256C129.192 10.6299 128.868 10.6128 128.219 10.3297C126.265 9.48356 126.033 9.79743 125.07 10.8278C124.598 11.3395 121.992 14.0245 121.353 14.8775C121.357 14.8843 121.367 14.7444 121.401 12.8168C121.429 11.1416 121.575 10.8721 121.217 10.3331C120.923 9.88956 119.834 9.87249 118.447 9.89979C116.784 9.93391 115.919 9.86226 115.814 10.3808C115.568 11.5613 115.694 14.1064 115.81 18.4938C115.899 21.9669 115.988 22.9154 116.025 25.9825C116.046 27.5007 116.114 27.6304 117.395 27.6304C118.375 27.6304 119.359 27.6508 120.339 27.661C121.483 27.6746 121.353 26.5932 121.353 25.8904C121.353 24.826 121.353 23.7615 121.384 22.697C121.384 22.6663 125.008 27.603 126.163 27.627Z" fill="white"/>
<path d="M163.967 9.50171C161.679 9.69958 159.561 10.6037 159.408 13.8789C159.306 16.0454 161.173 18.0583 162.7 19.3478C163.313 19.8664 165.668 21.3095 165.706 22.3842C165.737 23.2611 165.234 23.8785 163.745 23.7557C162.148 23.6228 160.915 21.9612 159.661 23.5852C158.958 24.4994 158.728 25.0556 158.978 25.8574C159.602 27.8634 162.332 28.2762 164.282 28.266C166.833 28.2524 168.388 27.6382 169.599 25.9903C170.419 24.8747 170.519 23.7967 170.519 23.0188C170.519 21.7224 169.658 20.3235 168.841 19.382C167.974 18.3824 166.905 17.5192 165.898 16.6628C164.46 15.438 164.087 15.0286 164.422 14.2405C165.306 12.1731 167.594 15.6394 169.221 14.0085C170.11 13.1147 170.072 11.8524 169.221 11.0063C168.223 10.0066 165.867 9.33795 163.967 9.50171Z" fill="white"/>
<path d="M135.813 30.4612C134.228 30.5329 133.514 31.0446 133.104 31.5905C132.083 32.9586 131.964 35.7492 132.09 37.1243C132.442 40.9487 135.437 41.0885 136.469 41.0476C140.021 40.9111 140.448 37.6121 140.352 34.6883C140.325 33.8728 140.017 32.6685 139.426 31.9112C138.542 30.775 137.483 30.3861 135.813 30.4612ZM135.878 32.771C137.647 32.7948 137.767 34.0469 137.76 36.6194C137.756 37.8475 137.107 38.7993 136.1 38.7993C134.163 38.7993 134.457 35.9131 134.453 34.8691C134.447 33.8626 134.901 32.7607 135.878 32.771Z" fill="white"/>
<path d="M124.574 30.6759C123.857 30.6861 123.976 31.0956 123.973 31.2354C123.963 31.7097 123.908 38.4989 123.877 39.7408C123.864 40.2969 124.246 40.7062 124.632 40.8462C125.428 41.1395 126.2 40.8871 126.569 40.3412C126.856 39.9147 126.938 39.1813 127.078 39.0619C127.238 39.1642 128.048 40.5494 128.755 40.7847C129.287 40.9621 130.179 40.928 130.886 40.9178C132.116 40.8974 131.463 40.0752 131.033 39.6146C130.428 38.9663 129.807 38.3658 129.069 37.8746C129.294 37.7381 129.793 37.4925 130.367 37.0216C131.432 36.1448 131.46 34.8109 131.381 33.6714C131.285 32.3101 130.254 31.0103 128.881 30.7612C128.69 30.7305 125.23 30.6657 124.574 30.6759ZM126.726 32.5967C127.662 32.5694 128.618 32.6103 128.782 33.5452C129.147 35.6297 127.628 35.9709 126.852 35.8549C126.494 35.8002 126.507 35.6399 126.504 35.5069C126.494 34.5687 126.483 33.6304 126.504 32.6922C126.507 32.6103 126.719 32.5967 126.726 32.5967Z" fill="white"/>
<path d="M136.3 7.27457C136.095 7.26775 135.733 8.21278 135.337 9.10323C135.002 9.86063 134.773 10.5805 134.401 10.5941C133.458 10.6283 130.801 10.5634 130.729 11.1332C130.705 11.3174 130.992 11.5017 131.521 11.8292C132.471 12.4194 133.161 12.9482 133.103 13.7329C133.075 14.1116 132.71 14.4903 132.358 15.234C131.535 16.9637 131.34 17.9122 131.651 18.0282C131.856 18.1067 133.11 15.9982 135.862 16.4793C137.966 16.8443 138.752 17.7212 140.958 19.5464C141.208 19.7512 141.016 18.3352 140.928 18.0282C139.937 14.6199 139.702 14.6506 139.312 13.8557C139.237 13.7022 139.531 13.5623 140.009 13.2246C140.518 12.8663 140.989 12.5832 141.365 12.3409C141.884 12.01 142.222 11.7541 142.222 11.4846C142.239 10.9762 138.588 11.0581 138.359 10.7886C137 9.17828 136.696 7.31891 136.3 7.27457Z" fill="white"/>
<path d="M118.132 30.6668C117.162 30.6633 115.967 30.5917 115.956 31.5675C115.932 34.2968 115.967 37.0262 115.987 39.7555C115.994 40.7414 116.605 40.7961 117.708 40.7619C118.829 40.7279 118.61 38.9162 118.672 38.0395C118.675 38.0087 120.953 38.1656 121.715 37.6847C123.044 36.8521 123.33 35.6342 123.33 33.6862C123.33 32.9799 123.026 32.0997 122.381 31.5163C121.288 30.5268 119.942 30.6736 118.132 30.6668ZM118.89 32.533C119.57 32.5228 120.755 32.7002 120.844 33.8499C120.936 35.0304 120.578 35.8799 119.088 35.9003C118.644 35.9072 118.33 35.9548 118.303 35.2692C118.258 34.2252 118.272 33.8123 118.279 32.8298C118.282 32.632 118.545 32.5364 118.89 32.533Z" fill="white"/>
<path d="M148.633 30.7723C148.272 30.7791 147.729 30.8304 147.716 31.5638C147.685 33.2083 147.65 38.8785 147.65 40.0692C147.65 40.2773 147.726 40.9563 148.758 40.9528C150.277 40.9528 151.797 40.9425 153.317 40.9221C154.39 40.9085 154.416 38.8649 153.473 38.4861C153.231 38.3907 151.024 38.4076 150.321 38.4076C149.843 38.4076 149.933 37.7253 149.938 37.2579C149.946 36.7086 150.567 36.7188 150.942 36.7121C151.79 36.695 152.807 36.8008 152.804 35.8898C152.797 34.5423 150.735 35.187 150.185 34.9414C149.805 34.7742 149.854 34.085 149.854 33.7677C149.854 33.1263 150.219 33.0309 150.73 33.0207C151.565 33.0036 152.643 32.966 153.478 32.9831C153.696 32.9865 153.843 32.9796 153.826 32.635C153.802 32.1506 153.846 31.6661 153.856 31.1817C153.864 30.8986 153.757 30.7962 153.256 30.7723C152.958 30.7586 149.877 30.7519 148.633 30.7723Z" fill="white"/>
<path d="M157.669 30.5783C156.197 30.8649 154.941 31.4005 154.486 33.4611C154.236 34.5835 154.203 35.7162 154.282 36.9785C154.391 38.6639 154.831 39.4554 155.848 40.1617C157.017 40.9668 159.138 40.9327 160.466 40.6393C160.979 40.5268 161.86 40.23 162.113 39.7215C162.448 39.0495 162.223 37.7564 161.355 37.5415C160.223 37.2582 159.903 38.3739 158.126 38.0806C157.461 37.9714 156.928 37.3982 156.829 36.7227C156.678 35.6957 156.259 33.4202 158.476 33.0552C159.579 32.8743 160.392 33.5601 160.945 33.1506C161.781 32.5263 161.758 31.2366 160.527 30.7931C159.74 30.5032 158.775 30.3633 157.669 30.5783Z" fill="white"/>
<path d="M141.254 30.8377C141.066 30.8411 140.717 30.9366 140.714 31.1617C140.704 31.7826 140.704 31.7793 140.704 32.5879C140.704 32.8813 140.748 33.1132 141.011 33.1167C141.062 33.1167 141.148 33.1167 141.26 33.1132C142.087 33.0996 144.334 33.0485 144.341 33.2633C144.362 33.8331 144.3 37.3233 144.225 37.603C143.764 39.3123 141.342 37.3847 140.458 38.2684C140.051 38.6709 140.209 39.4385 140.536 39.8104C141.459 40.8612 143.75 41.4923 145.369 40.5815C146.203 40.1106 146.694 39.3771 146.694 38.2069C146.694 37.4496 146.814 33.0178 146.801 32.448C146.79 31.984 146.903 30.9196 146.545 30.9162C145.82 30.9162 142.9 30.807 141.254 30.8377Z" fill="white"/>
<path d="M163.78 30.6953C161.87 30.6579 161.946 33.005 163.241 33.0972C163.913 33.145 164.593 33.0972 165.265 33.1279C165.296 33.1279 165.328 33.1619 165.331 33.1926C165.351 34.6802 165.362 36.1644 165.331 37.6517C165.296 39.3031 165.014 41.0566 166.629 41.1146C167.446 41.142 167.926 40.5346 167.926 40.0877C167.94 37.2526 167.906 35.4717 167.926 33.1619C167.926 33.1313 167.96 33.1006 167.992 33.0972C168.613 33.0767 169.234 33.1074 169.86 33.0972C170.038 33.0937 170.287 32.9505 170.335 32.7184C170.516 31.8485 170.465 30.9035 169.734 30.7568C169.392 30.6886 168.907 30.6919 168.626 30.6919C167.39 30.6953 164.159 30.7022 163.78 30.6953Z" fill="white"/>
<path d="M134.306 19.6024C134.02 19.5888 133.808 19.7629 133.801 20.0766C133.781 20.7932 133.781 25.0919 133.801 26.5282C133.811 27.3232 133.965 27.4869 136.024 27.5142C137.309 27.5313 138.088 27.5482 138.105 27.0638C138.125 26.5282 138.309 23.5088 138.009 22.6389C137.394 20.8512 135.97 19.6775 134.306 19.6024Z" fill="white"/>
</g>
<path d="M104.995 30.1153C104.332 30.1153 103.743 30.0081 103.227 29.7938C102.71 29.5697 102.301 29.2628 101.999 28.8731C101.707 28.4833 101.561 28.0303 101.561 27.514C101.561 27.0756 101.658 26.6762 101.853 26.3157C102.048 25.9455 102.359 25.585 102.788 25.2343C103.227 24.8737 103.806 24.4987 104.527 24.109C105.141 23.7681 105.618 23.4758 105.959 23.2322C106.31 22.9789 106.558 22.7401 106.705 22.5161C106.851 22.2823 106.924 22.0338 106.924 21.7708C106.924 21.3908 106.792 21.0839 106.529 20.8501C106.276 20.6163 105.911 20.4994 105.433 20.4994C104.917 20.4994 104.517 20.6309 104.235 20.894C103.952 21.1472 103.811 21.4785 103.811 21.8877C103.811 22.0923 103.84 22.2871 103.899 22.4722C103.967 22.6574 104.089 22.862 104.264 23.086C104.449 23.3101 104.703 23.5927 105.024 23.9336L110.431 29.5015L109.832 30.1883L104.191 24.3867C103.85 24.0261 103.577 23.7144 103.373 23.4514C103.178 23.1785 103.041 22.9205 102.963 22.6768C102.886 22.4332 102.847 22.1751 102.847 21.9023C102.847 21.4639 102.949 21.0839 103.153 20.7624C103.368 20.4311 103.67 20.1779 104.06 20.0025C104.449 19.8174 104.907 19.7249 105.433 19.7249C105.911 19.7249 106.325 19.8077 106.675 19.9733C107.036 20.1292 107.314 20.3581 107.508 20.6601C107.713 20.9622 107.815 21.3275 107.815 21.7562C107.815 22.1263 107.723 22.4722 107.538 22.7938C107.362 23.1153 107.07 23.4319 106.661 23.7436C106.252 24.0457 105.696 24.3867 104.995 24.7666C104.381 25.1076 103.894 25.4194 103.533 25.7019C103.183 25.9844 102.934 26.262 102.788 26.5349C102.642 26.7979 102.569 27.0902 102.569 27.4117C102.569 27.7819 102.671 28.1083 102.876 28.3908C103.09 28.6637 103.382 28.8779 103.753 29.0338C104.133 29.18 104.566 29.253 105.053 29.253C105.735 29.253 106.344 29.1117 106.88 28.8292C107.416 28.5468 107.864 28.118 108.224 27.5432C108.595 26.9685 108.863 26.2474 109.028 25.3804L109.861 25.6434C109.676 26.6177 109.359 27.4361 108.911 28.0986C108.463 28.761 107.908 29.2628 107.245 29.6038C106.583 29.9447 105.833 30.1153 104.995 30.1153Z" fill="white"/>
</g>
</g>
</g>
<defs>
<clipPath id="clip0_553_26341">
<rect width="171" height="42.38" fill="white" transform="translate(0 0.800049)"/>
</clipPath>
<clipPath id="clip1_553_26341">
<rect width="171" height="42.38" fill="white" transform="translate(0 0.800049)"/>
</clipPath>
<clipPath id="clip2_553_26341">
<rect width="170.981" height="42.38" fill="white" transform="translate(0.00927734 0.800049)"/>
</clipPath>
</defs>
</svg>
