<svg width="986" height="539" viewBox="0 0 986 539" fill="none" xmlns="http://www.w3.org/2000/svg">
<path fill-rule="evenodd" clip-rule="evenodd" d="M953.185 254.589L953.201 254.604L964.256 243.551L980.506 227.192C987.029 220.67 987.029 210.281 980.506 203.759C974.095 197.237 963.593 197.237 957.07 203.759L953.201 207.627L949.332 203.759C942.81 197.237 932.307 197.237 925.896 203.759C925.168 204.486 924.522 205.262 923.956 206.075L822.884 307.147L861.755 346.018L953.185 254.589Z" fill="url(#paint0_radial_2010_31077)"/>
<path d="M925.896 227.192L942.146 243.551L953.201 254.604L964.256 243.551L980.506 227.192C987.029 220.67 987.029 210.281 980.506 203.759C974.095 197.237 963.593 197.237 957.07 203.759L953.201 207.627L949.332 203.759C942.81 197.237 932.307 197.237 925.896 203.759C919.373 210.281 919.373 220.67 925.896 227.192Z" fill="url(#paint1_radial_2010_31077)"/>
<path fill-rule="evenodd" clip-rule="evenodd" d="M829.967 252.952L832.641 250.28L906.932 175.492C936.752 145.676 936.752 98.1782 906.932 68.3621C877.621 38.546 829.608 38.546 799.788 68.3621L782.101 86.0471L764.414 68.3621C734.594 38.546 686.582 38.546 657.27 68.3621C653.821 71.8106 650.771 75.4957 648.12 79.3627C647.51 79.8835 646.915 80.4324 646.338 81.0095L375.923 351.425C364.082 363.265 364.082 382.463 375.923 394.304L511.635 530.017C523.476 541.857 542.674 541.857 554.515 530.017L824.93 259.601C826.956 257.576 828.635 255.335 829.967 252.952Z" fill="url(#paint2_linear_2010_31077)" fill-opacity="0.25"/>
<g filter="url(#filter0_f_2010_31077)">
<path d="M660.732 172.03L660.738 172.036L660.743 172.042L735.023 246.818L735.035 246.829L782.101 293.89L829.167 246.829L829.179 246.818L903.459 172.042L903.465 172.036L903.471 172.03C931.378 144.126 931.378 99.7282 903.471 71.8239L903.456 71.809L903.441 71.794C876.064 43.9459 831.174 43.9027 803.25 71.8239L785.563 89.5089L782.101 92.9699L778.64 89.5089L760.952 71.8239C733.028 43.9027 688.138 43.9459 660.761 71.794L660.747 71.809L660.732 71.8239C632.824 99.7282 632.824 144.126 660.732 172.03Z" stroke="#00FFE1" stroke-width="9.79096"/>
</g>
<path d="M660.732 172.03L660.738 172.036L660.743 172.042L735.023 246.818L735.035 246.829L782.101 293.89L829.167 246.829L829.179 246.818L903.459 172.042L903.465 172.036L903.471 172.03C931.378 144.126 931.378 99.7282 903.471 71.8239L903.456 71.809L903.441 71.794C876.064 43.9459 831.174 43.9027 803.25 71.8239L785.563 89.5089L782.101 92.9699L778.64 89.5089L760.952 71.8239C733.028 43.9027 688.138 43.9459 660.761 71.794L660.747 71.809L660.732 71.8239C632.824 99.7282 632.824 144.126 660.732 172.03Z" stroke="#00FFE1" stroke-width="9.79096"/>
<g filter="url(#filter1_f_2010_31077)">
<path d="M659.168 173.594L659.175 173.6L733.46 248.381L733.466 248.388L782.101 297.016L830.736 248.388L830.742 248.381L905.027 173.6L905.034 173.594C933.805 144.826 933.805 99.0282 905.034 70.2605L905.026 70.2523L905.018 70.2441C876.767 41.5072 830.467 41.4835 801.687 70.2605L783.999 87.9455L782.101 89.8434L780.203 87.9455L762.516 70.2605C733.735 41.4835 687.435 41.5072 659.185 70.2441L659.177 70.2523L659.168 70.2605C630.397 99.0282 630.397 144.826 659.168 173.594Z" stroke="#96FFC0" stroke-width="5.36923"/>
</g>
<path d="M347.717 507.553L589.652 265.809L537.187 227.557L303.033 462.869L347.717 507.553Z" fill="url(#paint3_linear_2010_31077)"/>
<path d="M569.634 204.047L577.312 227.676H602.157L582.057 242.28L589.735 265.909L569.634 251.306L549.534 265.909L557.212 242.28L537.111 227.676H561.957L569.634 204.047Z" fill="url(#paint4_radial_2010_31077)"/>
<path fill-rule="evenodd" clip-rule="evenodd" d="M264.283 293.557L264.325 293.6L277.414 280.513L296.653 261.145C304.376 253.423 304.376 241.122 296.653 233.401C289.062 225.679 276.628 225.679 268.906 233.401L264.325 237.981L259.745 233.401C252.022 225.679 239.588 225.679 231.997 233.401C231.139 234.258 230.377 235.172 229.71 236.131L-0.00448614 465.845L45.9955 511.845L264.283 293.557Z" fill="url(#paint5_radial_2010_31077)"/>
<path d="M231.997 261.145L251.237 280.513L264.325 293.6L277.414 280.513L296.653 261.145C304.376 253.423 304.376 241.122 296.653 233.401C289.062 225.679 276.628 225.679 268.906 233.401L264.325 237.981L259.745 233.401C252.022 225.679 239.588 225.679 231.997 233.401C224.275 241.122 224.275 253.423 231.997 261.145Z" fill="url(#paint6_radial_2010_31077)"/>
<path d="M239.589 497.148L569.394 157.112L497.874 103.307L178.675 434.294L239.589 497.148Z" fill="url(#paint7_linear_2010_31077)"/>
<path d="M542.101 70.2344L552.568 103.471H586.437L559.036 124.013L569.502 157.25L542.101 136.708L514.701 157.25L525.167 124.013L497.766 103.471H531.635L542.101 70.2344Z" fill="url(#paint8_radial_2010_31077)"/>
<defs>
<filter id="filter0_f_2010_31077" x="589.426" y="0.519421" width="385.352" height="345.774" filterUnits="userSpaceOnUse" color-interpolation-filters="sRGB">
<feFlood flood-opacity="0" result="BackgroundImageFix"/>
<feBlend mode="normal" in="SourceGraphic" in2="BackgroundImageFix" result="shape"/>
<feGaussianBlur stdDeviation="22.7403" result="effect1_foregroundBlur_2010_31077"/>
</filter>
<filter id="filter1_f_2010_31077" x="630.485" y="41.5783" width="303.234" height="263.656" filterUnits="userSpaceOnUse" color-interpolation-filters="sRGB">
<feFlood flood-opacity="0" result="BackgroundImageFix"/>
<feBlend mode="normal" in="SourceGraphic" in2="BackgroundImageFix" result="shape"/>
<feGaussianBlur stdDeviation="2.21086" result="effect1_foregroundBlur_2010_31077"/>
</filter>
<radialGradient id="paint0_radial_2010_31077" cx="0" cy="0" r="1" gradientUnits="userSpaceOnUse" gradientTransform="translate(960.766 209.006) rotate(136.953) scale(139.597 195.057)">
<stop stop-color="#FF00C7"/>
<stop offset="0.562168" stop-color="#DB00FF" stop-opacity="0.1"/>
<stop offset="1" stop-color="#FF0099" stop-opacity="0"/>
</radialGradient>
<radialGradient id="paint1_radial_2010_31077" cx="0" cy="0" r="1" gradientUnits="userSpaceOnUse" gradientTransform="translate(972.247 204.227) rotate(134.657) scale(58.3613 81.5774)">
<stop stop-color="#02D9F7"/>
<stop offset="0.562168" stop-color="#A000FF"/>
<stop offset="1" stop-color="#FF0099"/>
</radialGradient>
<linearGradient id="paint2_linear_2010_31077" x1="723.085" y1="97.3843" x2="381.828" y2="469.375" gradientUnits="userSpaceOnUse">
<stop stop-color="#0CFFDE"/>
<stop offset="0.65" stop-color="#0CFFDE" stop-opacity="0"/>
</linearGradient>
<linearGradient id="paint3_linear_2010_31077" x1="392.54" y1="405.911" x2="559.705" y2="236.429" gradientUnits="userSpaceOnUse">
<stop stop-color="#FF8C00" stop-opacity="0"/>
<stop offset="0.571863" stop-color="#FF002B" stop-opacity="0.31"/>
<stop offset="1" stop-color="#ED00FF"/>
</linearGradient>
<radialGradient id="paint4_radial_2010_31077" cx="0" cy="0" r="1" gradientUnits="userSpaceOnUse" gradientTransform="translate(549.405 210.623) rotate(49.4615) scale(67.0304 92.5678)">
<stop stop-color="#FF3E00"/>
<stop offset="0.562168" stop-color="#FFC800"/>
<stop offset="1" stop-color="#FFDD62"/>
</radialGradient>
<radialGradient id="paint5_radial_2010_31077" cx="0" cy="0" r="1" gradientUnits="userSpaceOnUse" gradientTransform="translate(274.179 239.191) rotate(137.084) scale(159.854 223.291)">
<stop stop-color="#009FF0"/>
<stop offset="0.562168" stop-color="#00F0EA" stop-opacity="0.1"/>
<stop offset="1" stop-color="#0074F0" stop-opacity="0"/>
</radialGradient>
<radialGradient id="paint6_radial_2010_31077" cx="0" cy="0" r="1" gradientUnits="userSpaceOnUse" gradientTransform="translate(302.445 221.683) rotate(147.075) scale(132.311 184.944)">
<stop stop-color="#00F0D6"/>
<stop offset="0.562168" stop-color="#0088F0"/>
<stop offset="1" stop-color="#52B4FF"/>
</radialGradient>
<linearGradient id="paint7_linear_2010_31077" x1="288.522" y1="366.172" x2="536.173" y2="123.548" gradientUnits="userSpaceOnUse">
<stop stop-color="#5900FF" stop-opacity="0"/>
<stop offset="0.473957" stop-color="#005EFF" stop-opacity="0.31"/>
<stop offset="1" stop-color="#00FFBA"/>
</linearGradient>
<radialGradient id="paint8_radial_2010_31077" cx="0" cy="0" r="1" gradientUnits="userSpaceOnUse" gradientTransform="translate(514.525 79.4845) rotate(50.346) scale(93.0666 127.839)">
<stop stop-color="#026FF7"/>
<stop offset="0.562168" stop-color="#FF00EF"/>
<stop offset="1" stop-color="#FF002B"/>
</radialGradient>
</defs>
</svg>
