<svg width="307" height="257" viewBox="0 0 307 257" fill="none" xmlns="http://www.w3.org/2000/svg">
<path fill-rule="evenodd" clip-rule="evenodd" d="M73.3938 122.711L73.4012 122.718L78.6524 117.467L86.3715 109.697C89.4699 106.599 89.4699 101.664 86.3715 98.5657C83.326 95.4677 78.3373 95.4677 75.239 98.5657L73.4012 100.403L71.5635 98.5657C68.4651 95.4677 63.4764 95.4677 60.4309 98.5657C60.085 98.9115 59.7778 99.2802 59.5091 99.6667L11.4994 147.676L29.9637 166.141L73.3938 122.711Z" fill="url(#paint0_radial_2012_31103)"/>
<path d="M60.4309 109.697L68.15 117.467L73.4012 122.718L78.6524 117.467L86.3715 109.697C89.4699 106.599 89.4699 101.664 86.3715 98.5657C83.326 95.4677 78.3373 95.4677 75.239 98.5657L73.4012 100.403L71.5634 98.5657C68.4651 95.4677 63.4764 95.4677 60.4309 98.5657C57.3325 101.664 57.3325 106.599 60.4309 109.697Z" fill="url(#paint1_radial_2012_31103)"/>
<path fill-rule="evenodd" clip-rule="evenodd" d="M220.817 120.336L222.087 119.067L257.376 83.5416C271.541 69.3786 271.541 46.8165 257.376 32.6535C243.453 18.4905 220.647 18.4905 206.482 32.6535L198.08 41.0541L189.679 32.6535C175.514 18.4905 152.707 18.4905 138.784 32.6535C137.146 34.2917 135.697 36.0422 134.437 37.8791C134.148 38.1265 133.865 38.3871 133.591 38.6612L5.14081 167.112C-0.483734 172.736 -0.483734 181.855 5.14081 187.48L69.6059 251.945C75.2304 257.57 84.3496 257.57 89.9742 251.945L218.425 123.495C219.387 122.532 220.184 121.468 220.817 120.336Z" fill="url(#paint2_linear_2012_31103)" fill-opacity="0.25"/>
<g filter="url(#filter0_f_2012_31103)">
<path d="M140.428 81.8972L140.434 81.9028L175.718 117.422L175.723 117.428L198.08 139.782L220.437 117.428L220.443 117.422L255.727 81.9028L255.732 81.8972C268.989 68.6423 268.989 47.5528 255.732 34.2979L255.725 34.2909L255.718 34.2837C242.714 21.0555 221.391 21.035 208.126 34.2979L199.724 42.6985L198.08 44.3425L196.436 42.6985L188.034 34.2979C174.77 21.035 153.447 21.0555 140.442 34.2837L140.435 34.2909L140.428 34.2979C127.172 47.5528 127.172 68.6423 140.428 81.8972Z" stroke="#00FFE1" stroke-width="4.65082"/>
</g>
<path d="M140.428 81.8972L140.434 81.9028L175.718 117.422L175.723 117.428L198.08 139.782L220.437 117.428L220.443 117.422L255.727 81.9028L255.732 81.8972C268.989 68.6423 268.989 47.5528 255.732 34.2979L255.725 34.2909L255.718 34.2837C242.714 21.0555 221.391 21.035 208.126 34.2979L199.724 42.6985L198.08 44.3425L196.436 42.6985L188.034 34.2979C174.77 21.035 153.447 21.0555 140.442 34.2837L140.435 34.2909L140.428 34.2979C127.172 47.5528 127.172 68.6423 140.428 81.8972Z" stroke="#00FFE1" stroke-width="4.65082"/>
<g filter="url(#filter1_f_2012_31103)">
<path d="M139.686 82.6398L139.689 82.6429L174.975 118.165L174.978 118.168L198.08 141.267L221.182 118.168L221.185 118.165L256.472 82.6429L256.475 82.6398C270.141 68.9748 270.141 47.2203 256.475 33.5553L256.475 33.5553L256.467 33.5475C243.048 19.8971 221.055 19.8859 207.384 33.5553L198.982 41.9559L198.08 42.8574L197.179 41.9559L188.777 33.5553C175.106 19.8859 153.113 19.8971 139.693 33.5475L139.686 33.5553C126.019 47.2203 126.019 68.9748 139.686 82.6398Z" stroke="#96FFC0" stroke-width="2.55045"/>
</g>
<path d="M215.123 243.755L301.008 157.938L282.383 144.358L199.26 227.893L215.123 243.755Z" fill="url(#paint3_linear_2012_31103)"/>
<path d="M293.897 136.008L296.623 144.396H305.443L298.307 149.58L301.033 157.969L293.897 152.784L286.762 157.969L289.487 149.58L282.352 144.396H291.172L293.897 136.008Z" fill="url(#paint4_radial_2012_31103)"/>
<defs>
<filter id="filter0_f_2012_31103" x="106.56" y="0.427422" width="183.044" height="164.247" filterUnits="userSpaceOnUse" color-interpolation-filters="sRGB">
<feFlood flood-opacity="0" result="BackgroundImageFix"/>
<feBlend mode="normal" in="SourceGraphic" in2="BackgroundImageFix" result="shape"/>
<feGaussianBlur stdDeviation="10.8019" result="effect1_foregroundBlur_2012_31103"/>
</filter>
<filter id="filter1_f_2012_31103" x="126.064" y="19.9309" width="144.037" height="125.24" filterUnits="userSpaceOnUse" color-interpolation-filters="sRGB">
<feFlood flood-opacity="0" result="BackgroundImageFix"/>
<feBlend mode="normal" in="SourceGraphic" in2="BackgroundImageFix" result="shape"/>
<feGaussianBlur stdDeviation="1.05019" result="effect1_foregroundBlur_2012_31103"/>
</filter>
<radialGradient id="paint0_radial_2012_31103" cx="0" cy="0" r="1" gradientUnits="userSpaceOnUse" gradientTransform="translate(76.9948 101.058) rotate(136.952) scale(66.31 92.6545)">
<stop stop-color="#FF00C7"/>
<stop offset="0.562168" stop-color="#DB00FF" stop-opacity="0.1"/>
<stop offset="1" stop-color="#FF0099" stop-opacity="0"/>
</radialGradient>
<radialGradient id="paint1_radial_2012_31103" cx="0" cy="0" r="1" gradientUnits="userSpaceOnUse" gradientTransform="translate(82.4484 98.7879) rotate(134.657) scale(27.7223 38.7503)">
<stop stop-color="#02D9F7"/>
<stop offset="0.562168" stop-color="#A000FF"/>
<stop offset="1" stop-color="#FF0099"/>
</radialGradient>
<linearGradient id="paint2_linear_2012_31103" x1="170.047" y1="46.4394" x2="7.94566" y2="223.139" gradientUnits="userSpaceOnUse">
<stop stop-color="#0CFFDE"/>
<stop offset="0.65" stop-color="#0CFFDE" stop-opacity="0"/>
</linearGradient>
<linearGradient id="paint3_linear_2012_31103" x1="231.034" y1="207.673" x2="290.376" y2="147.508" gradientUnits="userSpaceOnUse">
<stop stop-color="#FF8C00" stop-opacity="0"/>
<stop offset="0.571863" stop-color="#FF002B" stop-opacity="0.31"/>
<stop offset="1" stop-color="#ED00FF"/>
</linearGradient>
<radialGradient id="paint4_radial_2012_31103" cx="0" cy="0" r="1" gradientUnits="userSpaceOnUse" gradientTransform="translate(286.716 138.342) rotate(49.4615) scale(23.7953 32.8609)">
<stop stop-color="#FF3E00"/>
<stop offset="0.562168" stop-color="#FFC800"/>
<stop offset="1" stop-color="#FFDD62"/>
</radialGradient>
</defs>
</svg>
