<svg width="864" height="864" viewBox="0 0 864 864" fill="none" xmlns="http://www.w3.org/2000/svg">
<rect opacity="0.6" width="827.12" height="393.682" rx="196.841" transform="matrix(-0.707107 0.707107 0.707107 0.707107 584.859 0)" fill="url(#paint0_linear_2006_31017)"/>
<rect width="334.101" height="59.8575" rx="29.9288" transform="matrix(-0.707107 0.707107 0.707107 0.707107 668.57 419.641)" fill="url(#paint1_linear_2006_31017)"/>
<path d="M363.414 338.109L364.553 352.738L379.531 353.851L364.553 354.965L363.414 369.593L362.274 354.965L347.297 353.851L362.274 352.738L363.414 338.109Z" fill="url(#paint2_radial_2006_31017)"/>
<path d="M538.421 525.234L539.614 540.908L555.288 542.101L539.614 543.293L538.421 558.967L537.228 543.293L521.555 542.101L537.228 540.908L538.421 525.234Z" fill="url(#paint3_radial_2006_31017)"/>
<path fill-rule="evenodd" clip-rule="evenodd" d="M549.954 471.573L551.767 469.761L602.134 419.057C622.351 398.843 622.351 366.641 602.134 346.426C582.262 326.212 549.711 326.212 529.494 346.426L517.503 358.416L505.511 346.426C485.294 326.212 452.743 326.212 432.871 346.426C430.533 348.764 428.465 351.263 426.668 353.884C426.254 354.237 425.851 354.61 425.459 355.001L242.126 538.334C234.099 546.362 234.099 559.377 242.126 567.405L334.135 659.414C342.163 667.442 355.178 667.442 363.206 659.414L546.539 476.081C547.913 474.708 549.051 473.188 549.954 471.573Z" fill="url(#paint4_linear_2006_31017)" fill-opacity="0.25"/>
<g filter="url(#filter0_f_2006_31017)">
<path d="M435.218 416.71L435.226 416.718L485.585 467.414L485.593 467.422L517.503 499.327L549.412 467.422L549.42 467.414L599.779 416.718L599.787 416.71C618.708 397.792 618.708 367.692 599.787 348.773L599.777 348.763L599.767 348.753C581.207 329.873 550.773 329.844 531.841 348.773L519.849 360.763L517.503 363.11L515.156 360.763L503.165 348.773C484.232 329.844 453.799 329.873 435.238 348.753L435.228 348.763L435.218 348.773C416.297 367.692 416.297 397.792 435.218 416.71Z" stroke="#00FFE1" stroke-width="6.63797"/>
</g>
<path d="M435.218 416.71L435.226 416.718L485.585 467.414L485.593 467.422L517.503 499.327L549.412 467.422L549.42 467.414L599.779 416.718L599.787 416.71C618.708 397.792 618.708 367.692 599.787 348.773L599.777 348.763L599.767 348.753C581.207 329.873 550.773 329.844 531.841 348.773L519.849 360.763L517.503 363.11L515.156 360.763L503.165 348.773C484.232 329.844 453.799 329.873 435.238 348.753L435.228 348.763L435.218 348.773C416.297 367.692 416.297 397.792 435.218 416.71Z" stroke="#00FFE1" stroke-width="6.63797"/>
<g filter="url(#filter1_f_2006_31017)">
<path d="M434.158 417.77L434.162 417.775L484.525 468.474L484.53 468.478L517.503 501.447L550.476 468.478L550.48 468.474L600.843 417.775L600.847 417.77C620.353 398.267 620.353 367.217 600.847 347.713L600.842 347.708L600.836 347.702C581.683 328.22 550.293 328.204 530.781 347.713L518.79 359.703L517.503 360.99L516.216 359.703L504.224 347.714C484.712 328.204 453.322 328.22 434.169 347.702L434.164 347.708L434.158 347.713C414.652 367.217 414.652 398.267 434.158 417.77Z" stroke="#96FFC0" stroke-width="3.64018"/>
</g>
<path fill-rule="evenodd" clip-rule="evenodd" d="M558.706 514.387L558.724 514.406L564.387 508.743L572.713 500.362C576.054 497.021 576.054 491.699 572.713 488.357C569.428 485.016 564.048 485.016 560.706 488.357L558.724 490.339L556.742 488.357C553.4 485.016 548.02 485.016 544.736 488.357C544.365 488.728 544.035 489.124 543.746 489.538L444.348 588.937L464.252 608.841L558.706 514.387Z" fill="url(#paint5_radial_2006_31017)"/>
<path d="M544.736 500.362L553.061 508.743L558.724 514.406L564.387 508.743L572.713 500.362C576.054 497.021 576.054 491.699 572.713 488.357C569.428 485.016 564.048 485.016 560.706 488.357L558.724 490.339L556.742 488.357C553.4 485.016 548.02 485.016 544.736 488.357C541.394 491.699 541.394 497.021 544.736 500.362Z" fill="url(#paint6_radial_2006_31017)"/>
<path opacity="0.6" fill-rule="evenodd" clip-rule="evenodd" d="M474.515 537.628L474.621 537.734L507.97 504.39L556.992 455.04C576.669 435.366 576.669 404.024 556.992 384.35C537.651 364.675 505.969 364.675 486.292 384.35L474.621 396.019L462.95 384.35C443.273 364.675 411.592 364.675 392.25 384.35C390.062 386.538 388.116 388.871 386.414 391.316L102.064 675.667L219.27 792.873L474.515 537.628Z" fill="url(#paint7_radial_2006_31017)"/>
<path d="M392.25 455.04L441.272 504.39L474.621 537.734L507.97 504.39L556.992 455.04C576.669 435.366 576.669 404.024 556.992 384.35C537.651 364.675 505.969 364.675 486.292 384.35L474.621 396.019L462.95 384.35C443.273 364.675 411.592 364.675 392.25 384.35C372.573 404.024 372.573 435.366 392.25 455.04Z" fill="url(#paint8_radial_2006_31017)"/>
<g filter="url(#filter2_dd_2006_31017)">
<path d="M513.992 437.253V417.273H523.588C525.448 417.273 527.052 417.578 528.4 418.187C529.767 418.796 530.82 419.671 531.561 420.813C532.301 421.935 532.671 423.267 532.671 424.809C532.671 426.35 532.301 427.682 531.561 428.805C530.82 429.927 529.767 430.803 528.4 431.431C527.052 432.039 525.448 432.344 523.588 432.344H517.722L520.712 429.461V437.253H513.992ZM520.712 430.203L517.722 427.149H523.161C524.091 427.149 524.774 426.94 525.211 426.521C525.667 426.103 525.894 425.532 525.894 424.809C525.894 424.086 525.667 423.515 525.211 423.096C524.774 422.678 524.091 422.468 523.161 422.468H517.722L520.712 419.414V430.203Z" fill="white"/>
<path d="M502.052 424.695H510.94V429.547H502.052V424.695ZM502.507 432.173H512.478V437.253H495.898V417.273H512.108V422.354H502.507V432.173Z" fill="white"/>
<path d="M474.609 437.253V417.273H493.94V437.253H487.316V421.07L488.772 422.497H479.778L481.234 421.07V437.253H474.609Z" fill="white"/>
<path d="M447.25 437.757C445.655 437.757 444.174 437.509 442.807 437.014C441.458 436.499 440.281 435.775 439.274 434.842C438.287 433.908 437.517 432.803 436.967 431.526C436.416 430.25 436.141 428.84 436.141 427.296C436.141 425.753 436.416 424.343 436.967 423.066C437.517 421.79 438.287 420.685 439.274 419.751C440.281 418.818 441.458 418.103 442.807 417.608C444.174 417.093 445.655 416.836 447.25 416.836C449.207 416.836 450.935 417.179 452.435 417.865C453.954 418.551 455.208 419.542 456.195 420.837L451.951 424.638C451.362 423.895 450.707 423.324 449.985 422.924C449.283 422.504 448.485 422.295 447.592 422.295C446.89 422.295 446.253 422.409 445.684 422.638C445.114 422.866 444.62 423.2 444.202 423.638C443.804 424.076 443.49 424.61 443.262 425.239C443.034 425.848 442.92 426.534 442.92 427.296C442.92 428.059 443.034 428.754 443.262 429.383C443.49 429.992 443.804 430.516 444.202 430.955C444.62 431.393 445.114 431.726 445.684 431.955C446.253 432.184 446.89 432.298 447.592 432.298C448.485 432.298 449.283 432.098 449.985 431.698C450.707 431.279 451.362 430.697 451.951 429.954L456.195 433.756C455.208 435.032 453.954 436.023 452.435 436.728C450.935 437.414 449.207 437.757 447.25 437.757Z" fill="white"/>
<path d="M458.942 423.684C459.974 423.949 460.781 424.04 461.363 423.957C461.945 423.858 462.461 423.501 462.911 422.888L463.759 421.695L464.258 421.147L469.325 410.828H475.016L468.002 423.932C467.237 425.358 466.313 426.469 465.232 427.264C464.167 428.044 462.985 428.491 461.688 428.607C460.39 428.723 459.017 428.491 457.569 427.911L458.942 423.684ZM464.183 425.748L456.047 410.828H462.262L467.378 421.695L464.183 425.748Z" fill="white"/>
<path d="M496.673 479.322C495.829 479.322 494.966 479.191 494.085 478.929C493.222 478.685 492.528 478.357 492.003 477.945L494.113 473.592C494.432 473.835 494.788 474.032 495.182 474.181C495.594 474.331 495.988 474.406 496.363 474.406C496.926 474.406 497.357 474.284 497.657 474.041C497.957 473.816 498.201 473.47 498.389 473.002L499.036 471.372L499.486 470.755L504.409 458.227H510.428L504.099 473.901C503.537 475.305 502.88 476.401 502.13 477.187C501.399 477.974 500.573 478.526 499.655 478.844C498.754 479.163 497.76 479.322 496.673 479.322ZM498.164 474.294L491.469 458.227H497.995L502.608 470.193L498.164 474.294Z" fill="white"/>
<path d="M483.347 473.909C481.61 473.909 480.069 473.571 478.724 472.896C477.398 472.201 476.352 471.253 475.586 470.052C474.82 468.851 474.438 467.471 474.438 465.913C474.438 464.355 474.82 462.976 475.586 461.774C476.352 460.573 477.398 459.635 478.724 458.959C480.069 458.283 481.61 457.945 483.347 457.945C485.084 457.945 486.625 458.283 487.97 458.959C489.315 459.635 490.361 460.573 491.108 461.774C491.874 462.976 492.257 464.355 492.257 465.913C492.257 467.471 491.874 468.851 491.108 470.052C490.361 471.253 489.315 472.201 487.97 472.896C486.625 473.571 485.084 473.909 483.347 473.909ZM483.347 468.954C483.814 468.954 484.234 468.841 484.608 468.616C484.981 468.391 485.28 468.053 485.504 467.603C485.729 467.133 485.841 466.57 485.841 465.913C485.841 465.238 485.729 464.684 485.504 464.252C485.28 463.802 484.981 463.464 484.608 463.238C484.234 463.013 483.814 462.901 483.347 462.901C482.88 462.901 482.46 463.013 482.086 463.238C481.713 463.464 481.414 463.802 481.19 464.252C480.966 464.684 480.854 465.238 480.854 465.913C480.854 466.57 480.966 467.133 481.19 467.603C481.414 468.053 481.713 468.391 482.086 468.616C482.46 468.841 482.88 468.954 483.347 468.954Z" fill="white"/>
<path d="M458.455 468.639L457.076 470.018V458.227H463.409V470.018L462.001 468.639H467.94L466.561 470.018V458.227H472.866V473.62H447.562V458.227H453.895V470.018L452.516 468.639H458.455Z" fill="white"/>
<path d="M485.202 455.526L481.002 448.495L486.098 445.525L492.65 455.526H485.202ZM474.617 455.526V440.203H480.946V455.526H474.617ZM479.097 450.428V445.581H484.81V450.428H479.097ZM486.742 448.551L480.806 447.99L485.678 440.203H492.342L486.742 448.551Z" fill="white"/>
<path d="M455.375 455.597V440.203H461.692V447.179L466.998 440.203H472.838V455.597H466.521V448.638L461.243 455.597H455.375Z" fill="white"/>
<path d="M447.758 455.386V452.655L447.309 451.922V446.742C447.309 445.991 447.074 445.419 446.606 445.024C446.156 444.63 445.416 444.433 444.385 444.433C443.692 444.433 442.989 444.546 442.277 444.771C441.565 444.978 440.956 445.268 440.45 445.644L438.426 441.449C439.326 440.886 440.403 440.454 441.659 440.154C442.914 439.853 444.142 439.703 445.341 439.703C447.983 439.703 450.026 440.294 451.469 441.477C452.93 442.659 453.661 444.536 453.661 447.108V455.386H447.758ZM443.401 455.667C442.146 455.667 441.097 455.451 440.253 455.02C439.41 454.588 438.773 454.015 438.342 453.302C437.911 452.57 437.695 451.763 437.695 450.881C437.695 449.886 437.948 449.041 438.454 448.347C438.96 447.652 439.729 447.127 440.759 446.77C441.809 446.413 443.13 446.235 444.723 446.235H447.927V449.304H445.735C445.06 449.304 444.563 449.417 444.245 449.642C443.945 449.848 443.795 450.167 443.795 450.599C443.795 450.956 443.926 451.256 444.189 451.5C444.47 451.725 444.844 451.838 445.313 451.838C445.744 451.838 446.137 451.725 446.493 451.5C446.868 451.256 447.14 450.881 447.309 450.374L448.124 452.26C447.88 453.405 447.365 454.259 446.578 454.822C445.791 455.386 444.732 455.667 443.401 455.667Z" fill="white"/>
<path d="M418.383 455.384L418.636 450.232C418.748 450.25 418.86 450.269 418.973 450.288C419.085 450.288 419.188 450.288 419.281 450.288C419.693 450.288 420.021 450.213 420.264 450.063C420.508 449.894 420.695 449.659 420.826 449.359C420.976 449.04 421.079 448.665 421.135 448.233C421.191 447.782 421.228 447.266 421.247 446.685L421.472 439.984H436.131V455.384H429.784V443.616L431.16 444.939H425.656L426.948 443.532L426.807 446.938C426.751 448.327 426.63 449.575 426.442 450.682C426.255 451.771 425.956 452.7 425.544 453.469C425.151 454.22 424.608 454.802 423.915 455.215C423.241 455.609 422.38 455.806 421.331 455.806C420.92 455.806 420.461 455.768 419.955 455.693C419.469 455.618 418.944 455.515 418.383 455.384Z" fill="white"/>
<path d="M469.095 434.326L466.636 436.783L464.964 438.444L463.292 436.783L460.834 434.326C459.847 433.346 459.847 431.785 460.834 430.805C461.804 429.825 463.392 429.825 464.379 430.805L464.964 431.386L465.549 430.805C466.536 429.825 468.125 429.825 469.095 430.805C470.081 431.785 470.081 433.346 469.095 434.326Z" fill="#52FF00"/>
</g>
<path d="M502.557 672.032L615.964 555.108L591.371 536.607L481.611 650.419L502.557 672.032Z" fill="url(#paint9_linear_2006_31017)"/>
<path d="M606.584 525.234L610.183 536.663H621.83L612.408 543.727L616.006 555.155L606.584 548.092L597.162 555.155L600.761 543.727L591.339 536.663H602.986L606.584 525.234Z" fill="url(#paint10_radial_2006_31017)"/>
<path fill-rule="evenodd" clip-rule="evenodd" d="M383.507 527.902L383.515 527.91L389.666 521.76L398.708 512.658C402.337 509.029 402.337 503.249 398.708 499.62C395.14 495.991 389.297 495.991 385.668 499.62L383.515 501.772L381.363 499.62C377.733 495.991 371.89 495.991 368.323 499.62C367.918 500.025 367.558 500.457 367.244 500.909L311.008 557.145L332.635 578.773L383.507 527.902Z" fill="url(#paint11_radial_2006_31017)"/>
<path d="M368.323 512.658L377.364 521.76L383.515 527.91L389.666 521.76L398.708 512.658C402.337 509.029 402.337 503.249 398.708 499.62C395.14 495.991 389.297 495.991 385.668 499.62L383.515 501.772L381.363 499.62C377.733 495.991 371.89 495.991 368.323 499.62C364.694 503.249 364.694 509.029 368.323 512.658Z" fill="url(#paint12_radial_2006_31017)"/>
<path d="M413.226 794.335L593.366 614.337L554.302 585.855L379.955 761.064L413.226 794.335Z" fill="url(#paint13_linear_2006_31017)"/>
<path d="M578.462 568.352L584.179 585.946H602.678L587.712 596.819L593.429 614.413L578.462 603.54L563.496 614.413L569.213 596.819L554.246 585.946H572.746L578.462 568.352Z" fill="url(#paint14_radial_2006_31017)"/>
<path d="M622.851 607.258L623.71 618.546L634.998 619.405L623.71 620.264L622.851 631.553L621.992 620.264L610.703 619.405L621.992 618.546L622.851 607.258Z" fill="url(#paint15_radial_2006_31017)"/>
<defs>
<filter id="filter0_f_2006_31017" x="386.877" y="300.431" width="261.255" height="234.427" filterUnits="userSpaceOnUse" color-interpolation-filters="sRGB">
<feFlood flood-opacity="0" result="BackgroundImageFix"/>
<feBlend mode="normal" in="SourceGraphic" in2="BackgroundImageFix" result="shape"/>
<feGaussianBlur stdDeviation="15.4172" result="effect1_foregroundBlur_2006_31017"/>
</filter>
<filter id="filter1_f_2006_31017" x="414.713" y="328.268" width="205.582" height="178.753" filterUnits="userSpaceOnUse" color-interpolation-filters="sRGB">
<feFlood flood-opacity="0" result="BackgroundImageFix"/>
<feBlend mode="normal" in="SourceGraphic" in2="BackgroundImageFix" result="shape"/>
<feGaussianBlur stdDeviation="1.4989" result="effect1_foregroundBlur_2006_31017"/>
</filter>
<filter id="filter2_dd_2006_31017" x="417.353" y="409.592" width="127.058" height="81.261" filterUnits="userSpaceOnUse" color-interpolation-filters="sRGB">
<feFlood flood-opacity="0" result="BackgroundImageFix"/>
<feColorMatrix in="SourceAlpha" type="matrix" values="0 0 0 0 0 0 0 0 0 0 0 0 0 0 0 0 0 0 127 0" result="hardAlpha"/>
<feOffset dx="2.88329" dy="2.67734"/>
<feGaussianBlur stdDeviation="1.95652"/>
<feColorMatrix type="matrix" values="0 0 0 0 0.270588 0 0 0 0 0 0 0 0 0 0.4 0 0 0 0.15 0"/>
<feBlend mode="normal" in2="BackgroundImageFix" result="effect1_dropShadow_2006_31017"/>
<feColorMatrix in="SourceAlpha" type="matrix" values="0 0 0 0 0 0 0 0 0 0 0 0 0 0 0 0 0 0 127 0" result="hardAlpha"/>
<feOffset dx="6.38442" dy="6.17847"/>
<feGaussianBlur stdDeviation="2.67734"/>
<feColorMatrix type="matrix" values="0 0 0 0 0.270588 0 0 0 0 0 0 0 0 0 0.4 0 0 0 0.15 0"/>
<feBlend mode="normal" in2="effect1_dropShadow_2006_31017" result="effect2_dropShadow_2006_31017"/>
<feBlend mode="normal" in="SourceGraphic" in2="effect2_dropShadow_2006_31017" result="shape"/>
</filter>
<linearGradient id="paint0_linear_2006_31017" x1="-35.2515" y1="288.589" x2="901.105" y2="239.925" gradientUnits="userSpaceOnUse">
<stop stop-color="#02D9F7"/>
<stop offset="0.65" stop-color="#A000FF" stop-opacity="0"/>
</linearGradient>
<linearGradient id="paint1_linear_2006_31017" x1="-14.2392" y1="43.8786" x2="357.913" y2="-7.50415" gradientUnits="userSpaceOnUse">
<stop stop-color="#FF0099"/>
<stop offset="0.65" stop-color="#A000FF" stop-opacity="0"/>
</linearGradient>
<radialGradient id="paint2_radial_2006_31017" cx="0" cy="0" r="1" gradientUnits="userSpaceOnUse" gradientTransform="translate(363.42 344.295) rotate(137.402) scale(21.0367 26.4367)">
<stop stop-color="#FFE4AD"/>
<stop offset="1" stop-color="#FFEC2D"/>
</radialGradient>
<radialGradient id="paint3_radial_2006_31017" cx="0" cy="0" r="1" gradientUnits="userSpaceOnUse" gradientTransform="translate(528.444 528.478) rotate(49.4615) scale(33.0605 45.656)">
<stop stop-color="#FF00D6"/>
<stop offset="0.562168" stop-color="#FF004D"/>
<stop offset="1" stop-color="#FF6291"/>
</radialGradient>
<linearGradient id="paint4_linear_2006_31017" x1="477.492" y1="366.103" x2="246.13" y2="618.301" gradientUnits="userSpaceOnUse">
<stop stop-color="#0CFFDE"/>
<stop offset="0.65" stop-color="#0CFFDE" stop-opacity="0"/>
</linearGradient>
<radialGradient id="paint5_radial_2006_31017" cx="0" cy="0" r="1" gradientUnits="userSpaceOnUse" gradientTransform="translate(562.988 490.863) rotate(137.084) scale(69.1693 96.6185)">
<stop stop-color="#009FF0"/>
<stop offset="0.562168" stop-color="#00F0EA" stop-opacity="0.1"/>
<stop offset="1" stop-color="#0074F0" stop-opacity="0"/>
</radialGradient>
<radialGradient id="paint6_radial_2006_31017" cx="0" cy="0" r="1" gradientUnits="userSpaceOnUse" gradientTransform="translate(575.219 483.287) rotate(147.075) scale(57.2513 80.0258)">
<stop stop-color="#00F0D6"/>
<stop offset="0.562168" stop-color="#0088F0"/>
<stop offset="1" stop-color="#52B4FF"/>
</radialGradient>
<radialGradient id="paint7_radial_2006_31017" cx="0" cy="0" r="1" gradientUnits="userSpaceOnUse" gradientTransform="translate(499.727 399.103) rotate(137.084) scale(407.303 568.938)">
<stop stop-color="#FF0065"/>
<stop offset="0.562168" stop-color="#FF00C1" stop-opacity="0.1"/>
<stop offset="1" stop-color="#FF0037" stop-opacity="0"/>
</radialGradient>
<radialGradient id="paint8_radial_2006_31017" cx="0" cy="0" r="1" gradientUnits="userSpaceOnUse" gradientTransform="translate(532.078 385.761) rotate(134.657) scale(176.057 246.092)">
<stop stop-color="#FF00D6"/>
<stop offset="0.562168" stop-color="#FF004D"/>
<stop offset="1" stop-color="#FF6291"/>
</radialGradient>
<linearGradient id="paint9_linear_2006_31017" x1="519.383" y1="626.995" x2="604.54" y2="543.566" gradientUnits="userSpaceOnUse">
<stop stop-color="#5900FF" stop-opacity="0"/>
<stop offset="0.473957" stop-color="#005EFF" stop-opacity="0.31"/>
<stop offset="1" stop-color="#00FFBA"/>
</linearGradient>
<radialGradient id="paint10_radial_2006_31017" cx="0" cy="0" r="1" gradientUnits="userSpaceOnUse" gradientTransform="translate(597.102 528.415) rotate(50.346) scale(32.0019 43.9587)">
<stop stop-color="#026FF7"/>
<stop offset="0.562168" stop-color="#FF00EF"/>
<stop offset="1" stop-color="#FF002B"/>
</radialGradient>
<radialGradient id="paint11_radial_2006_31017" cx="0" cy="0" r="1" gradientUnits="userSpaceOnUse" gradientTransform="translate(387.725 502.54) rotate(136.953) scale(77.6709 108.529)">
<stop stop-color="#FF00C7"/>
<stop offset="0.562168" stop-color="#DB00FF" stop-opacity="0.1"/>
<stop offset="1" stop-color="#FF0099" stop-opacity="0"/>
</radialGradient>
<radialGradient id="paint12_radial_2006_31017" cx="0" cy="0" r="1" gradientUnits="userSpaceOnUse" gradientTransform="translate(394.113 499.88) rotate(134.657) scale(32.472 45.3893)">
<stop stop-color="#02D9F7"/>
<stop offset="0.562168" stop-color="#A000FF"/>
<stop offset="1" stop-color="#FF0099"/>
</radialGradient>
<linearGradient id="paint13_linear_2006_31017" x1="446.6" y1="718.655" x2="571.068" y2="592.461" gradientUnits="userSpaceOnUse">
<stop stop-color="#FF8C00" stop-opacity="0"/>
<stop offset="0.571863" stop-color="#FF002B" stop-opacity="0.31"/>
<stop offset="1" stop-color="#ED00FF"/>
</linearGradient>
<radialGradient id="paint14_radial_2006_31017" cx="0" cy="0" r="1" gradientUnits="userSpaceOnUse" gradientTransform="translate(563.4 573.248) rotate(49.4615) scale(49.9095 68.9242)">
<stop stop-color="#FF3E00"/>
<stop offset="0.562168" stop-color="#FFC800"/>
<stop offset="1" stop-color="#FFDD62"/>
</radialGradient>
<radialGradient id="paint15_radial_2006_31017" cx="0" cy="0" r="1" gradientUnits="userSpaceOnUse" gradientTransform="translate(622.855 612.031) rotate(136.73) scale(16.0298 20.1787)">
<stop stop-color="#ADFFEE"/>
<stop offset="1" stop-color="#2DF9FF"/>
</radialGradient>
</defs>
</svg>
