<svg width="2560" height="2697" viewBox="0 0 2560 2697" fill="none" xmlns="http://www.w3.org/2000/svg">
<g filter="url(#filter0_f_751_25162)">
<ellipse cx="1406.06" cy="1162.23" rx="553" ry="562" fill="#6F00FD"/>
</g>
<rect width="2206.77" height="1001.72" rx="500.86" transform="matrix(-0.707107 0.707107 0.707107 0.707107 1560.42 428)" fill="url(#paint0_linear_751_25162)"/>
<rect width="891.388" height="159.701" rx="79.8505" transform="matrix(-0.707107 0.707107 0.707107 0.707107 1749.36 1513.23)" fill="url(#paint1_linear_751_25162)"/>
<path d="M935.199 1295.7L938.239 1334.73L978.199 1337.7L938.239 1340.67L935.199 1379.7L932.158 1340.67L892.199 1337.7L932.158 1334.73L935.199 1295.7Z" fill="url(#paint2_radial_751_25162)"/>
<path d="M1342.06 1865.23L1345.24 1907.05L1387.06 1910.23L1345.24 1913.41L1342.06 1955.23L1338.88 1913.41L1297.06 1910.23L1338.88 1907.05L1342.06 1865.23Z" fill="url(#paint3_radial_751_25162)"/>
<path fill-rule="evenodd" clip-rule="evenodd" d="M1432.9 1651.79L1437.74 1646.95L1572.12 1511.67C1626.06 1457.74 1626.06 1371.83 1572.12 1317.89C1519.1 1263.96 1432.25 1263.96 1378.31 1317.89L1346.32 1349.88L1314.33 1317.89C1260.39 1263.96 1173.54 1263.96 1120.52 1317.89C1114.28 1324.13 1108.77 1330.8 1103.97 1337.79C1102.87 1338.73 1101.79 1339.73 1100.75 1340.77L611.609 1829.91C590.191 1851.32 590.191 1886.05 611.609 1907.47L857.091 2152.95C878.509 2174.37 913.235 2174.37 934.653 2152.95L1423.79 1663.81C1427.45 1660.15 1430.49 1656.1 1432.9 1651.79Z" fill="url(#paint4_linear_751_25162)" fill-opacity="0.25"/>
<g filter="url(#filter1_f_751_25162)">
<path d="M1126.78 1505.41L1126.79 1505.42L1126.8 1505.43L1261.16 1640.69L1261.18 1640.71L1346.32 1725.84L1431.45 1640.71L1431.48 1640.69L1565.84 1505.43L1565.85 1505.42L1565.86 1505.41C1616.34 1454.94 1616.34 1374.63 1565.86 1324.15L1565.83 1324.13L1565.8 1324.1C1516.28 1273.73 1435.08 1273.65 1384.57 1324.15L1352.58 1356.14L1346.32 1362.4L1340.06 1356.14L1308.06 1324.15C1257.55 1273.65 1176.36 1273.73 1126.84 1324.1L1126.81 1324.13L1126.78 1324.15C1076.3 1374.63 1076.3 1454.94 1126.78 1505.41Z" stroke="#00FFE1" stroke-width="17.7102"/>
</g>
<path d="M1126.78 1505.41L1126.79 1505.42L1126.8 1505.43L1261.16 1640.69L1261.18 1640.71L1346.32 1725.84L1431.45 1640.71L1431.48 1640.69L1565.84 1505.43L1565.85 1505.42L1565.86 1505.41C1616.34 1454.94 1616.34 1374.63 1565.86 1324.15L1565.83 1324.13L1565.8 1324.1C1516.28 1273.73 1435.08 1273.65 1384.57 1324.15L1352.58 1356.14L1346.32 1362.4L1340.06 1356.14L1308.06 1324.15C1257.55 1273.65 1176.36 1273.73 1126.84 1324.1L1126.81 1324.13L1126.78 1324.15C1076.3 1374.63 1076.3 1454.94 1126.78 1505.41Z" stroke="#00FFE1" stroke-width="17.7102"/>
<g filter="url(#filter2_f_751_25162)">
<path d="M1123.95 1508.24L1123.96 1508.25L1123.97 1508.25L1258.33 1643.52L1258.35 1643.53L1346.32 1731.49L1434.29 1643.53L1434.3 1643.52L1568.67 1508.25L1568.68 1508.25L1568.68 1508.24C1620.73 1456.2 1620.73 1373.36 1568.68 1321.33L1568.67 1321.31L1568.65 1321.3C1517.55 1269.32 1433.81 1269.27 1381.75 1321.33L1349.75 1353.32L1346.32 1356.75L1342.89 1353.32L1310.89 1321.33C1258.83 1269.27 1175.08 1269.32 1123.98 1321.3L1123.97 1321.31L1123.95 1321.33C1071.91 1373.36 1071.91 1456.2 1123.95 1508.24Z" stroke="#96FFC0" stroke-width="9.71206"/>
</g>
<path fill-rule="evenodd" clip-rule="evenodd" d="M1396.17 1836.27L1396.22 1836.32L1411.33 1821.21L1433.54 1798.85C1442.45 1789.94 1442.45 1775.74 1433.54 1766.83C1424.78 1757.91 1410.42 1757.91 1401.51 1766.83L1396.22 1772.11L1390.93 1766.83C1382.01 1757.91 1367.66 1757.91 1358.9 1766.83C1357.91 1767.82 1357.02 1768.87 1356.25 1769.98L1091.06 2035.17L1144.16 2088.28L1396.17 1836.27Z" fill="url(#paint5_radial_751_25162)"/>
<path d="M1358.9 1798.85L1381.11 1821.21L1396.22 1836.32L1411.33 1821.21L1433.54 1798.85C1442.45 1789.94 1442.45 1775.74 1433.54 1766.82C1424.78 1757.91 1410.42 1757.91 1401.51 1766.82L1396.22 1772.11L1390.93 1766.82C1382.01 1757.91 1367.66 1757.91 1358.9 1766.82C1349.98 1775.74 1349.98 1789.94 1358.9 1798.85Z" fill="url(#paint6_radial_751_25162)"/>
<path fill-rule="evenodd" clip-rule="evenodd" d="M1231.63 1828.02L1231.92 1828.3L1320.89 1739.34L1451.68 1607.67C1504.18 1555.18 1504.18 1471.56 1451.68 1419.07C1400.08 1366.58 1315.55 1366.58 1263.06 1419.07L1231.92 1450.2L1200.78 1419.07C1148.28 1366.58 1063.75 1366.58 1012.15 1419.07C1006.31 1424.91 1001.12 1431.13 996.579 1437.65L237.926 2196.31L550.634 2509.02L1231.63 1828.02Z" fill="url(#paint7_radial_751_25162)"/>
<path d="M1012.15 1607.67L1142.94 1739.34L1231.92 1828.3L1320.89 1739.34L1451.68 1607.67C1504.18 1555.18 1504.18 1471.56 1451.68 1419.07C1400.08 1366.58 1315.55 1366.58 1263.06 1419.07L1231.92 1450.2L1200.78 1419.07C1148.28 1366.58 1063.75 1366.58 1012.15 1419.07C959.652 1471.56 959.652 1555.18 1012.15 1607.67Z" fill="url(#paint8_radial_751_25162)"/>
<g filter="url(#filter3_dd_751_25162)">
<path d="M1336.96 1560.2V1506.9H1362.56C1367.52 1506.9 1371.8 1507.71 1375.4 1509.33C1379.04 1510.96 1381.85 1513.29 1383.83 1516.34C1385.8 1519.33 1386.79 1522.89 1386.79 1527C1386.79 1531.11 1385.8 1534.67 1383.83 1537.66C1381.85 1540.66 1379.04 1542.99 1375.4 1544.67C1371.8 1546.29 1367.52 1547.1 1362.56 1547.1H1346.91L1354.88 1539.41V1560.2H1336.96ZM1354.88 1541.39L1346.91 1533.24H1361.42C1363.9 1533.24 1365.72 1532.69 1366.89 1531.57C1368.1 1530.45 1368.71 1528.93 1368.71 1527C1368.71 1525.07 1368.1 1523.55 1366.89 1522.43C1365.72 1521.31 1363.9 1520.76 1361.42 1520.76H1346.91L1354.88 1512.61V1541.39Z" fill="white"/>
<path d="M1305.08 1526.7H1328.8V1539.64H1305.08V1526.7ZM1306.3 1546.65H1332.9V1560.2H1288.67V1506.9H1331.91V1520.45H1306.3V1546.65Z" fill="white"/>
<path d="M1231.87 1560.2V1506.9H1283.45V1560.2H1265.78V1517.02L1269.66 1520.83H1245.66L1249.55 1517.02V1560.2H1231.87Z" fill="white"/>
<path d="M1158.88 1561.55C1154.62 1561.55 1150.67 1560.89 1147.02 1559.57C1143.43 1558.2 1140.29 1556.27 1137.6 1553.78C1134.96 1551.29 1132.91 1548.34 1131.44 1544.93C1129.97 1541.53 1129.24 1537.76 1129.24 1533.65C1129.24 1529.53 1129.97 1525.77 1131.44 1522.36C1132.91 1518.95 1134.96 1516.01 1137.6 1513.51C1140.29 1511.02 1143.43 1509.12 1147.02 1507.8C1150.67 1506.42 1154.62 1505.74 1158.88 1505.74C1164.1 1505.74 1168.71 1506.65 1172.71 1508.48C1176.77 1510.31 1180.11 1512.96 1182.75 1516.41L1171.42 1526.55C1169.85 1524.57 1168.1 1523.05 1166.18 1521.98C1164.3 1520.86 1162.17 1520.3 1159.79 1520.3C1157.92 1520.3 1156.22 1520.61 1154.7 1521.22C1153.18 1521.83 1151.86 1522.72 1150.75 1523.89C1149.68 1525.05 1148.85 1526.48 1148.24 1528.16C1147.63 1529.78 1147.33 1531.61 1147.33 1533.65C1147.33 1535.68 1147.63 1537.53 1148.24 1539.21C1148.85 1540.84 1149.68 1542.24 1150.75 1543.41C1151.86 1544.58 1153.18 1545.47 1154.7 1546.08C1156.22 1546.69 1157.92 1546.99 1159.79 1546.99C1162.17 1546.99 1164.3 1546.46 1166.18 1545.39C1168.1 1544.27 1169.85 1542.72 1171.42 1540.74L1182.75 1550.88C1180.11 1554.28 1176.77 1556.93 1172.71 1558.81C1168.71 1560.64 1164.1 1561.55 1158.88 1561.55Z" fill="white"/>
<path d="M1190.08 1524C1192.83 1524.71 1194.98 1524.96 1196.54 1524.73C1198.09 1524.47 1199.47 1523.52 1200.66 1521.88L1202.93 1518.7L1204.26 1517.24L1217.78 1489.71H1232.96L1214.25 1524.67C1212.21 1528.47 1209.74 1531.44 1206.86 1533.56C1204.02 1535.64 1200.86 1536.83 1197.4 1537.14C1193.94 1537.45 1190.28 1536.83 1186.41 1535.28L1190.08 1524ZM1204.06 1529.51L1182.35 1489.71H1198.93L1212.58 1518.7L1204.06 1529.51Z" fill="white"/>
<path d="M1290.74 1672.46C1288.49 1672.46 1286.19 1672.11 1283.83 1671.41C1281.53 1670.76 1279.68 1669.89 1278.28 1668.79L1283.91 1657.17C1284.76 1657.82 1285.71 1658.34 1286.76 1658.74C1287.86 1659.14 1288.91 1659.34 1289.91 1659.34C1291.41 1659.34 1292.57 1659.02 1293.37 1658.37C1294.17 1657.77 1294.82 1656.85 1295.32 1655.6L1297.04 1651.25L1298.24 1649.6L1311.38 1616.18H1327.44L1310.55 1657.99C1309.05 1661.74 1307.3 1664.66 1305.3 1666.76C1303.35 1668.86 1301.15 1670.34 1298.69 1671.18C1296.29 1672.03 1293.64 1672.46 1290.74 1672.46ZM1294.72 1659.04L1276.85 1616.18H1294.27L1306.57 1648.1L1294.72 1659.04Z" fill="white"/>
<path d="M1255.18 1658.01C1250.54 1658.01 1246.43 1657.11 1242.84 1655.3C1239.3 1653.45 1236.51 1650.92 1234.47 1647.72C1232.43 1644.51 1231.41 1640.83 1231.41 1636.67C1231.41 1632.52 1232.43 1628.84 1234.47 1625.63C1236.51 1622.43 1239.3 1619.92 1242.84 1618.12C1246.43 1616.32 1250.54 1615.42 1255.18 1615.42C1259.81 1615.42 1263.92 1616.32 1267.51 1618.12C1271.1 1619.92 1273.89 1622.43 1275.88 1625.63C1277.93 1628.84 1278.95 1632.52 1278.95 1636.67C1278.95 1640.83 1277.93 1644.51 1275.88 1647.72C1273.89 1650.92 1271.1 1653.45 1267.51 1655.3C1263.92 1657.11 1259.81 1658.01 1255.18 1658.01ZM1255.18 1644.79C1256.42 1644.79 1257.54 1644.49 1258.54 1643.89C1259.54 1643.28 1260.34 1642.38 1260.93 1641.18C1261.53 1639.93 1261.83 1638.43 1261.83 1636.67C1261.83 1634.87 1261.53 1633.39 1260.93 1632.24C1260.34 1631.04 1259.54 1630.14 1258.54 1629.54C1257.54 1628.94 1256.42 1628.64 1255.18 1628.64C1253.93 1628.64 1252.81 1628.94 1251.81 1629.54C1250.82 1630.14 1250.02 1631.04 1249.42 1632.24C1248.82 1633.39 1248.52 1634.87 1248.52 1636.67C1248.52 1638.43 1248.82 1639.93 1249.42 1641.18C1250.02 1642.38 1250.82 1643.28 1251.81 1643.89C1252.81 1644.49 1253.93 1644.79 1255.18 1644.79Z" fill="white"/>
<path d="M1188.77 1643.96L1185.09 1647.64V1616.18H1201.99V1647.64L1198.24 1643.96H1214.08L1210.4 1647.64V1616.18H1227.22V1657.25H1159.71V1616.18H1176.61V1647.64L1172.93 1643.96H1188.77Z" fill="white"/>
<path d="M1260.15 1608.95L1248.94 1590.19L1262.54 1582.27L1280.02 1608.95H1260.15ZM1231.91 1608.95V1568.07H1248.8V1608.95H1231.91ZM1243.86 1595.35V1582.42H1259.11V1595.35H1243.86ZM1264.26 1590.34L1248.42 1588.85L1261.42 1568.07H1279.2L1264.26 1590.34Z" fill="white"/>
<path d="M1180.57 1609.14V1568.07H1197.42V1586.68L1211.58 1568.07H1227.16V1609.14H1210.3V1590.57L1196.22 1609.14H1180.57Z" fill="white"/>
<path d="M1160.25 1608.58V1601.29L1159.05 1599.34V1585.52C1159.05 1583.52 1158.43 1581.99 1157.18 1580.94C1155.98 1579.88 1154 1579.36 1151.25 1579.36C1149.4 1579.36 1147.53 1579.66 1145.63 1580.26C1143.73 1580.81 1142.1 1581.59 1140.75 1582.59L1135.35 1571.4C1137.75 1569.89 1140.63 1568.74 1143.98 1567.94C1147.33 1567.14 1150.6 1566.74 1153.8 1566.74C1160.85 1566.74 1166.3 1568.32 1170.15 1571.47C1174.05 1574.63 1176 1579.63 1176 1586.5V1608.58H1160.25ZM1148.63 1609.33C1145.28 1609.33 1142.48 1608.76 1140.23 1607.6C1137.98 1606.45 1136.28 1604.92 1135.13 1603.02C1133.98 1601.07 1133.4 1598.91 1133.4 1596.56C1133.4 1593.91 1134.08 1591.65 1135.43 1589.8C1136.78 1587.95 1138.83 1586.55 1141.58 1585.59C1144.38 1584.64 1147.9 1584.17 1152.15 1584.17H1160.7V1592.35H1154.85C1153.05 1592.35 1151.73 1592.65 1150.88 1593.26C1150.08 1593.81 1149.68 1594.66 1149.68 1595.81C1149.68 1596.76 1150.03 1597.56 1150.73 1598.21C1151.48 1598.81 1152.48 1599.12 1153.73 1599.12C1154.88 1599.12 1155.93 1598.81 1156.88 1598.21C1157.88 1597.56 1158.6 1596.56 1159.05 1595.21L1161.23 1600.24C1160.58 1603.3 1159.2 1605.58 1157.1 1607.08C1155 1608.58 1152.18 1609.33 1148.63 1609.33Z" fill="white"/>
<path d="M1081.87 1608.58L1082.54 1594.84C1082.84 1594.89 1083.14 1594.94 1083.44 1594.99C1083.74 1594.99 1084.02 1594.99 1084.27 1594.99C1085.37 1594.99 1086.24 1594.79 1086.89 1594.39C1087.54 1593.94 1088.04 1593.31 1088.39 1592.51C1088.79 1591.66 1089.06 1590.66 1089.21 1589.51C1089.36 1588.3 1089.46 1586.93 1089.51 1585.38L1090.11 1567.5H1129.22V1608.58H1112.29V1577.19L1115.96 1580.72H1101.27L1104.72 1576.96L1104.35 1586.05C1104.2 1589.76 1103.87 1593.09 1103.37 1596.04C1102.87 1598.95 1102.07 1601.42 1100.97 1603.48C1099.93 1605.48 1098.48 1607.03 1096.63 1608.13C1094.83 1609.19 1092.53 1609.71 1089.74 1609.71C1088.64 1609.71 1087.41 1609.61 1086.06 1609.41C1084.77 1609.21 1083.37 1608.94 1081.87 1608.58Z" fill="white"/>
<path d="M1217.18 1552.4L1210.62 1558.96L1206.16 1563.39L1201.69 1558.96L1195.14 1552.4C1192.5 1549.78 1192.5 1545.62 1195.14 1543.01C1197.72 1540.39 1201.96 1540.39 1204.59 1543.01L1206.16 1544.56L1207.72 1543.01C1210.35 1540.39 1214.59 1540.39 1217.18 1543.01C1219.81 1545.62 1219.81 1549.78 1217.18 1552.4Z" fill="#52FF00"/>
</g>
<path d="M760.604 2076.88L1063.18 1764.92L997.561 1715.56L704.72 2019.22L760.604 2076.88Z" fill="url(#paint9_linear_751_25162)"/>
<path d="M1038.14 1685.22L1047.74 1715.71H1078.81L1053.67 1734.56L1063.28 1765.05L1038.14 1746.2L1013 1765.05L1022.6 1734.56L997.463 1715.71H1028.54L1038.14 1685.22Z" fill="url(#paint10_radial_751_25162)"/>
<path fill-rule="evenodd" clip-rule="evenodd" d="M1076.99 1847.91L1077.01 1847.93L1087.15 1837.79L1102.06 1822.78C1108.04 1816.8 1108.04 1807.26 1102.06 1801.28C1096.17 1795.3 1086.54 1795.3 1080.56 1801.28L1077.01 1804.83L1073.46 1801.28C1067.47 1795.3 1057.84 1795.3 1051.96 1801.28C1051.29 1801.95 1050.69 1802.66 1050.18 1803.41L957.45 1896.13L993.111 1931.79L1076.99 1847.91Z" fill="url(#paint11_radial_751_25162)"/>
<path d="M1051.96 1822.78L1066.86 1837.79L1077.01 1847.93L1087.15 1837.79L1102.06 1822.78C1108.04 1816.8 1108.04 1807.26 1102.06 1801.28C1096.17 1795.3 1086.54 1795.3 1080.56 1801.28L1077.01 1804.83L1073.46 1801.28C1067.47 1795.3 1057.84 1795.3 1051.96 1801.28C1045.97 1807.26 1045.97 1816.8 1051.96 1822.78Z" fill="url(#paint12_radial_751_25162)"/>
<path d="M522.276 2403.19L1002.89 1922.95L898.668 1846.96L433.507 2314.42L522.276 2403.19Z" fill="url(#paint13_linear_751_25162)"/>
<path d="M963.123 1800.25L978.375 1847.19H1027.73L987.802 1876.2L1003.05 1923.15L963.123 1894.13L923.193 1923.15L938.445 1876.2L898.514 1847.19H947.871L963.123 1800.25Z" fill="url(#paint14_radial_751_25162)"/>
<path d="M1147.05 1879.54L1149.34 1909.66L1179.46 1911.95L1149.34 1914.24L1147.05 1944.36L1144.76 1914.24L1114.64 1911.95L1144.76 1909.66L1147.05 1879.54Z" fill="url(#paint15_radial_751_25162)"/>
<defs>
<filter id="filter0_f_751_25162" x="253.059" y="0.228516" width="2306" height="2324" filterUnits="userSpaceOnUse" color-interpolation-filters="sRGB">
<feFlood flood-opacity="0" result="BackgroundImageFix"/>
<feBlend mode="normal" in="SourceGraphic" in2="BackgroundImageFix" result="shape"/>
<feGaussianBlur stdDeviation="300" result="effect1_foregroundBlur_751_25162"/>
</filter>
<filter id="filter1_f_751_25162" x="997.799" y="1195.18" width="697.04" height="625.448" filterUnits="userSpaceOnUse" color-interpolation-filters="sRGB">
<feFlood flood-opacity="0" result="BackgroundImageFix"/>
<feBlend mode="normal" in="SourceGraphic" in2="BackgroundImageFix" result="shape"/>
<feGaussianBlur stdDeviation="41.1334" result="effect1_foregroundBlur_751_25162"/>
</filter>
<filter id="filter2_f_751_25162" x="1072.07" y="1269.45" width="548.502" height="476.91" filterUnits="userSpaceOnUse" color-interpolation-filters="sRGB">
<feFlood flood-opacity="0" result="BackgroundImageFix"/>
<feBlend mode="normal" in="SourceGraphic" in2="BackgroundImageFix" result="shape"/>
<feGaussianBlur stdDeviation="3.99908" result="effect1_foregroundBlur_751_25162"/>
</filter>
<filter id="filter3_dd_751_25162" x="1079.12" y="1486.41" width="338.991" height="216.82" filterUnits="userSpaceOnUse" color-interpolation-filters="sRGB">
<feFlood flood-opacity="0" result="BackgroundImageFix"/>
<feColorMatrix in="SourceAlpha" type="matrix" values="0 0 0 0 0 0 0 0 0 0 0 0 0 0 0 0 0 0 127 0" result="hardAlpha"/>
<feOffset dx="7.69267" dy="7.14319"/>
<feGaussianBlur stdDeviation="5.22002"/>
<feColorMatrix type="matrix" values="0 0 0 0 0.270588 0 0 0 0 0 0 0 0 0 0.4 0 0 0 0.15 0"/>
<feBlend mode="normal" in2="BackgroundImageFix" result="effect1_dropShadow_751_25162"/>
<feColorMatrix in="SourceAlpha" type="matrix" values="0 0 0 0 0 0 0 0 0 0 0 0 0 0 0 0 0 0 127 0" result="hardAlpha"/>
<feOffset dx="17.0338" dy="16.4843"/>
<feGaussianBlur stdDeviation="7.14319"/>
<feColorMatrix type="matrix" values="0 0 0 0 0.270588 0 0 0 0 0 0 0 0 0 0.4 0 0 0 0.15 0"/>
<feBlend mode="normal" in2="effect1_dropShadow_751_25162" result="effect2_dropShadow_751_25162"/>
<feBlend mode="normal" in="SourceGraphic" in2="effect2_dropShadow_751_25162" result="shape"/>
</filter>
<linearGradient id="paint0_linear_751_25162" x1="-94.0516" y1="734.312" x2="2403.5" y2="598.211" gradientUnits="userSpaceOnUse">
<stop stop-color="#02D9F7"/>
<stop offset="0.65" stop-color="#A000FF" stop-opacity="0"/>
</linearGradient>
<linearGradient id="paint1_linear_751_25162" x1="-37.9905" y1="117.069" x2="954.919" y2="-20.0212" gradientUnits="userSpaceOnUse">
<stop stop-color="#FF0099"/>
<stop offset="0.65" stop-color="#A000FF" stop-opacity="0"/>
</linearGradient>
<radialGradient id="paint2_radial_751_25162" cx="0" cy="0" r="1" gradientUnits="userSpaceOnUse" gradientTransform="translate(935.216 1312.2) rotate(137.402) scale(56.1262 70.5335)">
<stop stop-color="#FFE4AD"/>
<stop offset="1" stop-color="#FFEC2D"/>
</radialGradient>
<radialGradient id="paint3_radial_751_25162" cx="0" cy="0" r="1" gradientUnits="userSpaceOnUse" gradientTransform="translate(1315.44 1873.88) rotate(49.4615) scale(88.2062 121.811)">
<stop stop-color="#FF00D6"/>
<stop offset="0.562168" stop-color="#FF004D"/>
<stop offset="1" stop-color="#FF6291"/>
</radialGradient>
<linearGradient id="paint4_linear_751_25162" x1="1239.57" y1="1370.39" x2="622.291" y2="2043.26" gradientUnits="userSpaceOnUse">
<stop stop-color="#0CFFDE"/>
<stop offset="0.65" stop-color="#0CFFDE" stop-opacity="0"/>
</linearGradient>
<radialGradient id="paint5_radial_751_25162" cx="0" cy="0" r="1" gradientUnits="userSpaceOnUse" gradientTransform="translate(1407.59 1773.51) rotate(137.084) scale(184.545 257.78)">
<stop stop-color="#009FF0"/>
<stop offset="0.562168" stop-color="#00F0EA" stop-opacity="0.1"/>
<stop offset="1" stop-color="#0074F0" stop-opacity="0"/>
</radialGradient>
<radialGradient id="paint6_radial_751_25162" cx="0" cy="0" r="1" gradientUnits="userSpaceOnUse" gradientTransform="translate(1440.23 1753.3) rotate(147.075) scale(152.748 213.51)">
<stop stop-color="#00F0D6"/>
<stop offset="0.562168" stop-color="#0088F0"/>
<stop offset="1" stop-color="#52B4FF"/>
</radialGradient>
<radialGradient id="paint7_radial_751_25162" cx="0" cy="0" r="1" gradientUnits="userSpaceOnUse" gradientTransform="translate(1298.9 1458.43) rotate(137.084) scale(1086.69 1517.94)">
<stop stop-color="#FF0065"/>
<stop offset="0.562168" stop-color="#FF00C1" stop-opacity="0.1"/>
<stop offset="1" stop-color="#FF0037" stop-opacity="0"/>
</radialGradient>
<radialGradient id="paint8_radial_751_25162" cx="0" cy="0" r="1" gradientUnits="userSpaceOnUse" gradientTransform="translate(1385.21 1422.83) rotate(134.657) scale(469.723 656.579)">
<stop stop-color="#FF00D6"/>
<stop offset="0.562168" stop-color="#FF004D"/>
<stop offset="1" stop-color="#FF6291"/>
</radialGradient>
<linearGradient id="paint9_linear_751_25162" x1="805.497" y1="1956.72" x2="1032.7" y2="1734.13" gradientUnits="userSpaceOnUse">
<stop stop-color="#5900FF" stop-opacity="0"/>
<stop offset="0.473957" stop-color="#005EFF" stop-opacity="0.31"/>
<stop offset="1" stop-color="#00FFBA"/>
</linearGradient>
<radialGradient id="paint10_radial_751_25162" cx="0" cy="0" r="1" gradientUnits="userSpaceOnUse" gradientTransform="translate(1012.84 1693.7) rotate(50.346) scale(85.3816 117.283)">
<stop stop-color="#026FF7"/>
<stop offset="0.562168" stop-color="#FF00EF"/>
<stop offset="1" stop-color="#FF002B"/>
</radialGradient>
<radialGradient id="paint11_radial_751_25162" cx="0" cy="0" r="1" gradientUnits="userSpaceOnUse" gradientTransform="translate(1083.95 1806.09) rotate(136.953) scale(128.069 178.95)">
<stop stop-color="#FF00C7"/>
<stop offset="0.562168" stop-color="#DB00FF" stop-opacity="0.1"/>
<stop offset="1" stop-color="#FF0099" stop-opacity="0"/>
</radialGradient>
<radialGradient id="paint12_radial_751_25162" cx="0" cy="0" r="1" gradientUnits="userSpaceOnUse" gradientTransform="translate(1094.48 1801.71) rotate(134.657) scale(53.5421 74.8411)">
<stop stop-color="#02D9F7"/>
<stop offset="0.562168" stop-color="#A000FF"/>
<stop offset="1" stop-color="#FF0099"/>
</radialGradient>
<linearGradient id="paint13_linear_751_25162" x1="611.319" y1="2201.27" x2="943.4" y2="1864.59" gradientUnits="userSpaceOnUse">
<stop stop-color="#FF8C00" stop-opacity="0"/>
<stop offset="0.571863" stop-color="#FF002B" stop-opacity="0.31"/>
<stop offset="1" stop-color="#ED00FF"/>
</linearGradient>
<radialGradient id="paint14_radial_751_25162" cx="0" cy="0" r="1" gradientUnits="userSpaceOnUse" gradientTransform="translate(922.937 1813.32) rotate(49.4615) scale(133.16 183.891)">
<stop stop-color="#FF3E00"/>
<stop offset="0.562168" stop-color="#FFC800"/>
<stop offset="1" stop-color="#FFDD62"/>
</radialGradient>
<radialGradient id="paint15_radial_751_25162" cx="0" cy="0" r="1" gradientUnits="userSpaceOnUse" gradientTransform="translate(1147.06 1892.27) rotate(136.73) scale(42.7677 53.8372)">
<stop stop-color="#ADFFEE"/>
<stop offset="1" stop-color="#2DF9FF"/>
</radialGradient>
</defs>
</svg>
