<svg width="4228" height="3944" viewBox="0 0 4228 3944" fill="none" xmlns="http://www.w3.org/2000/svg">
<g filter="url(#filter0_f_2525_42495)">
<ellipse cx="2770" cy="1458" rx="553" ry="562" fill="#6F00FD"/>
</g>
<g filter="url(#filter1_f_2525_42495)">
<ellipse cx="1420" cy="2573.5" rx="515" ry="465.5" fill="#090088"/>
</g>
<rect width="2206.77" height="838.725" rx="419.363" transform="matrix(-0.707107 0.707107 0.707107 0.707107 2764.42 918)" fill="url(#paint0_linear_2525_42495)"/>
<rect width="1617.81" height="735.736" rx="150.947" transform="matrix(-0.707107 0.707107 0.707107 0.707107 2174.96 702)" fill="url(#paint1_linear_2525_42495)"/>
<rect width="1646.58" height="962.194" rx="481.097" transform="matrix(-0.707107 0.707107 0.707107 0.707107 2919.16 1002.85)" fill="url(#paint2_linear_2525_42495)"/>
<rect width="2566.57" height="450.877" rx="168.438" transform="matrix(-0.709226 0.704981 0.709226 0.704981 3506.5 1062.5)" fill="url(#paint3_linear_2525_42495)"/>
<g filter="url(#filter2_f_2525_42495)">
<ellipse cx="2807.79" cy="1428.08" rx="514.789" ry="523.08" fill="#090088"/>
</g>
<path fill-rule="evenodd" clip-rule="evenodd" d="M2406.39 2206.14L2406.65 2206.39L2484.67 2128.37L2599.36 2012.91C2645.4 1966.88 2645.4 1893.55 2599.36 1847.52C2554.11 1801.49 2479.99 1801.49 2433.95 1847.52L2406.65 1874.83L2379.34 1847.52C2333.3 1801.49 2259.18 1801.49 2213.93 1847.52C2208.81 1852.64 2204.26 1858.09 2200.28 1863.81L1535 2529.09L1809.22 2803.31L2406.39 2206.14Z" fill="url(#paint4_radial_2525_42495)"/>
<path d="M2213.93 2012.91L2328.62 2128.37L2406.65 2206.39L2484.67 2128.37L2599.36 2012.91C2645.4 1966.88 2645.4 1893.55 2599.36 1847.52C2554.11 1801.49 2479.99 1801.49 2433.95 1847.52L2406.65 1874.83L2379.34 1847.52C2333.3 1801.49 2259.18 1801.49 2213.93 1847.52C2167.89 1893.55 2167.89 1966.88 2213.93 2012.91Z" fill="url(#paint5_radial_2525_42495)"/>
<g filter="url(#filter3_dd_2525_42495)">
<path d="M2498.75 1971.29V1924.55H2521.2C2525.55 1924.55 2529.31 1925.26 2532.46 1926.68C2535.66 1928.11 2538.12 1930.16 2539.85 1932.83C2541.59 1935.45 2542.45 1938.57 2542.45 1942.18C2542.45 1945.78 2541.59 1948.9 2539.85 1951.53C2538.12 1954.15 2535.66 1956.2 2532.46 1957.67C2529.31 1959.09 2525.55 1959.81 2521.2 1959.81H2507.48L2514.47 1953.06V1971.29H2498.75ZM2514.47 1954.8L2507.48 1947.65H2520.2C2522.38 1947.65 2523.98 1947.16 2525 1946.18C2526.06 1945.2 2526.6 1943.87 2526.6 1942.18C2526.6 1940.48 2526.06 1939.15 2525 1938.17C2523.98 1937.19 2522.38 1936.7 2520.2 1936.7H2507.48L2514.47 1929.56V1954.8Z" fill="white"/>
<path d="M2470.8 1941.91H2491.6V1953.26H2470.8V1941.91ZM2471.87 1959.41H2495.2V1971.29H2456.41V1924.55H2494.33V1936.43H2471.87V1959.41Z" fill="white"/>
<path d="M2406.59 1971.29V1924.55H2451.82V1971.29H2436.32V1933.43L2439.73 1936.77H2418.69L2422.09 1933.43V1971.29H2406.59Z" fill="white"/>
<path d="M2342.59 1972.48C2338.85 1972.48 2335.39 1971.9 2332.19 1970.74C2329.03 1969.54 2326.28 1967.84 2323.93 1965.66C2321.61 1963.47 2319.82 1960.89 2318.53 1957.9C2317.24 1954.91 2316.59 1951.62 2316.59 1948C2316.59 1944.39 2317.24 1941.1 2318.53 1938.11C2319.82 1935.12 2321.61 1932.54 2323.93 1930.35C2326.28 1928.17 2329.03 1926.5 2332.19 1925.34C2335.39 1924.13 2338.85 1923.53 2342.59 1923.53C2347.16 1923.53 2351.21 1924.33 2354.72 1925.94C2358.27 1927.54 2361.2 1929.86 2363.51 1932.89L2353.58 1941.79C2352.21 1940.05 2350.67 1938.71 2348.98 1937.77C2347.34 1936.79 2345.47 1936.3 2343.39 1936.3C2341.74 1936.3 2340.25 1936.57 2338.92 1937.11C2337.59 1937.64 2336.43 1938.42 2335.46 1939.45C2334.52 1940.47 2333.79 1941.72 2333.26 1943.19C2332.72 1944.62 2332.46 1946.22 2332.46 1948C2332.46 1949.79 2332.72 1951.42 2333.26 1952.89C2333.79 1954.31 2334.52 1955.54 2335.46 1956.56C2336.43 1957.59 2337.59 1958.37 2338.92 1958.9C2340.25 1959.44 2341.74 1959.71 2343.39 1959.71C2345.47 1959.71 2347.34 1959.24 2348.98 1958.3C2350.67 1957.32 2352.21 1955.96 2353.58 1954.22L2363.51 1963.12C2361.2 1966.1 2358.27 1968.42 2354.72 1970.07C2351.21 1971.68 2347.16 1972.48 2342.59 1972.48Z" fill="white"/>
<path d="M2369.94 1939.55C2372.35 1940.17 2374.24 1940.38 2375.6 1940.19C2376.96 1939.95 2378.17 1939.12 2379.22 1937.68L2381.21 1934.89L2382.38 1933.61L2394.23 1909.47H2407.54L2391.14 1940.13C2389.34 1943.46 2387.18 1946.06 2384.65 1947.92C2382.16 1949.75 2379.4 1950.79 2376.36 1951.07C2373.32 1951.34 2370.11 1950.79 2366.73 1949.44L2369.94 1939.55ZM2382.2 1944.37L2363.16 1909.47H2377.7L2389.68 1934.89L2382.2 1944.37Z" fill="white"/>
<path d="M2458.22 2069.72C2456.25 2069.72 2454.23 2069.42 2452.17 2068.8C2450.15 2068.23 2448.53 2067.47 2447.3 2066.5L2452.23 2056.32C2452.98 2056.89 2453.81 2057.35 2454.73 2057.7C2455.7 2058.05 2456.62 2058.22 2457.5 2058.22C2458.81 2058.22 2459.82 2057.94 2460.53 2057.37C2461.23 2056.84 2461.8 2056.03 2462.24 2054.94L2463.75 2051.12L2464.8 2049.68L2476.32 2020.37H2490.41L2475.6 2057.04C2474.28 2060.32 2472.75 2062.89 2470.99 2064.73C2469.28 2066.57 2467.35 2067.86 2465.2 2068.61C2463.09 2069.35 2460.77 2069.72 2458.22 2069.72ZM2461.71 2057.96L2446.05 2020.37H2461.32L2472.11 2048.36L2461.71 2057.96Z" fill="white"/>
<path d="M2427.04 2057.05C2422.98 2057.05 2419.37 2056.26 2416.22 2054.68C2413.12 2053.06 2410.67 2050.84 2408.88 2048.03C2407.09 2045.22 2406.2 2041.99 2406.2 2038.35C2406.2 2034.7 2407.09 2031.47 2408.88 2028.66C2410.67 2025.85 2413.12 2023.66 2416.22 2022.07C2419.37 2020.49 2422.98 2019.7 2427.04 2019.7C2431.1 2019.7 2434.71 2020.49 2437.86 2022.07C2441 2023.66 2443.45 2025.85 2445.2 2028.66C2446.99 2031.47 2447.89 2034.7 2447.89 2038.35C2447.89 2041.99 2446.99 2045.22 2445.2 2048.03C2443.45 2050.84 2441 2053.06 2437.86 2054.68C2434.71 2056.26 2431.1 2057.05 2427.04 2057.05ZM2427.04 2045.46C2428.13 2045.46 2429.12 2045.2 2429.99 2044.67C2430.86 2044.14 2431.56 2043.35 2432.09 2042.3C2432.61 2041.2 2432.87 2039.88 2432.87 2038.35C2432.87 2036.76 2432.61 2035.47 2432.09 2034.46C2431.56 2033.4 2430.86 2032.61 2429.99 2032.09C2429.12 2031.56 2428.13 2031.3 2427.04 2031.3C2425.95 2031.3 2424.96 2031.56 2424.09 2032.09C2423.22 2032.61 2422.52 2033.4 2421.99 2034.46C2421.47 2035.47 2421.21 2036.76 2421.21 2038.35C2421.21 2039.88 2421.47 2041.2 2421.99 2042.3C2422.52 2043.35 2423.22 2044.14 2424.09 2044.67C2424.96 2045.2 2425.95 2045.46 2427.04 2045.46Z" fill="white"/>
<path d="M2368.81 2044.73L2365.59 2047.96V2020.37H2380.4V2047.96L2377.11 2044.73H2391L2387.78 2047.96V2020.37H2402.53V2056.38H2343.33V2020.37H2358.14V2047.96L2354.92 2044.73H2368.81Z" fill="white"/>
<path d="M2431.4 2014.03L2421.58 1997.58L2433.5 1990.63L2448.83 2014.03H2431.4ZM2406.64 2014.03V1978.18H2421.45V2014.03H2406.64ZM2417.12 2002.1V1990.76H2430.49V2002.1H2417.12ZM2435.01 1997.71L2421.12 1996.4L2432.52 1978.18H2448.11L2435.01 1997.71Z" fill="white"/>
<path d="M2361.61 2014.2V1978.18H2376.39V1994.5L2388.8 1978.18H2402.47V2014.2H2387.69V1997.91L2375.34 2014.2H2361.61Z" fill="white"/>
<path d="M2343.8 2013.71V2007.32L2342.75 2005.6V1993.48C2342.75 1991.73 2342.2 1990.39 2341.11 1989.47C2340.05 1988.54 2338.32 1988.08 2335.91 1988.08C2334.29 1988.08 2332.64 1988.35 2330.98 1988.87C2329.31 1989.36 2327.89 1990.04 2326.7 1990.91L2321.97 1981.1C2324.07 1979.78 2326.59 1978.77 2329.53 1978.07C2332.47 1977.37 2335.34 1977.02 2338.15 1977.02C2344.33 1977.02 2349.11 1978.4 2352.48 1981.17C2355.9 1983.93 2357.61 1988.32 2357.61 1994.34V2013.71H2343.8ZM2333.61 2014.37C2330.67 2014.37 2328.22 2013.86 2326.24 2012.85C2324.27 2011.84 2322.78 2010.5 2321.77 2008.83C2320.76 2007.12 2320.26 2005.23 2320.26 2003.17C2320.26 2000.84 2320.85 1998.86 2322.03 1997.24C2323.22 1995.61 2325.01 1994.38 2327.43 1993.55C2329.88 1992.72 2332.97 1992.3 2336.7 1992.3H2344.2V1999.48H2339.07C2337.49 1999.48 2336.33 1999.74 2335.58 2000.27C2334.88 2000.75 2334.53 2001.5 2334.53 2002.51C2334.53 2003.34 2334.84 2004.05 2335.45 2004.62C2336.11 2005.14 2336.98 2005.41 2338.08 2005.41C2339.09 2005.41 2340.01 2005.14 2340.84 2004.62C2341.72 2004.05 2342.35 2003.17 2342.75 2001.98L2344.66 2006.39C2344.09 2009.07 2342.88 2011.07 2341.04 2012.39C2339.2 2013.71 2336.72 2014.37 2333.61 2014.37Z" fill="white"/>
<path d="M2275.06 2013.71L2275.65 2001.65C2275.92 2001.7 2276.18 2001.74 2276.44 2001.79C2276.71 2001.79 2276.95 2001.79 2277.16 2001.79C2278.13 2001.79 2278.9 2001.61 2279.46 2001.26C2280.03 2000.86 2280.47 2000.32 2280.78 1999.61C2281.13 1998.87 2281.37 1997.99 2281.5 1996.98C2281.63 1995.92 2281.72 1994.72 2281.76 1993.36L2282.29 1977.68H2316.59V2013.71H2301.74V1986.18L2304.96 1989.27H2292.08L2295.1 1985.98L2294.77 1993.95C2294.64 1997.2 2294.36 2000.12 2293.92 2002.71C2293.48 2005.26 2292.78 2007.43 2291.82 2009.23C2290.9 2010.99 2289.63 2012.35 2288.01 2013.31C2286.43 2014.23 2284.41 2014.7 2281.96 2014.7C2281 2014.7 2279.92 2014.61 2278.74 2014.43C2277.6 2014.26 2276.38 2014.02 2275.06 2013.71Z" fill="white"/>
<path d="M2393.71 1964.44L2387.96 1970.19L2384.04 1974.08L2380.13 1970.19L2374.38 1964.44C2372.07 1962.15 2372.07 1958.5 2374.38 1956.2C2376.65 1953.91 2380.37 1953.91 2382.67 1956.2L2384.04 1957.56L2385.41 1956.2C2387.72 1953.91 2391.44 1953.91 2393.71 1956.2C2396.02 1958.5 2396.02 1962.15 2393.71 1964.44Z" fill="#52FF00"/>
</g>
<path fill-rule="evenodd" clip-rule="evenodd" d="M2490.67 1771.75L2490.71 1771.79L2503.51 1758.99L2522.33 1740.04C2529.89 1732.49 2529.89 1720.45 2522.33 1712.9C2514.91 1705.35 2502.74 1705.35 2495.19 1712.9L2490.71 1717.38L2486.23 1712.9C2478.67 1705.35 2466.51 1705.35 2459.08 1712.9C2458.24 1713.74 2457.49 1714.64 2456.84 1715.57L2232.11 1940.3L2277.11 1985.3L2490.67 1771.75Z" fill="url(#paint6_radial_2525_42495)"/>
<path d="M2459.08 1740.04L2477.9 1758.99L2490.71 1771.79L2503.51 1758.99L2522.33 1740.04C2529.89 1732.49 2529.89 1720.45 2522.33 1712.9C2514.91 1705.35 2502.74 1705.35 2495.19 1712.9L2490.71 1717.38L2486.23 1712.9C2478.67 1705.35 2466.51 1705.35 2459.08 1712.9C2451.53 1720.45 2451.53 1732.49 2459.08 1740.04Z" fill="url(#paint7_radial_2525_42495)"/>
<path d="M2154.89 2037.54L2421.55 1771.08L2363.73 1728.92L2105.63 1988.28L2154.89 2037.54Z" fill="url(#paint8_linear_2525_42495)"/>
<path d="M2399.49 1703L2407.95 1729.04H2435.34L2413.18 1745.14L2421.64 1771.19L2399.49 1755.09L2377.33 1771.19L2385.8 1745.14L2363.64 1729.04H2391.03L2399.49 1703Z" fill="url(#paint9_radial_2525_42495)"/>
<path d="M1830.06 2524.79L2135.05 2210.34L2068.91 2160.58L1773.73 2466.67L1830.06 2524.79Z" fill="url(#paint10_linear_2525_42495)"/>
<path d="M2109.81 2130L2119.49 2160.74L2150.81 2160.74L2125.47 2179.73L2135.15 2210.47L2109.81 2191.47L2084.47 2210.47L2094.15 2179.73L2068.81 2160.74L2100.13 2160.74L2109.81 2130Z" fill="url(#paint11_radial_2525_42495)"/>
<path d="M1755.48 2691.19L2121.51 2325.45L2042.14 2267.58L1687.88 2623.59L1755.48 2691.19Z" fill="url(#paint12_linear_2525_42495)"/>
<path d="M2091.22 2232L2102.84 2267.75H2140.43L2110.02 2289.84L2121.63 2325.59L2091.22 2303.5L2060.81 2325.59L2072.43 2289.84L2042.02 2267.75H2079.61L2091.22 2232Z" fill="url(#paint13_radial_2525_42495)"/>
<path d="M2183 1757L2185.05 1783.02L2212 1785L2185.05 1786.98L2183 1813L2180.95 1786.98L2154 1785L2180.95 1783.02L2183 1757Z" fill="url(#paint14_radial_2525_42495)"/>
<path d="M2658.5 2054L2659.95 2072.59L2679 2074L2659.95 2075.41L2658.5 2094L2657.05 2075.41L2638 2074L2657.05 2072.59L2658.5 2054Z" fill="url(#paint15_radial_2525_42495)"/>
<path d="M2262.5 2146L2264.16 2167.84L2286 2169.5L2264.16 2171.16L2262.5 2193L2260.84 2171.16L2239 2169.5L2260.84 2167.84L2262.5 2146Z" fill="url(#paint16_radial_2525_42495)"/>
<path fill-rule="evenodd" clip-rule="evenodd" d="M2542.77 2278.47L2542.73 2278.51L2519.82 2255.6L2486.14 2221.7C2472.62 2208.18 2472.62 2186.65 2486.14 2173.14C2499.43 2159.62 2521.19 2159.62 2534.71 2173.14L2542.73 2181.15L2550.74 2173.14C2564.26 2159.62 2586.02 2159.62 2599.31 2173.14C2600.81 2174.63 2602.13 2176.22 2603.3 2177.89L2812.8 2387.39L2732.25 2467.95L2542.77 2278.47Z" fill="url(#paint17_radial_2525_42495)"/>
<path d="M2599.31 2221.7L2565.64 2255.6L2542.73 2278.51L2519.82 2255.6L2486.14 2221.7C2472.62 2208.18 2472.62 2186.65 2486.14 2173.14C2499.43 2159.62 2521.19 2159.62 2534.71 2173.14L2542.73 2181.15L2550.74 2173.14C2564.26 2159.62 2586.02 2159.62 2599.31 2173.14C2612.83 2186.65 2612.83 2208.18 2599.31 2221.7Z" fill="url(#paint18_radial_2525_42495)"/>
<path d="M1611.5 2146L1614.01 2178.99L1647 2181.5L1614.01 2184.01L1611.5 2217L1608.99 2184.01L1576 2181.5L1608.99 2178.99L1611.5 2146Z" fill="url(#paint19_radial_2525_42495)"/>
<path fill-rule="evenodd" clip-rule="evenodd" d="M1807.29 2282.95L1807.33 2282.99L1820.42 2269.9L1839.66 2250.54C1847.38 2242.81 1847.38 2230.51 1839.66 2222.79C1832.07 2215.07 1819.63 2215.07 1811.91 2222.79L1807.33 2227.37L1802.75 2222.79C1795.03 2215.07 1782.59 2215.07 1775 2222.79C1774.14 2223.65 1773.37 2224.57 1772.71 2225.53L1543 2455.24L1589 2501.24L1807.29 2282.95Z" fill="url(#paint20_radial_2525_42495)"/>
<path d="M1775 2250.54L1794.24 2269.9L1807.33 2282.99L1820.42 2269.9L1839.66 2250.54C1847.38 2242.81 1847.38 2230.51 1839.66 2222.79C1832.07 2215.07 1819.63 2215.07 1811.91 2222.79L1807.33 2227.37L1802.75 2222.79C1795.03 2215.07 1782.59 2215.07 1775 2222.79C1767.28 2230.51 1767.28 2242.81 1775 2250.54Z" fill="url(#paint21_radial_2525_42495)"/>
<defs>
<filter id="filter0_f_2525_42495" x="1617" y="296" width="2306" height="2324" filterUnits="userSpaceOnUse" color-interpolation-filters="sRGB">
<feFlood flood-opacity="0" result="BackgroundImageFix"/>
<feBlend mode="normal" in="SourceGraphic" in2="BackgroundImageFix" result="shape"/>
<feGaussianBlur stdDeviation="300" result="effect1_foregroundBlur_2525_42495"/>
</filter>
<filter id="filter1_f_2525_42495" x="0.538391" y="1203.54" width="2838.92" height="2739.92" filterUnits="userSpaceOnUse" color-interpolation-filters="sRGB">
<feFlood flood-opacity="0" result="BackgroundImageFix"/>
<feBlend mode="normal" in="SourceGraphic" in2="BackgroundImageFix" result="shape"/>
<feGaussianBlur stdDeviation="452.231" result="effect1_foregroundBlur_2525_42495"/>
</filter>
<filter id="filter2_f_2525_42495" x="1388.54" y="0.538391" width="2838.5" height="2855.09" filterUnits="userSpaceOnUse" color-interpolation-filters="sRGB">
<feFlood flood-opacity="0" result="BackgroundImageFix"/>
<feBlend mode="normal" in="SourceGraphic" in2="BackgroundImageFix" result="shape"/>
<feGaussianBlur stdDeviation="452.231" result="effect1_foregroundBlur_2525_42495"/>
</filter>
<filter id="filter3_dd_2525_42495" x="2272.32" y="1906.17" width="301.458" height="194.318" filterUnits="userSpaceOnUse" color-interpolation-filters="sRGB">
<feFlood flood-opacity="0" result="BackgroundImageFix"/>
<feColorMatrix in="SourceAlpha" type="matrix" values="0 0 0 0 0 0 0 0 0 0 0 0 0 0 0 0 0 0 127 0" result="hardAlpha"/>
<feOffset dx="7.69267" dy="7.14319"/>
<feGaussianBlur stdDeviation="5.22002"/>
<feColorMatrix type="matrix" values="0 0 0 0 0.270588 0 0 0 0 0 0 0 0 0 0.4 0 0 0 0.15 0"/>
<feBlend mode="normal" in2="BackgroundImageFix" result="effect1_dropShadow_2525_42495"/>
<feColorMatrix in="SourceAlpha" type="matrix" values="0 0 0 0 0 0 0 0 0 0 0 0 0 0 0 0 0 0 127 0" result="hardAlpha"/>
<feOffset dx="17.0338" dy="16.4843"/>
<feGaussianBlur stdDeviation="7.14319"/>
<feColorMatrix type="matrix" values="0 0 0 0 0.270588 0 0 0 0 0 0 0 0 0 0.4 0 0 0 0.15 0"/>
<feBlend mode="normal" in2="effect1_dropShadow_2525_42495" result="effect2_dropShadow_2525_42495"/>
<feBlend mode="normal" in="SourceGraphic" in2="effect2_dropShadow_2525_42495" result="shape"/>
</filter>
<linearGradient id="paint0_linear_2525_42495" x1="-94.0516" y1="614.828" x2="2400.35" y2="452.482" gradientUnits="userSpaceOnUse">
<stop stop-color="#02D9F7"/>
<stop offset="0.65" stop-color="#A000FF" stop-opacity="0"/>
</linearGradient>
<linearGradient id="paint1_linear_2525_42495" x1="-68.9502" y1="539.332" x2="1762.05" y2="439.739" gradientUnits="userSpaceOnUse">
<stop stop-color="#02D9F7"/>
<stop offset="0.65" stop-color="#A000FF" stop-opacity="0"/>
</linearGradient>
<linearGradient id="paint2_linear_2525_42495" x1="-70.1767" y1="705.337" x2="1795.56" y2="626.359" gradientUnits="userSpaceOnUse">
<stop stop-color="#FF0099"/>
<stop offset="0.65" stop-color="#A000FF" stop-opacity="0"/>
</linearGradient>
<linearGradient id="paint3_linear_2525_42495" x1="-109.386" y1="330.516" x2="2747.36" y2="-71.7415" gradientUnits="userSpaceOnUse">
<stop stop-color="#FF0099"/>
<stop offset="0.65" stop-color="#A000FF" stop-opacity="0"/>
</linearGradient>
<radialGradient id="paint4_radial_2525_42495" cx="0" cy="0" r="1" gradientUnits="userSpaceOnUse" gradientTransform="translate(2368 1838) rotate(113.449) scale(691.072 965.32)">
<stop stop-color="#FF0065"/>
<stop offset="0.562168" stop-color="#FF00C1" stop-opacity="0.1"/>
<stop offset="1" stop-color="#FF0037" stop-opacity="0"/>
</radialGradient>
<radialGradient id="paint5_radial_2525_42495" cx="0" cy="0" r="1" gradientUnits="userSpaceOnUse" gradientTransform="translate(2541.07 1850.83) rotate(134.657) scale(411.908 575.765)">
<stop stop-color="#FF00D6"/>
<stop offset="0.562168" stop-color="#FF004D"/>
<stop offset="1" stop-color="#FF6291"/>
</radialGradient>
<radialGradient id="paint6_radial_2525_42495" cx="0" cy="0" r="1" gradientUnits="userSpaceOnUse" gradientTransform="translate(2500.35 1718.56) rotate(137.084) scale(156.386 218.446)">
<stop stop-color="#009FF0"/>
<stop offset="0.562168" stop-color="#00F0EA" stop-opacity="0.1"/>
<stop offset="1" stop-color="#0074F0" stop-opacity="0"/>
</radialGradient>
<radialGradient id="paint7_radial_2525_42495" cx="0" cy="0" r="1" gradientUnits="userSpaceOnUse" gradientTransform="translate(2528 1701.44) rotate(147.075) scale(129.439 180.93)">
<stop stop-color="#00F0D6"/>
<stop offset="0.562168" stop-color="#0088F0"/>
<stop offset="1" stop-color="#52B4FF"/>
</radialGradient>
<linearGradient id="paint8_linear_2525_42495" x1="2302.42" y1="1836.74" x2="2388.55" y2="1738.7" gradientUnits="userSpaceOnUse">
<stop stop-color="#FF8C00" stop-opacity="0"/>
<stop offset="0.473957" stop-color="#FF002B" stop-opacity="0.31"/>
<stop offset="1" stop-color="#ED00FF"/>
</linearGradient>
<radialGradient id="paint9_radial_2525_42495" cx="0" cy="0" r="1" gradientUnits="userSpaceOnUse" gradientTransform="translate(2377.19 1710.25) rotate(49.4615) scale(73.8827 102.031)">
<stop stop-color="#FF3E00"/>
<stop offset="0.562168" stop-color="#FFC800"/>
<stop offset="1" stop-color="#FFDD62"/>
</radialGradient>
<linearGradient id="paint10_linear_2525_42495" x1="1837.85" y1="2439.79" x2="2105.42" y2="2180.51" gradientUnits="userSpaceOnUse">
<stop stop-color="#5900FF" stop-opacity="0"/>
<stop offset="0.473957" stop-color="#005EFF" stop-opacity="0.31"/>
<stop offset="1" stop-color="#00FFBA"/>
</linearGradient>
<radialGradient id="paint11_radial_2525_42495" cx="0" cy="0" r="1" gradientUnits="userSpaceOnUse" gradientTransform="translate(2084.31 2138.55) rotate(50.346) scale(86.0638 118.22)">
<stop stop-color="#026FF7"/>
<stop offset="0.562168" stop-color="#FF00EF"/>
<stop offset="1" stop-color="#FF002B"/>
</radialGradient>
<linearGradient id="paint12_linear_2525_42495" x1="1957.99" y1="2415.58" x2="2076.2" y2="2281" gradientUnits="userSpaceOnUse">
<stop stop-color="#FF8C00" stop-opacity="0"/>
<stop offset="0.473957" stop-color="#FF002B" stop-opacity="0.31"/>
<stop offset="1" stop-color="#ED00FF"/>
</linearGradient>
<radialGradient id="paint13_radial_2525_42495" cx="0" cy="0" r="1" gradientUnits="userSpaceOnUse" gradientTransform="translate(2060.62 2241.95) rotate(49.4615) scale(101.413 140.049)">
<stop stop-color="#FF3E00"/>
<stop offset="0.562168" stop-color="#FFC800"/>
<stop offset="1" stop-color="#FFDD62"/>
</radialGradient>
<radialGradient id="paint14_radial_2525_42495" cx="0" cy="0" r="1" gradientUnits="userSpaceOnUse" gradientTransform="translate(2183.01 1768) rotate(137.732) scale(37.6539 47.2705)">
<stop stop-color="#FFE4AD"/>
<stop offset="1" stop-color="#FFEC2D"/>
</radialGradient>
<radialGradient id="paint15_radial_2525_42495" cx="0" cy="0" r="1" gradientUnits="userSpaceOnUse" gradientTransform="translate(2658.51 2061.86) rotate(137.435) scale(26.7436 33.6053)">
<stop stop-color="#FFE4AD"/>
<stop offset="1" stop-color="#FFEC2D"/>
</radialGradient>
<radialGradient id="paint16_radial_2525_42495" cx="0" cy="0" r="1" gradientUnits="userSpaceOnUse" gradientTransform="translate(2262.51 2155.23) rotate(136.73) scale(31.0104 39.0367)">
<stop stop-color="#ADFFEE"/>
<stop offset="1" stop-color="#2DF9FF"/>
</radialGradient>
<radialGradient id="paint17_radial_2525_42495" cx="0" cy="0" r="1" gradientUnits="userSpaceOnUse" gradientTransform="translate(2527.05 2184.01) rotate(43.0798) scale(277.067 387.143)">
<stop stop-color="#FF00C7"/>
<stop offset="0.476794" stop-color="#DE00FA" stop-opacity="0.17859"/>
<stop offset="0.562168" stop-color="#DB00FF" stop-opacity="0.1"/>
<stop offset="1" stop-color="#FF0099" stop-opacity="0"/>
</radialGradient>
<radialGradient id="paint18_radial_2525_42495" cx="0" cy="0" r="1" gradientUnits="userSpaceOnUse" gradientTransform="translate(2503.25 2174.11) rotate(45.3434) scale(120.947 169.06)">
<stop stop-color="#02D9F7"/>
<stop offset="0.562168" stop-color="#A000FF"/>
<stop offset="1" stop-color="#FF0099"/>
</radialGradient>
<radialGradient id="paint19_radial_2525_42495" cx="0" cy="0" r="1" gradientUnits="userSpaceOnUse" gradientTransform="translate(1590.5 2152.83) rotate(49.4615) scale(69.5849 96.0955)">
<stop stop-color="#FF00D6"/>
<stop offset="0.562168" stop-color="#FF004D"/>
<stop offset="1" stop-color="#FF6291"/>
</radialGradient>
<radialGradient id="paint20_radial_2525_42495" cx="0" cy="0" r="1" gradientUnits="userSpaceOnUse" gradientTransform="translate(1817.18 2228.58) rotate(137.083) scale(159.855 223.292)">
<stop stop-color="#009FF0"/>
<stop offset="0.562168" stop-color="#00F0EA" stop-opacity="0.1"/>
<stop offset="1" stop-color="#0074F0" stop-opacity="0"/>
</radialGradient>
<radialGradient id="paint21_radial_2525_42495" cx="0" cy="0" r="1" gradientUnits="userSpaceOnUse" gradientTransform="translate(1845.45 2211.07) rotate(147.075) scale(132.311 184.944)">
<stop stop-color="#00F0D6"/>
<stop offset="0.562168" stop-color="#0088F0"/>
<stop offset="1" stop-color="#52B4FF"/>
</radialGradient>
</defs>
</svg>
