<svg width="1664" height="1731" viewBox="0 0 1664 1731" fill="none" xmlns="http://www.w3.org/2000/svg">
<g filter="url(#filter0_f_2526_42498)">
<ellipse cx="864" cy="803" rx="200" ry="203" fill="#090088"/>
</g>
<rect width="996.614" height="275.523" rx="137.762" transform="matrix(-0.707107 0.707107 0.707107 0.707107 970.711 662)" fill="url(#paint0_linear_2526_42498)"/>
<rect width="458.035" height="138.659" rx="69.3296" transform="matrix(-0.707107 0.707107 0.707107 0.707107 764.199 763.312)" fill="url(#paint1_linear_2526_42498)"/>
<rect width="832.218" height="413.867" rx="206.934" transform="matrix(-0.707107 0.707107 0.707107 0.707107 1006.64 699.406)" fill="url(#paint2_linear_2526_42498)"/>
<rect width="577.053" height="147.441" rx="73.7205" transform="matrix(-0.709226 0.704981 0.709226 0.704981 1002.26 942)" fill="url(#paint3_linear_2526_42498)"/>
<g filter="url(#filter1_f_2526_42498)">
<ellipse cx="823.004" cy="904.5" rx="223" ry="226.5" fill="#090088"/>
</g>
<path fill-rule="evenodd" clip-rule="evenodd" d="M706.361 1176.53L706.456 1176.62L735.141 1147.94L777.306 1105.5C794.231 1088.57 794.231 1061.61 777.306 1044.69C760.67 1027.77 733.419 1027.77 716.495 1044.69L706.456 1054.73L696.417 1044.69C679.492 1027.77 652.241 1027.77 635.605 1044.69C633.729 1046.57 632.061 1048.57 630.601 1050.66L385.997 1295.27L486.811 1396.08L706.361 1176.53Z" fill="url(#paint4_radial_2526_42498)"/>
<path d="M635.605 1105.5L677.771 1147.94L706.456 1176.62L735.141 1147.94L777.306 1105.5C794.231 1088.57 794.231 1061.61 777.306 1044.69C760.67 1027.77 733.419 1027.77 716.495 1044.69L706.456 1054.73L696.417 1044.69C679.492 1027.77 652.241 1027.77 635.605 1044.69C618.68 1061.61 618.68 1088.57 635.605 1105.5Z" fill="url(#paint5_radial_2526_42498)"/>
<g filter="url(#filter2_dd_2526_42498)">
<path d="M740.32 1090.19V1073H748.574C750.174 1073 751.554 1073.26 752.713 1073.79C753.889 1074.31 754.795 1075.06 755.432 1076.04C756.069 1077.01 756.387 1078.16 756.387 1079.48C756.387 1080.81 756.069 1081.95 755.432 1082.92C754.795 1083.88 753.889 1084.64 752.713 1085.18C751.554 1085.7 750.174 1085.96 748.574 1085.96H743.529L746.1 1083.48V1090.19H740.32ZM746.1 1084.12L743.529 1081.49H748.207C749.007 1081.49 749.595 1081.31 749.97 1080.95C750.362 1080.59 750.558 1080.1 750.558 1079.48C750.558 1078.86 750.362 1078.37 749.97 1078.01C749.595 1077.65 749.007 1077.47 748.207 1077.47H743.529L746.1 1074.84V1084.12Z" fill="white"/>
<path d="M730.035 1079.38H737.68V1083.56H730.035V1079.38ZM730.427 1085.82H739.003V1090.19H724.742V1073H738.684V1077.37H730.427V1085.82Z" fill="white"/>
<path d="M706.438 1090.19V1073H723.065V1090.19H717.367V1076.27L718.619 1077.49H710.883L712.135 1076.27V1090.19H706.438Z" fill="white"/>
<path d="M682.9 1090.62C681.528 1090.62 680.254 1090.41 679.077 1089.98C677.918 1089.54 676.905 1088.92 676.039 1088.11C675.19 1087.31 674.528 1086.36 674.054 1085.26C673.581 1084.16 673.344 1082.95 673.344 1081.62C673.344 1080.29 673.581 1079.08 674.054 1077.98C674.528 1076.89 675.19 1075.94 676.039 1075.13C676.905 1074.33 677.918 1073.71 679.077 1073.29C680.254 1072.85 681.528 1072.62 682.9 1072.62C684.582 1072.62 686.069 1072.92 687.359 1073.51C688.666 1074.1 689.744 1074.95 690.594 1076.07L686.943 1079.34C686.436 1078.7 685.873 1078.21 685.252 1077.86C684.648 1077.5 683.962 1077.32 683.194 1077.32C682.589 1077.32 682.042 1077.42 681.552 1077.62C681.062 1077.81 680.637 1078.1 680.278 1078.48C679.935 1078.85 679.665 1079.31 679.469 1079.85C679.273 1080.38 679.175 1080.97 679.175 1081.62C679.175 1082.28 679.273 1082.88 679.469 1083.42C679.665 1083.94 679.935 1084.39 680.278 1084.77C680.637 1085.15 681.062 1085.43 681.552 1085.63C682.042 1085.83 682.589 1085.92 683.194 1085.92C683.962 1085.92 684.648 1085.75 685.252 1085.41C685.873 1085.05 686.436 1084.55 686.943 1083.91L690.594 1087.18C689.744 1088.28 688.666 1089.13 687.359 1089.73C686.069 1090.32 684.582 1090.62 682.9 1090.62Z" fill="white"/>
<path d="M692.959 1078.52C693.846 1078.75 694.541 1078.83 695.041 1078.75C695.542 1078.67 695.986 1078.36 696.372 1077.83L697.102 1076.81L697.532 1076.34L701.89 1067.46H706.785L700.752 1078.73C700.094 1079.96 699.299 1080.91 698.369 1081.6C697.453 1082.27 696.437 1082.65 695.321 1082.75C694.204 1082.85 693.023 1082.65 691.778 1082.15L692.959 1078.52ZM697.467 1080.29L690.469 1067.46H695.814L700.215 1076.81L697.467 1080.29Z" fill="white"/>
<path d="M725.422 1126.38C724.696 1126.38 723.954 1126.27 723.196 1126.04C722.454 1125.83 721.857 1125.55 721.405 1125.2L723.22 1121.45C723.494 1121.66 723.8 1121.83 724.139 1121.96C724.494 1122.09 724.833 1122.15 725.155 1122.15C725.639 1122.15 726.01 1122.05 726.268 1121.84C726.526 1121.64 726.736 1121.35 726.897 1120.94L727.454 1119.54L727.841 1119.01L732.075 1108.23H737.253L731.809 1121.72C731.325 1122.92 730.761 1123.87 730.115 1124.54C729.486 1125.22 728.777 1125.69 727.986 1125.97C727.212 1126.24 726.357 1126.38 725.422 1126.38ZM726.704 1122.05L720.945 1108.23H726.559L730.527 1118.53L726.704 1122.05Z" fill="white"/>
<path d="M713.953 1121.72C712.458 1121.72 711.133 1121.43 709.976 1120.85C708.836 1120.25 707.936 1119.44 707.277 1118.41C706.618 1117.37 706.289 1116.19 706.289 1114.85C706.289 1113.51 706.618 1112.32 707.277 1111.29C707.936 1110.25 708.836 1109.45 709.976 1108.86C711.133 1108.28 712.458 1107.99 713.953 1107.99C715.447 1107.99 716.772 1108.28 717.929 1108.86C719.086 1109.45 719.985 1110.25 720.628 1111.29C721.287 1112.32 721.616 1113.51 721.616 1114.85C721.616 1116.19 721.287 1117.37 720.628 1118.41C719.985 1119.44 719.086 1120.25 717.929 1120.85C716.772 1121.43 715.447 1121.72 713.953 1121.72ZM713.953 1117.46C714.354 1117.46 714.716 1117.36 715.037 1117.17C715.358 1116.98 715.615 1116.69 715.808 1116.3C716.001 1115.9 716.097 1115.41 716.097 1114.85C716.097 1114.26 716.001 1113.79 715.808 1113.42C715.615 1113.03 715.358 1112.74 715.037 1112.55C714.716 1112.35 714.354 1112.25 713.953 1112.25C713.551 1112.25 713.189 1112.35 712.868 1112.55C712.547 1112.74 712.29 1113.03 712.097 1113.42C711.904 1113.79 711.808 1114.26 711.808 1114.85C711.808 1115.41 711.904 1115.9 712.097 1116.3C712.29 1116.69 712.547 1116.98 712.868 1117.17C713.189 1117.36 713.551 1117.46 713.953 1117.46Z" fill="white"/>
<path d="M692.549 1117.19L691.362 1118.38V1108.23H696.81V1118.38L695.599 1117.19H700.707L699.521 1118.38V1108.23H704.944V1121.48H683.18V1108.23H688.627V1118.38L687.441 1117.19H692.549Z" fill="white"/>
<path d="M715.557 1105.91L711.945 1099.86L716.328 1097.3L721.964 1105.91H715.557ZM706.453 1105.91V1092.73H711.896V1105.91H706.453ZM710.307 1101.52V1097.35H715.22V1101.52H710.307ZM716.882 1099.91L711.776 1099.42L715.967 1092.73H721.699L716.882 1099.91Z" fill="white"/>
<path d="M689.898 1105.97V1092.73H695.332V1098.73L699.896 1092.73H704.919V1105.97H699.485V1099.98L694.946 1105.97H689.898Z" fill="white"/>
<path d="M683.351 1105.79V1103.44L682.964 1102.81V1098.35C682.964 1097.71 682.763 1097.21 682.36 1096.87C681.973 1096.53 681.336 1096.37 680.45 1096.37C679.853 1096.37 679.249 1096.46 678.636 1096.66C678.024 1096.83 677.5 1097.08 677.065 1097.41L675.324 1093.8C676.098 1093.31 677.024 1092.94 678.104 1092.68C679.184 1092.43 680.24 1092.3 681.272 1092.3C683.544 1092.3 685.301 1092.81 686.542 1093.82C687.8 1094.84 688.428 1096.45 688.428 1098.67V1105.79H683.351ZM679.603 1106.03C678.523 1106.03 677.621 1105.84 676.895 1105.47C676.17 1105.1 675.622 1104.61 675.251 1103.99C674.881 1103.36 674.695 1102.67 674.695 1101.91C674.695 1101.06 674.913 1100.33 675.348 1099.73C675.783 1099.13 676.444 1098.68 677.331 1098.38C678.233 1098.07 679.37 1097.92 680.74 1097.92H683.496V1100.56H681.61C681.03 1100.56 680.603 1100.65 680.329 1100.85C680.071 1101.02 679.942 1101.3 679.942 1101.67C679.942 1101.98 680.055 1102.23 680.28 1102.44C680.522 1102.64 680.845 1102.73 681.247 1102.73C681.618 1102.73 681.957 1102.64 682.263 1102.44C682.585 1102.23 682.819 1101.91 682.964 1101.48L683.665 1103.1C683.456 1104.08 683.012 1104.82 682.335 1105.3C681.659 1105.79 680.748 1106.03 679.603 1106.03Z" fill="white"/>
<path d="M658.078 1105.79L658.296 1101.36C658.392 1101.38 658.489 1101.39 658.585 1101.41C658.682 1101.41 658.771 1101.41 658.851 1101.41C659.205 1101.41 659.487 1101.34 659.696 1101.22C659.906 1101.07 660.067 1100.87 660.18 1100.61C660.308 1100.34 660.397 1100.01 660.445 1099.64C660.494 1099.25 660.526 1098.81 660.542 1098.31L660.735 1092.55H673.344V1105.79H667.885V1095.67L669.068 1096.81H664.334L665.445 1095.6L665.324 1098.53C665.276 1099.72 665.172 1100.8 665.01 1101.75C664.849 1102.68 664.592 1103.48 664.238 1104.15C663.899 1104.79 663.432 1105.29 662.837 1105.65C662.257 1105.99 661.516 1106.16 660.614 1106.16C660.26 1106.16 659.866 1106.12 659.431 1106.06C659.012 1105.99 658.561 1105.91 658.078 1105.79Z" fill="white"/>
<path d="M701.695 1087.68L699.581 1089.79L698.142 1091.22L696.704 1089.79L694.59 1087.68C693.741 1086.83 693.741 1085.49 694.59 1084.65C695.424 1083.8 696.79 1083.8 697.639 1084.65L698.142 1085.15L698.646 1084.65C699.494 1083.8 700.861 1083.8 701.695 1084.65C702.544 1085.49 702.544 1086.83 701.695 1087.68Z" fill="#52FF00"/>
</g>
<path fill-rule="evenodd" clip-rule="evenodd" d="M725.284 1027L725.298 1027.02L729.396 1022.92L735.421 1016.85C737.839 1014.43 737.839 1010.58 735.421 1008.16C733.044 1005.75 729.15 1005.75 726.732 1008.16L725.298 1009.6L723.864 1008.16C721.445 1005.75 717.552 1005.75 715.175 1008.16C714.908 1008.43 714.67 1008.72 714.461 1009.02L642.527 1080.95L656.931 1095.35L725.284 1027Z" fill="url(#paint6_radial_2526_42498)"/>
<path d="M715.175 1016.85L721.199 1022.92L725.298 1027.02L729.396 1022.92L735.421 1016.85C737.839 1014.43 737.839 1010.58 735.421 1008.16C733.044 1005.75 729.15 1005.75 726.732 1008.16L725.298 1009.6L723.864 1008.16C721.445 1005.75 717.552 1005.75 715.175 1008.16C712.757 1010.58 712.757 1014.43 715.175 1016.85Z" fill="url(#paint7_radial_2526_42498)"/>
<path d="M617.802 1112.08L703.156 1026.79L684.647 1013.29L602.038 1096.31L617.802 1112.08Z" fill="url(#paint8_linear_2526_42498)"/>
<path d="M696.104 1005L698.812 1013.34H707.578L700.486 1018.49L703.195 1026.82L696.104 1021.67L689.012 1026.82L691.721 1018.49L684.63 1013.34H693.395L696.104 1005Z" fill="url(#paint9_radial_2526_42498)"/>
<path d="M521.158 1246.85L615.294 1149.8L594.88 1134.44L503.772 1228.91L521.158 1246.85Z" fill="url(#paint10_linear_2526_42498)"/>
<path d="M607.501 1125L610.488 1134.49H620.156L612.335 1140.35L615.322 1149.84L607.501 1143.97L599.68 1149.84L602.667 1140.35L594.847 1134.49H604.514L607.501 1125Z" fill="url(#paint11_radial_2526_42498)"/>
<path d="M558.5 1020L559.384 1031.15L571 1032L559.384 1032.85L558.5 1044L557.616 1032.85L546 1032L557.616 1031.15L558.5 1020Z" fill="url(#paint12_radial_2526_42498)"/>
<path d="M491.135 1301.73L604.112 1188.84L579.612 1170.98L470.269 1280.86L491.135 1301.73Z" fill="url(#paint13_linear_2526_42498)"/>
<path d="M594.766 1160L598.351 1171.03H609.953L600.567 1177.85L604.152 1188.89L594.766 1182.07L585.379 1188.89L588.965 1177.85L579.578 1171.03H591.181L594.766 1160Z" fill="url(#paint14_radial_2526_42498)"/>
<path fill-rule="evenodd" clip-rule="evenodd" d="M758.285 1211.63L758.271 1211.65L750.962 1204.34L740.219 1193.52C735.906 1189.21 735.906 1182.34 740.219 1178.03C744.458 1173.72 751.401 1173.72 755.713 1178.03L758.271 1180.59L760.829 1178.03C765.142 1173.72 772.085 1173.72 776.324 1178.03C776.798 1178.5 777.22 1179.01 777.59 1179.54L844.435 1246.38L818.735 1272.08L758.285 1211.63Z" fill="url(#paint15_radial_2526_42498)"/>
<path d="M776.324 1193.52L765.58 1204.34L758.271 1211.65L750.962 1204.34L740.219 1193.52C735.906 1189.21 735.906 1182.34 740.219 1178.03C744.458 1173.72 751.401 1173.72 755.713 1178.03L758.271 1180.59L760.829 1178.03C765.142 1173.72 772.085 1173.72 776.324 1178.03C780.636 1182.34 780.636 1189.21 776.324 1193.52Z" fill="url(#paint16_radial_2526_42498)"/>
<path d="M656.5 1171L657.101 1178.9L665 1179.5L657.101 1180.1L656.5 1188L655.899 1180.1L648 1179.5L655.899 1178.9L656.5 1171Z" fill="url(#paint17_radial_2526_42498)"/>
<defs>
<filter id="filter0_f_2526_42498" x="64" y="0" width="1600" height="1606" filterUnits="userSpaceOnUse" color-interpolation-filters="sRGB">
<feFlood flood-opacity="0" result="BackgroundImageFix"/>
<feBlend mode="normal" in="SourceGraphic" in2="BackgroundImageFix" result="shape"/>
<feGaussianBlur stdDeviation="300" result="effect1_foregroundBlur_2526_42498"/>
</filter>
<filter id="filter1_f_2526_42498" x="0.00390625" y="78" width="1646" height="1653" filterUnits="userSpaceOnUse" color-interpolation-filters="sRGB">
<feFlood flood-opacity="0" result="BackgroundImageFix"/>
<feBlend mode="normal" in="SourceGraphic" in2="BackgroundImageFix" result="shape"/>
<feGaussianBlur stdDeviation="300" result="effect1_foregroundBlur_2526_42498"/>
</filter>
<filter id="filter2_dd_2526_42498" x="656.965" y="1066.12" width="112.114" height="72.7274" filterUnits="userSpaceOnUse" color-interpolation-filters="sRGB">
<feFlood flood-opacity="0" result="BackgroundImageFix"/>
<feColorMatrix in="SourceAlpha" type="matrix" values="0 0 0 0 0 0 0 0 0 0 0 0 0 0 0 0 0 0 127 0" result="hardAlpha"/>
<feOffset dx="3.11737" dy="2.8947"/>
<feGaussianBlur stdDeviation="2.11536"/>
<feColorMatrix type="matrix" values="0 0 0 0 0.270588 0 0 0 0 0 0 0 0 0 0.4 0 0 0 0.15 0"/>
<feBlend mode="normal" in2="BackgroundImageFix" result="effect1_dropShadow_2526_42498"/>
<feColorMatrix in="SourceAlpha" type="matrix" values="0 0 0 0 0 0 0 0 0 0 0 0 0 0 0 0 0 0 127 0" result="hardAlpha"/>
<feOffset dx="6.90274" dy="6.68007"/>
<feGaussianBlur stdDeviation="2.8947"/>
<feColorMatrix type="matrix" values="0 0 0 0 0.270588 0 0 0 0 0 0 0 0 0 0.4 0 0 0 0.15 0"/>
<feBlend mode="normal" in2="effect1_dropShadow_2526_42498" result="effect2_dropShadow_2526_42498"/>
<feBlend mode="normal" in="SourceGraphic" in2="effect2_dropShadow_2526_42498" result="shape"/>
</filter>
<linearGradient id="paint0_linear_2526_42498" x1="-42.4753" y1="201.972" x2="1079.82" y2="101.554" gradientUnits="userSpaceOnUse">
<stop stop-color="#02D9F7"/>
<stop offset="0.65" stop-color="#A000FF" stop-opacity="0"/>
</linearGradient>
<linearGradient id="paint1_linear_2526_42498" x1="-19.5213" y1="101.644" x2="496.958" y2="59.4415" gradientUnits="userSpaceOnUse">
<stop stop-color="#02D9F7"/>
<stop offset="0.65" stop-color="#A000FF" stop-opacity="0"/>
</linearGradient>
<linearGradient id="paint2_linear_2526_42498" x1="-35.4687" y1="303.386" x2="906.871" y2="256.513" gradientUnits="userSpaceOnUse">
<stop stop-color="#FF0099"/>
<stop offset="0.65" stop-color="#A000FF" stop-opacity="0"/>
</linearGradient>
<linearGradient id="paint3_linear_2526_42498" x1="-24.5937" y1="108.082" x2="624.351" y2="45.2553" gradientUnits="userSpaceOnUse">
<stop stop-color="#FF0099"/>
<stop offset="0.65" stop-color="#A000FF" stop-opacity="0"/>
</linearGradient>
<radialGradient id="paint4_radial_2526_42498" cx="0" cy="0" r="1" gradientUnits="userSpaceOnUse" gradientTransform="translate(692.246 1041.19) rotate(113.449) scale(254.067 354.895)">
<stop stop-color="#FF0065"/>
<stop offset="0.562168" stop-color="#FF00C1" stop-opacity="0.1"/>
<stop offset="1" stop-color="#FF0037" stop-opacity="0"/>
</radialGradient>
<radialGradient id="paint5_radial_2526_42498" cx="0" cy="0" r="1" gradientUnits="userSpaceOnUse" gradientTransform="translate(755.876 1045.91) rotate(134.657) scale(151.434 211.674)">
<stop stop-color="#FF00D6"/>
<stop offset="0.562168" stop-color="#FF004D"/>
<stop offset="1" stop-color="#FF6291"/>
</radialGradient>
<radialGradient id="paint6_radial_2526_42498" cx="0" cy="0" r="1" gradientUnits="userSpaceOnUse" gradientTransform="translate(728.383 1009.98) rotate(137.084) scale(50.0554 69.9193)">
<stop stop-color="#009FF0"/>
<stop offset="0.562168" stop-color="#00F0EA" stop-opacity="0.1"/>
<stop offset="1" stop-color="#0074F0" stop-opacity="0"/>
</radialGradient>
<radialGradient id="paint7_radial_2526_42498" cx="0" cy="0" r="1" gradientUnits="userSpaceOnUse" gradientTransform="translate(737.234 1004.5) rotate(147.075) scale(41.4305 57.9115)">
<stop stop-color="#00F0D6"/>
<stop offset="0.562168" stop-color="#0088F0"/>
<stop offset="1" stop-color="#52B4FF"/>
</radialGradient>
<linearGradient id="paint8_linear_2526_42498" x1="665.025" y1="1047.81" x2="692.591" y2="1016.42" gradientUnits="userSpaceOnUse">
<stop stop-color="#FF8C00" stop-opacity="0"/>
<stop offset="0.473957" stop-color="#FF002B" stop-opacity="0.31"/>
<stop offset="1" stop-color="#ED00FF"/>
</linearGradient>
<radialGradient id="paint9_radial_2526_42498" cx="0" cy="0" r="1" gradientUnits="userSpaceOnUse" gradientTransform="translate(688.967 1007.32) rotate(49.4615) scale(23.6482 32.6577)">
<stop stop-color="#FF3E00"/>
<stop offset="0.562168" stop-color="#FFC800"/>
<stop offset="1" stop-color="#FFDD62"/>
</radialGradient>
<linearGradient id="paint10_linear_2526_42498" x1="523.563" y1="1220.62" x2="606.149" y2="1140.59" gradientUnits="userSpaceOnUse">
<stop stop-color="#5900FF" stop-opacity="0"/>
<stop offset="0.473957" stop-color="#005EFF" stop-opacity="0.31"/>
<stop offset="1" stop-color="#00FFBA"/>
</linearGradient>
<radialGradient id="paint11_radial_2526_42498" cx="0" cy="0" r="1" gradientUnits="userSpaceOnUse" gradientTransform="translate(599.63 1127.64) rotate(50.346) scale(26.5638 36.4888)">
<stop stop-color="#026FF7"/>
<stop offset="0.562168" stop-color="#FF00EF"/>
<stop offset="1" stop-color="#FF002B"/>
</radialGradient>
<radialGradient id="paint12_radial_2526_42498" cx="0" cy="0" r="1" gradientUnits="userSpaceOnUse" gradientTransform="translate(558.505 1024.72) rotate(137.895) scale(16.1882 20.3112)">
<stop stop-color="#FFE4AD"/>
<stop offset="1" stop-color="#FFEC2D"/>
</radialGradient>
<linearGradient id="paint13_linear_2526_42498" x1="553.641" y1="1216.66" x2="590.127" y2="1175.12" gradientUnits="userSpaceOnUse">
<stop stop-color="#FF8C00" stop-opacity="0"/>
<stop offset="0.473957" stop-color="#FF002B" stop-opacity="0.31"/>
<stop offset="1" stop-color="#ED00FF"/>
</linearGradient>
<radialGradient id="paint14_radial_2526_42498" cx="0" cy="0" r="1" gradientUnits="userSpaceOnUse" gradientTransform="translate(585.319 1163.07) rotate(49.4615) scale(31.3012 43.2265)">
<stop stop-color="#FF3E00"/>
<stop offset="0.562168" stop-color="#FFC800"/>
<stop offset="1" stop-color="#FFDD62"/>
</radialGradient>
<radialGradient id="paint15_radial_2526_42498" cx="0" cy="0" r="1" gradientUnits="userSpaceOnUse" gradientTransform="translate(753.27 1181.5) rotate(43.0792) scale(88.3921 123.509)">
<stop stop-color="#FF00C7"/>
<stop offset="0.476794" stop-color="#DE00FA" stop-opacity="0.17859"/>
<stop offset="0.562168" stop-color="#DB00FF" stop-opacity="0.1"/>
<stop offset="1" stop-color="#FF0099" stop-opacity="0"/>
</radialGradient>
<radialGradient id="paint16_radial_2526_42498" cx="0" cy="0" r="1" gradientUnits="userSpaceOnUse" gradientTransform="translate(745.679 1178.34) rotate(45.3434) scale(38.585 53.9342)">
<stop stop-color="#02D9F7"/>
<stop offset="0.562168" stop-color="#A000FF"/>
<stop offset="1" stop-color="#FF0099"/>
</radialGradient>
<radialGradient id="paint17_radial_2526_42498" cx="0" cy="0" r="1" gradientUnits="userSpaceOnUse" gradientTransform="translate(656.503 1174.34) rotate(136.73) scale(11.2165 14.1196)">
<stop stop-color="#ADFFEE"/>
<stop offset="1" stop-color="#2DF9FF"/>
</radialGradient>
</defs>
</svg>
