<svg width="17" height="18" viewBox="0 0 17 18" fill="none" xmlns="http://www.w3.org/2000/svg">
<path d="M8.0245 0.522195C9.09088 0.308781 11.2437 5.23388 11.2437 5.23388C11.2437 5.23388 16.3919 3.5858 16.7009 4.54776C17.0723 5.70183 13.6187 9.58964 13.6187 9.58964C13.6187 9.58964 16.4444 14.32 15.8599 14.8826C15.1253 15.59 9.81558 13.3304 9.81558 13.3304C9.81558 13.3304 5.94483 17.5192 4.98292 17.0783C4.24645 16.7408 5.09149 11.0423 5.09149 11.0423C5.09149 11.0423 0.725462 8.12208 0.732109 7.36077C0.738678 6.60491 6.46312 5.86219 6.46312 5.86219C6.46312 5.86219 6.89336 0.748894 8.0245 0.522195Z" fill="#FFBC00"/>
</svg>
