<svg width="270" height="252" viewBox="0 0 270 252" fill="none" xmlns="http://www.w3.org/2000/svg">
<path d="M50.8613 188.256L5.4902 142.951L23.6853 129.69L66.4618 172.655L50.8613 188.256Z" fill="url(#paint0_linear_3001_12334)"/>
<path d="M12.4752 121.391L9.79472 129.64H1.12061L8.13811 134.739L5.45767 142.988L12.4752 137.89L19.4927 142.988L16.8122 134.739L23.8297 129.64H15.1556L12.4752 121.391Z" fill="url(#paint1_radial_3001_12334)"/>
<path fill-rule="evenodd" clip-rule="evenodd" d="M251.302 118.482L253.577 116.192C254.683 115.086 254.683 113.325 253.577 112.22C252.49 111.114 250.71 111.114 249.605 112.22L248.949 112.875L248.293 112.22C247.188 111.114 245.407 111.114 244.321 112.22C244.193 112.347 244.08 112.484 243.982 112.627L210.56 146.049L217.181 152.67L251.336 118.516L251.302 118.482Z" fill="url(#paint2_radial_3001_12334)"/>
<path d="M244.321 116.192L247.075 118.964L248.949 120.838L250.823 118.964L253.577 116.192C254.683 115.086 254.683 113.325 253.577 112.22C252.49 111.114 250.71 111.114 249.605 112.22L248.949 112.875L248.293 112.22C247.188 111.114 245.407 111.114 244.321 112.22C243.215 113.325 243.215 115.086 244.321 116.192Z" fill="url(#paint3_radial_3001_12334)"/>
<path d="M130.296 200.422L73.8736 142.25L86.109 133.045L140.717 189.67L130.296 200.422Z" fill="url(#paint4_linear_3001_12334)"/>
<path d="M78.5405 127.391L76.75 133.077H70.9558L75.6434 136.591L73.8529 142.277L78.5405 138.763L83.2282 142.277L81.4376 136.591L86.1253 133.077H80.331L78.5405 127.391Z" fill="url(#paint5_radial_3001_12334)"/>
<g filter="url(#filter0_f_3001_12334)">
<circle cx="136.062" cy="117.891" r="73.5" fill="#6F00FD"/>
</g>
<path d="M185.914 236.562L246.631 175.892L233.464 166.292L174.699 225.348L185.914 236.562Z" fill="url(#paint6_linear_3001_12334)"/>
<path d="M241.611 160.391L243.538 166.324L249.777 166.324L244.73 169.991L246.658 175.925L241.611 172.258L236.563 175.925L238.491 169.991L233.444 166.324L239.683 166.324L241.611 160.391Z" fill="url(#paint7_radial_3001_12334)"/>
<path fill-rule="evenodd" clip-rule="evenodd" d="M28.2508 177.618L28.2406 177.628L25.615 175.003L21.7556 171.118C20.2065 169.569 20.2065 167.101 21.7556 165.552C23.2783 164.003 25.7726 164.003 27.3217 165.552L28.2406 166.471L29.1594 165.552C30.7086 164.003 33.2028 164.003 34.7255 165.552C34.8942 165.721 35.0446 165.901 35.1765 166.089L59.9926 190.905L50.7651 200.132L28.2508 177.618Z" fill="url(#paint8_radial_3001_12334)"/>
<path d="M34.7255 171.118L30.8661 175.003L28.2406 177.628L25.615 175.003L21.7556 171.118C20.2065 169.569 20.2065 167.101 21.7556 165.552C23.2783 164.003 25.7726 164.003 27.3217 165.552L28.2406 166.471L29.1594 165.552C30.7086 164.003 33.2028 164.003 34.7255 165.552C36.2747 167.101 36.2747 169.569 34.7255 171.118Z" fill="url(#paint9_radial_3001_12334)"/>
<path fill-rule="evenodd" clip-rule="evenodd" d="M257.123 155.588L257.136 155.602L260.947 151.792L266.548 146.154C268.796 143.906 268.796 140.325 266.548 138.077C264.338 135.829 260.718 135.829 258.47 138.077L257.136 139.41L255.803 138.077C253.555 135.829 249.935 135.829 247.725 138.077C247.478 138.323 247.259 138.586 247.066 138.861L214.565 171.362L227.957 184.754L257.123 155.588Z" fill="url(#paint10_radial_3001_12334)"/>
<path d="M247.725 146.154L253.326 151.792L257.136 155.602L260.947 151.792L266.548 146.154C268.796 143.906 268.796 140.325 266.548 138.077C264.338 135.829 260.718 135.829 258.47 138.077L257.136 139.41L255.803 138.077C253.555 135.829 249.935 135.829 247.725 138.077C245.476 140.325 245.476 143.906 247.725 146.154Z" fill="url(#paint11_radial_3001_12334)"/>
<path d="M33.3906 103.438L33.8984 111.906L42.3672 112.414L33.8984 112.922L33.3906 121.391L32.8828 112.922L24.4141 112.414L32.8828 111.906L33.3906 103.438Z" fill="#FFC700"/>
<defs>
<filter id="filter0_f_3001_12334" x="2.5625" y="-15.6094" width="267" height="267" filterUnits="userSpaceOnUse" color-interpolation-filters="sRGB">
<feFlood flood-opacity="0" result="BackgroundImageFix"/>
<feBlend mode="normal" in="SourceGraphic" in2="BackgroundImageFix" result="shape"/>
<feGaussianBlur stdDeviation="30" result="effect1_foregroundBlur_3001_12334"/>
</filter>
<linearGradient id="paint0_linear_3001_12334" x1="61.1845" y1="177.933" x2="15.8997" y2="132.648" gradientUnits="userSpaceOnUse">
<stop stop-color="#FF8C00" stop-opacity="0"/>
<stop offset="0.473957" stop-color="#FF002B" stop-opacity="0.31"/>
<stop offset="1" stop-color="#ED00FF"/>
</linearGradient>
<radialGradient id="paint1_radial_3001_12334" cx="0" cy="0" r="1" gradientUnits="userSpaceOnUse" gradientTransform="translate(19.5376 123.687) rotate(130.538) scale(23.4019 32.3176)">
<stop stop-color="#FF3E00"/>
<stop offset="0.562168" stop-color="#FFC800"/>
<stop offset="1" stop-color="#FFDD62"/>
</radialGradient>
<radialGradient id="paint2_radial_3001_12334" cx="0" cy="0" r="1" gradientUnits="userSpaceOnUse" gradientTransform="translate(250.45 113.006) rotate(134.475) scale(46.9013 65.4969)">
<stop stop-color="#00F1FF" stop-opacity="0.57"/>
<stop offset="0.463397" stop-color="#00FFB1" stop-opacity="0.12"/>
<stop offset="1" stop-color="#00C4FF" stop-opacity="0"/>
</radialGradient>
<radialGradient id="paint3_radial_3001_12334" cx="0" cy="0" r="1" gradientUnits="userSpaceOnUse" gradientTransform="translate(252.177 112.299) rotate(134.657) scale(9.89205 13.8271)">
<stop stop-color="#F7EB02"/>
<stop offset="0.562168" stop-color="#00FF76"/>
<stop offset="1" stop-color="#00C4FF"/>
</radialGradient>
<linearGradient id="paint4_linear_3001_12334" x1="137.191" y1="193.307" x2="79.0932" y2="137.001" gradientUnits="userSpaceOnUse">
<stop stop-color="#5900FF" stop-opacity="0"/>
<stop offset="0.473957" stop-color="#005EFF" stop-opacity="0.31"/>
<stop offset="1" stop-color="#00FFBA"/>
</linearGradient>
<radialGradient id="paint5_radial_3001_12334" cx="0" cy="0" r="1" gradientUnits="userSpaceOnUse" gradientTransform="translate(83.2582 128.973) rotate(129.654) scale(15.9216 21.8703)">
<stop stop-color="#026FF7"/>
<stop offset="0.562168" stop-color="#FF00EF"/>
<stop offset="1" stop-color="#FF002B"/>
</radialGradient>
<linearGradient id="paint6_linear_3001_12334" x1="210.554" y1="200.393" x2="239.115" y2="168.519" gradientUnits="userSpaceOnUse">
<stop stop-color="#FF0000" stop-opacity="0"/>
<stop offset="0.703583" stop-color="#FF00B8" stop-opacity="0.31"/>
<stop offset="1" stop-color="#6100FF"/>
</linearGradient>
<radialGradient id="paint7_radial_3001_12334" cx="0" cy="0" r="1" gradientUnits="userSpaceOnUse" gradientTransform="translate(236.531 162.042) rotate(49.4615) scale(16.8319 23.2446)">
<stop stop-color="#FF00D6"/>
<stop offset="0.562168" stop-color="#FF004D"/>
<stop offset="1" stop-color="#FF6291"/>
</radialGradient>
<radialGradient id="paint8_radial_3001_12334" cx="0" cy="0" r="1" gradientUnits="userSpaceOnUse" gradientTransform="translate(26.2641 166.714) rotate(41.1349) scale(43.5903 60.8882)">
<stop stop-color="#009FF0"/>
<stop offset="0.562168" stop-color="#00F0EA" stop-opacity="0.1"/>
<stop offset="1" stop-color="#0074F0" stop-opacity="0"/>
</radialGradient>
<radialGradient id="paint9_radial_3001_12334" cx="0" cy="0" r="1" gradientUnits="userSpaceOnUse" gradientTransform="translate(23.7171 165.663) rotate(45.3434) scale(13.8607 19.3745)">
<stop stop-color="#00F0D6"/>
<stop offset="0.562168" stop-color="#0088F0"/>
<stop offset="1" stop-color="#52B4FF"/>
</radialGradient>
<radialGradient id="paint10_radial_3001_12334" cx="0" cy="0" r="1" gradientUnits="userSpaceOnUse" gradientTransform="translate(260.005 139.762) rotate(135.328) scale(50.2382 70.1747)">
<stop stop-color="#FF0065"/>
<stop offset="0.562168" stop-color="#FF00C1" stop-opacity="0.1"/>
<stop offset="1" stop-color="#FF0037" stop-opacity="0"/>
</radialGradient>
<radialGradient id="paint11_radial_3001_12334" cx="0" cy="0" r="1" gradientUnits="userSpaceOnUse" gradientTransform="translate(263.701 138.238) rotate(134.657) scale(20.1163 28.1185)">
<stop stop-color="#FF00D6"/>
<stop offset="0.562168" stop-color="#FF004D"/>
<stop offset="1" stop-color="#FF6291"/>
</radialGradient>
</defs>
</svg>
