<svg width="4419" height="10177" viewBox="0 0 4419 10177" fill="none" xmlns="http://www.w3.org/2000/svg">
<g filter="url(#filter0_f_2003_14312)">
<ellipse cx="1539.13" cy="6259.37" rx="514.789" ry="523.08" fill="#090088"/>
</g>
<rect opacity="0.25" width="2629.4" height="549.607" rx="274.803" transform="matrix(0.707107 -0.707107 -0.707107 -0.707107 805.633 7549.29)" fill="url(#paint0_linear_2003_14312)"/>
<g filter="url(#filter1_f_2003_14312)">
<ellipse cx="2562.35" cy="7617.02" rx="514.789" ry="523.08" fill="#090088"/>
</g>
<g filter="url(#filter2_f_2003_14312)">
<ellipse cx="1783.09" cy="8452.54" rx="514.789" ry="523.08" fill="#090088" fill-opacity="0.5"/>
</g>
<g filter="url(#filter3_f_2003_14312)">
<ellipse cx="2597.65" cy="8749.08" rx="514.789" ry="523.08" fill="#090088" fill-opacity="0.5"/>
</g>
<path opacity="0.05" d="M2941.52 7744.32L2801.8 7885.15L2706.75 7980.31L2611.7 7885.15L2471.98 7744.32C2415.9 7688.17 2415.9 7598.73 2471.98 7542.58C2527.11 7486.43 2617.41 7486.43 2673.49 7542.58L2706.75 7575.88L2740.02 7542.58C2796.1 7486.43 2886.4 7486.43 2941.52 7542.58C2997.6 7598.73 2997.6 7688.17 2941.52 7744.32Z" fill="url(#paint1_radial_2003_14312)"/>
<g filter="url(#filter4_f_2003_14312)">
<ellipse cx="1533.65" cy="1428.08" rx="514.789" ry="523.08" fill="#090088"/>
</g>
<path opacity="0.3" d="M2702.86 4760.91L2720.86 4997.88L2957.36 5015.91L2720.86 5033.94L2702.86 5270.91L2684.86 5033.94L2448.36 5015.91L2684.86 4997.88L2702.86 4760.91Z" fill="url(#paint2_radial_2003_14312)"/>
<path opacity="0.3" d="M1672.36 3648.91L1744.65 3871.41H1978.6L1789.33 4008.92L1861.63 4231.42L1672.36 4093.91L1483.09 4231.42L1555.39 4008.92L1366.12 3871.41H1600.07L1672.36 3648.91Z" fill="url(#paint3_radial_2003_14312)"/>
<g filter="url(#filter5_f_2003_14312)">
<ellipse cx="3265.36" cy="2524.91" rx="553" ry="562" fill="#6F00FD"/>
</g>
<g filter="url(#filter6_f_2003_14312)">
<ellipse cx="3265.36" cy="5057.91" rx="553" ry="562" fill="#6F00FD"/>
</g>
<g filter="url(#filter7_f_2003_14312)">
<ellipse cx="1420.15" cy="3888.99" rx="514.789" ry="523.08" fill="#090088"/>
</g>
<defs>
<filter id="filter0_f_2003_14312" x="119.882" y="4831.83" width="2838.5" height="2855.09" filterUnits="userSpaceOnUse" color-interpolation-filters="sRGB">
<feFlood flood-opacity="0" result="BackgroundImageFix"/>
<feBlend mode="normal" in="SourceGraphic" in2="BackgroundImageFix" result="shape"/>
<feGaussianBlur stdDeviation="452.231" result="effect1_foregroundBlur_2003_14312"/>
</filter>
<filter id="filter1_f_2003_14312" x="1143.1" y="6189.48" width="2838.5" height="2855.08" filterUnits="userSpaceOnUse" color-interpolation-filters="sRGB">
<feFlood flood-opacity="0" result="BackgroundImageFix"/>
<feBlend mode="normal" in="SourceGraphic" in2="BackgroundImageFix" result="shape"/>
<feGaussianBlur stdDeviation="452.231" result="effect1_foregroundBlur_2003_14312"/>
</filter>
<filter id="filter2_f_2003_14312" x="363.835" y="7025" width="2838.5" height="2855.08" filterUnits="userSpaceOnUse" color-interpolation-filters="sRGB">
<feFlood flood-opacity="0" result="BackgroundImageFix"/>
<feBlend mode="normal" in="SourceGraphic" in2="BackgroundImageFix" result="shape"/>
<feGaussianBlur stdDeviation="452.231" result="effect1_foregroundBlur_2003_14312"/>
</filter>
<filter id="filter3_f_2003_14312" x="1178.4" y="7321.54" width="2838.5" height="2855.08" filterUnits="userSpaceOnUse" color-interpolation-filters="sRGB">
<feFlood flood-opacity="0" result="BackgroundImageFix"/>
<feBlend mode="normal" in="SourceGraphic" in2="BackgroundImageFix" result="shape"/>
<feGaussianBlur stdDeviation="452.231" result="effect1_foregroundBlur_2003_14312"/>
</filter>
<filter id="filter4_f_2003_14312" x="114.398" y="0.538391" width="2838.5" height="2855.09" filterUnits="userSpaceOnUse" color-interpolation-filters="sRGB">
<feFlood flood-opacity="0" result="BackgroundImageFix"/>
<feBlend mode="normal" in="SourceGraphic" in2="BackgroundImageFix" result="shape"/>
<feGaussianBlur stdDeviation="452.231" result="effect1_foregroundBlur_2003_14312"/>
</filter>
<filter id="filter5_f_2003_14312" x="2112.36" y="1362.91" width="2306" height="2324" filterUnits="userSpaceOnUse" color-interpolation-filters="sRGB">
<feFlood flood-opacity="0" result="BackgroundImageFix"/>
<feBlend mode="normal" in="SourceGraphic" in2="BackgroundImageFix" result="shape"/>
<feGaussianBlur stdDeviation="300" result="effect1_foregroundBlur_2003_14312"/>
</filter>
<filter id="filter6_f_2003_14312" x="2112.36" y="3895.91" width="2306" height="2324" filterUnits="userSpaceOnUse" color-interpolation-filters="sRGB">
<feFlood flood-opacity="0" result="BackgroundImageFix"/>
<feBlend mode="normal" in="SourceGraphic" in2="BackgroundImageFix" result="shape"/>
<feGaussianBlur stdDeviation="300" result="effect1_foregroundBlur_2003_14312"/>
</filter>
<filter id="filter7_f_2003_14312" x="0.897766" y="2461.45" width="2838.5" height="2855.09" filterUnits="userSpaceOnUse" color-interpolation-filters="sRGB">
<feFlood flood-opacity="0" result="BackgroundImageFix"/>
<feBlend mode="normal" in="SourceGraphic" in2="BackgroundImageFix" result="shape"/>
<feGaussianBlur stdDeviation="452.231" result="effect1_foregroundBlur_2003_14312"/>
</filter>
<linearGradient id="paint0_linear_2003_14312" x1="-112.064" y1="402.89" x2="2831.41" y2="54.5508" gradientUnits="userSpaceOnUse">
<stop stop-color="#02D9F7"/>
<stop offset="0.65" stop-color="#A000FF" stop-opacity="0"/>
</linearGradient>
<radialGradient id="paint1_radial_2003_14312" cx="0" cy="0" r="1" gradientUnits="userSpaceOnUse" gradientTransform="translate(2542.99 7546.61) rotate(45.3801) scale(502.113 701.843)">
<stop stop-color="#9300FF"/>
<stop offset="0.562168" stop-color="#FF00E1"/>
<stop offset="1" stop-color="#FF62ED"/>
</radialGradient>
<radialGradient id="paint2_radial_2003_14312" cx="0" cy="0" r="1" gradientUnits="userSpaceOnUse" gradientTransform="translate(2702.96 4861.11) rotate(136.674) scale(336.146 423.199)">
<stop stop-color="#FFE4AD"/>
<stop offset="1" stop-color="#FFEC2D"/>
</radialGradient>
<radialGradient id="paint3_radial_2003_14312" cx="0" cy="0" r="1" gradientUnits="userSpaceOnUse" gradientTransform="translate(1481.88 3710.84) rotate(49.4615) scale(631.164 871.626)">
<stop stop-color="#02D9F7"/>
<stop offset="0.562168" stop-color="#A000FF"/>
<stop offset="1" stop-color="#FF0099"/>
</radialGradient>
</defs>
</svg>
