<svg width="188" height="114" viewBox="0 0 188 114" fill="none" xmlns="http://www.w3.org/2000/svg">
<path d="M157.032 44.0732V11.2578H172.792C175.848 11.2578 178.482 11.7579 180.696 12.7579C182.941 13.758 184.671 15.1957 185.887 17.0708C187.103 18.9147 187.711 21.1024 187.711 23.6339C187.711 26.1654 187.103 28.3531 185.887 30.197C184.671 32.0409 182.941 33.4785 180.696 34.5099C178.482 35.5099 175.848 36.01 172.792 36.01H163.158L168.069 31.2752V44.0732H157.032ZM168.069 32.4941L163.158 27.478H172.091C173.618 27.478 174.741 27.1342 175.458 26.4466C176.206 25.7591 176.58 24.8215 176.58 23.6339C176.58 22.4463 176.206 21.5087 175.458 20.8212C174.741 20.1336 173.618 19.7898 172.091 19.7898H163.158L168.069 14.7737V32.4941Z" fill="white"/>
<path d="M137.41 23.4464H152.008V31.4158H137.41V23.4464ZM138.159 35.7287H154.534V44.0732H127.304V11.2578H153.926V19.6023H138.159V35.7287Z" fill="white"/>
<path d="M92.3438 44.0732V11.2578H124.093V44.0732H113.213V17.4927L115.605 19.8367H100.832L103.224 17.4927V44.0732H92.3438Z" fill="white"/>
<path d="M47.4087 44.9055C44.7886 44.9055 42.3557 44.4986 40.1099 43.685C37.8953 42.84 35.9614 41.6509 34.3082 40.1174C32.6863 38.584 31.423 36.769 30.5185 34.6723C29.6139 32.5756 29.1616 30.2598 29.1616 27.7249C29.1616 25.1901 29.6139 22.8743 30.5185 20.7776C31.423 18.6809 32.6863 16.8659 34.3082 15.3324C35.9614 13.799 37.8953 12.6255 40.1099 11.8118C42.3557 10.9669 44.7886 10.5444 47.4087 10.5444C50.6215 10.5444 53.4599 11.1077 55.9241 12.2343C58.4194 13.3609 60.478 14.9882 62.1 17.1162L55.1287 23.3594C54.1617 22.1389 53.0856 21.2001 51.9003 20.5429C50.7462 19.8545 49.4362 19.5102 47.9702 19.5102C46.8161 19.5102 45.7712 19.698 44.8354 20.0735C43.8997 20.449 43.0887 20.9967 42.4025 21.7165C41.7475 22.4362 41.2328 23.3125 40.8585 24.3452C40.4842 25.3466 40.297 26.4732 40.297 27.7249C40.297 28.9767 40.4842 30.119 40.8585 31.1517C41.2328 32.1531 41.7475 33.0137 42.4025 33.7334C43.0887 34.4532 43.8997 35.0009 44.8354 35.3764C45.7712 35.7519 46.8161 35.9397 47.9702 35.9397C49.4362 35.9397 50.7462 35.6111 51.9003 34.9539C53.0856 34.2654 54.1617 33.311 55.1287 32.0905L62.1 38.3337C60.478 40.4304 58.4194 42.0577 55.9241 43.2156C53.4599 44.3422 50.6215 44.9055 47.4087 44.9055Z" fill="white"/>
<path d="M66.6126 21.7907C68.307 22.2264 69.6324 22.3761 70.5889 22.24C71.5454 22.0766 72.3926 21.4912 73.1305 20.4838L74.5243 18.5235L75.3441 17.625L83.6657 0.67627H93.0121L81.4931 22.1991C80.236 24.5406 78.7192 26.3648 76.9429 27.6717C75.1938 28.9514 73.2535 29.6865 71.1219 29.8771C68.9902 30.0677 66.7356 29.6865 64.358 28.7336L66.6126 21.7907ZM75.2212 25.1805L61.8574 0.67627H72.0647L80.4683 18.5235L75.2212 25.1805Z" fill="white"/>
<path d="M128.58 113.179C127.194 113.179 125.777 112.964 124.329 112.533C122.913 112.133 121.773 111.595 120.911 110.919L124.376 103.768C124.899 104.167 125.484 104.49 126.131 104.736C126.809 104.982 127.456 105.106 128.072 105.106C128.996 105.106 129.704 104.906 130.197 104.506C130.69 104.137 131.09 103.568 131.398 102.799L132.461 100.123L133.2 99.108L141.285 78.5317H151.172L140.777 104.275C139.853 106.582 138.775 108.381 137.543 109.673C136.342 110.965 134.987 111.872 133.477 112.395C131.999 112.918 130.366 113.179 128.58 113.179ZM131.029 104.921L120.033 78.5317H130.751L138.328 98.1853L131.029 104.921Z" fill="white"/>
<path d="M106.688 104.283C103.834 104.283 101.304 103.728 99.0948 102.618C96.9166 101.478 95.1987 99.9209 93.9409 97.9479C92.6831 95.9749 92.0542 93.709 92.0542 91.1502C92.0542 88.5914 92.6831 86.3255 93.9409 84.3525C95.1987 82.3795 96.9166 80.838 99.0948 79.7282C101.304 78.6184 103.834 78.0635 106.688 78.0635C109.541 78.0635 112.071 78.6184 114.28 79.7282C116.489 80.838 118.207 82.3795 119.434 84.3525C120.692 86.3255 121.321 88.5914 121.321 91.1502C121.321 93.709 120.692 95.9749 119.434 97.9479C118.207 99.9209 116.489 101.478 114.28 102.618C112.071 103.728 109.541 104.283 106.688 104.283ZM106.688 96.1444C107.454 96.1444 108.145 95.9594 108.758 95.5895C109.372 95.2196 109.863 94.6646 110.231 93.9248C110.599 93.154 110.783 92.2292 110.783 91.1502C110.783 90.0404 110.599 89.1309 110.231 88.4219C109.863 87.682 109.372 87.1271 108.758 86.7571C108.145 86.3872 107.454 86.2022 106.688 86.2022C105.921 86.2022 105.23 86.3872 104.617 86.7571C104.003 87.1271 103.512 87.682 103.144 88.4219C102.776 89.1309 102.592 90.0404 102.592 91.1502C102.592 92.2292 102.776 93.154 103.144 93.9248C103.512 94.6646 104.003 95.2196 104.617 95.5895C105.23 95.9594 105.921 96.1444 106.688 96.1444Z" fill="white"/>
<path d="M65.81 95.6342L63.5449 97.8991V78.5322H73.9461V97.8991L71.6347 95.6342H81.3888L79.1236 97.8991V78.5322H89.4786V103.815H47.9199V78.5322H58.3211V97.8991L56.056 95.6342H65.81Z" fill="white"/>
<path d="M109.75 74.0837L102.851 62.5358L111.221 57.6589L121.983 74.0837H109.75ZM92.3652 74.0837V48.9175H102.759V74.0837H92.3652ZM99.7237 65.7103V57.751H109.106V65.7103H99.7237ZM112.279 62.6278L102.529 61.7076L110.531 48.9175H121.477L112.279 62.6278Z" fill="white"/>
<path d="M60.7583 74.2007V48.9175H71.1334V60.3742L79.8484 48.9175H89.4396V74.2007H79.0646V62.7708L70.3956 74.2007H60.7583Z" fill="white"/>
<path d="M48.2534 73.8554V69.3698L47.5148 68.1675V59.6588C47.5148 58.4257 47.13 57.4854 46.3606 56.838C45.6219 56.1906 44.4062 55.8669 42.7134 55.8669C41.5746 55.8669 40.4204 56.0519 39.2508 56.4219C38.0813 56.761 37.081 57.2388 36.25 57.8554L32.9259 50.9652C34.4033 50.0403 36.173 49.3313 38.2352 48.838C40.2973 48.3448 42.3133 48.0981 44.283 48.0981C48.6228 48.0981 51.9776 49.0692 54.3475 51.0114C56.7482 52.9536 57.9485 56.0365 57.9485 60.26V73.8554H48.2534ZM41.0975 74.3178C39.0354 74.3178 37.3118 73.9633 35.9268 73.2542C34.5418 72.5452 33.4953 71.6049 32.7874 70.4334C32.0795 69.2311 31.7256 67.9055 31.7256 66.4565C31.7256 64.8226 32.1411 63.4353 32.9721 62.2947C33.8031 61.154 35.065 60.2908 36.7578 59.7051C38.4814 59.1193 40.6512 58.8265 43.2674 58.8265H48.5304V63.8669H44.9294C43.8214 63.8669 43.0058 64.0519 42.4825 64.4219C41.9901 64.761 41.7439 65.2851 41.7439 65.9941C41.7439 66.5799 41.9593 67.0731 42.3902 67.4739C42.8519 67.8438 43.4674 68.0288 44.2369 68.0288C44.9448 68.0288 45.5911 67.8438 46.1759 67.4739C46.7915 67.0731 47.2377 66.4565 47.5148 65.6242L48.8536 68.7224C48.4535 70.603 47.6071 72.0057 46.3144 72.9305C45.0217 73.8554 43.2828 74.3178 41.0975 74.3178Z" fill="white"/>
<path d="M0 73.8589L0.415105 65.3974C0.599596 65.4282 0.784087 65.4591 0.968578 65.4899C1.15307 65.4899 1.32219 65.4899 1.47593 65.4899C2.1524 65.4899 2.6905 65.3666 3.09023 65.12C3.48996 64.8426 3.79744 64.4572 4.01268 63.964C4.25867 63.44 4.42779 62.8235 4.52003 62.1145C4.61228 61.3747 4.67378 60.527 4.70452 59.5715L5.07351 48.5669H29.1496V73.8589H18.7259V54.5316L20.9859 56.7047H11.9458L14.0674 54.3928L13.8368 59.9876C13.7446 62.2687 13.5447 64.3185 13.2372 66.1372C12.9298 67.9251 12.4378 69.4509 11.7613 70.7147C11.1156 71.9477 10.2239 72.9033 9.08619 73.5815C7.97924 74.2288 6.56481 74.5525 4.84289 74.5525C4.16642 74.5525 3.41309 74.4908 2.58288 74.3675C1.78341 74.2442 0.922456 74.0747 0 73.8589Z" fill="white"/>
<path d="M83.2941 39.2695L79.2567 43.3061L76.5101 46.0336L73.7635 43.3061L69.7262 39.2695C68.1056 37.6602 68.1056 35.0965 69.7262 33.4872C71.3191 31.8779 73.9283 31.8779 75.5489 33.4872L76.5101 34.4418L77.4713 33.4872C79.0919 31.8779 81.7011 31.8779 83.2941 33.4872C84.9146 35.0965 84.9146 37.6602 83.2941 39.2695Z" fill="#52FF00"/>
</svg>
