<svg width="3535" height="2865" viewBox="0 0 3535 2865" fill="none" xmlns="http://www.w3.org/2000/svg">
<rect width="2206.77" height="1001.72" rx="500.86" transform="matrix(-0.707107 0.707107 0.707107 0.707107 2536.37 364)" fill="url(#paint0_linear_2001_14175)"/>
<rect width="891.388" height="159.701" rx="79.8505" transform="matrix(-0.707107 0.707107 0.707107 0.707107 2725.3 1449.23)" fill="url(#paint1_linear_2001_14175)"/>
<g filter="url(#filter0_f_2001_14175)">
<ellipse cx="1432.12" cy="2054.49" rx="561.125" ry="570.162" fill="#090088"/>
</g>
<path d="M1357 1738.35L1360.18 1780.17L1402 1783.35L1360.18 1786.53L1357 1828.35L1353.82 1786.53L1312 1783.35L1353.82 1780.17L1357 1738.35Z" fill="url(#paint2_radial_2001_14175)"/>
<path fill-rule="evenodd" clip-rule="evenodd" d="M1625.31 1894.3L1625.35 1894.34L1638.44 1881.25L1657.68 1861.89C1665.4 1854.17 1665.4 1841.86 1657.68 1834.14C1650.09 1826.42 1637.65 1826.42 1629.93 1834.14L1625.35 1838.72L1620.77 1834.14C1613.05 1826.42 1600.61 1826.42 1593.02 1834.14C1592.16 1835 1591.39 1835.92 1590.72 1836.88L1361.02 2066.59L1407.02 2112.59L1625.31 1894.3Z" fill="url(#paint3_radial_2001_14175)"/>
<path d="M1593.02 1861.89L1612.26 1881.25L1625.35 1894.34L1638.44 1881.25L1657.68 1861.89C1665.4 1854.17 1665.4 1841.86 1657.68 1834.14C1650.09 1826.42 1637.65 1826.42 1629.93 1834.14L1625.35 1838.72L1620.77 1834.14C1613.05 1826.42 1600.61 1826.42 1593.02 1834.14C1585.3 1841.86 1585.3 1854.17 1593.02 1861.89Z" fill="url(#paint4_radial_2001_14175)"/>
<path fill-rule="evenodd" clip-rule="evenodd" d="M2314.2 1855.33L2314.22 1855.35L2325.27 1844.29L2341.52 1827.93C2348.04 1821.41 2348.04 1811.02 2341.52 1804.5C2335.11 1797.98 2324.61 1797.98 2318.09 1804.5L2314.22 1808.37L2310.35 1804.5C2303.83 1797.98 2293.32 1797.98 2286.91 1804.5C2286.18 1805.23 2285.54 1806 2284.97 1806.82L2183.9 1907.89L2222.77 1946.76L2314.2 1855.33Z" fill="url(#paint5_radial_2001_14175)"/>
<path d="M2286.91 1827.93L2303.16 1844.29L2314.22 1855.35L2325.27 1844.29L2341.52 1827.93C2348.04 1821.41 2348.04 1811.02 2341.52 1804.5C2335.11 1797.98 2324.61 1797.98 2318.09 1804.5L2314.22 1808.37L2310.35 1804.5C2303.83 1797.98 2293.32 1797.98 2286.91 1804.5C2280.39 1811.02 2280.39 1821.41 2286.91 1827.93Z" fill="url(#paint6_radial_2001_14175)"/>
<path d="M2381.74 1529.08L2383.1 1546.98L2401 1548.34L2383.1 1549.7L2381.74 1567.6L2380.38 1549.7L2362.48 1548.34L2380.38 1546.98L2381.74 1529.08Z" fill="url(#paint7_radial_2001_14175)"/>
<path fill-rule="evenodd" clip-rule="evenodd" d="M2190.98 1853.7L2193.66 1851.02L2267.95 1776.23C2297.77 1746.42 2297.77 1698.92 2267.95 1669.1C2238.64 1639.29 2190.62 1639.29 2160.8 1669.1L2143.12 1686.79L2125.43 1669.1C2095.61 1639.29 2047.6 1639.29 2018.29 1669.1C2014.84 1672.55 2011.79 1676.24 2009.14 1680.11C2008.52 1680.63 2007.93 1681.18 2007.35 1681.75L1736.94 1952.17C1725.1 1964.01 1725.1 1983.21 1736.94 1995.05L1872.65 2130.76C1884.49 2142.6 1903.69 2142.6 1915.53 2130.76L2185.94 1860.35C2187.97 1858.32 2189.65 1856.08 2190.98 1853.7Z" fill="url(#paint8_linear_2001_14175)" fill-opacity="0.25"/>
<g filter="url(#filter1_f_2001_14175)">
<path d="M2021.75 1772.77L2021.75 1772.78L2021.76 1772.78L2096.04 1847.56L2096.05 1847.57L2143.12 1894.63L2190.18 1847.57L2190.19 1847.56L2264.47 1772.78L2264.48 1772.78L2264.49 1772.77C2292.39 1744.87 2292.39 1700.47 2264.49 1672.57L2264.47 1672.55L2264.46 1672.54C2237.08 1644.69 2192.19 1644.64 2164.27 1672.57L2160.8 1669.1L2164.27 1672.57L2146.58 1690.25L2143.12 1693.71L2139.66 1690.25L2121.97 1672.57C2094.04 1644.64 2049.15 1644.69 2021.78 1672.54L2021.76 1672.55L2021.75 1672.57C1993.84 1700.47 1993.84 1744.87 2021.75 1772.77Z" stroke="#00FFE1" stroke-width="9.79096"/>
</g>
<path d="M2021.75 1772.77L2021.75 1772.78L2021.76 1772.78L2096.04 1847.56L2096.05 1847.57L2143.12 1894.63L2190.18 1847.57L2190.19 1847.56L2264.47 1772.78L2264.48 1772.78L2264.49 1772.77C2292.39 1744.87 2292.39 1700.47 2264.49 1672.57L2264.47 1672.55L2264.46 1672.54C2237.08 1644.69 2192.19 1644.64 2164.27 1672.57L2160.8 1669.1L2164.27 1672.57L2146.58 1690.25L2143.12 1693.71L2139.66 1690.25L2121.97 1672.57C2094.04 1644.64 2049.15 1644.69 2021.78 1672.54L2021.76 1672.55L2021.75 1672.57C1993.84 1700.47 1993.84 1744.87 2021.75 1772.77Z" stroke="#00FFE1" stroke-width="9.79096"/>
<g filter="url(#filter2_f_2001_14175)">
<path d="M2020.18 1774.34L2020.19 1774.34L2094.48 1849.12L2094.48 1849.13L2143.12 1897.76L2191.75 1849.13L2191.76 1849.12L2266.04 1774.34L2266.05 1774.34C2294.82 1745.57 2294.82 1699.77 2266.05 1671L2266.04 1670.99L2266.03 1670.99C2237.78 1642.25 2191.48 1642.23 2162.7 1671L2145.01 1688.69L2143.12 1690.59L2141.22 1688.69L2123.53 1671C2094.75 1642.23 2048.45 1642.25 2020.2 1670.99L2020.19 1670.99L2020.18 1671C1991.41 1699.77 1991.41 1745.57 2020.18 1774.34Z" stroke="#96FFC0" stroke-width="5.36923"/>
</g>
<path d="M1708.73 2108.3L1950.67 1866.55L1898.2 1828.3L1664.05 2063.61L1708.73 2108.3Z" fill="url(#paint9_linear_2001_14175)"/>
<path d="M1930.65 1804.79L1938.33 1828.42H1963.17L1943.07 1843.02L1950.75 1866.65L1930.65 1852.05L1910.55 1866.65L1918.23 1843.02L1898.13 1828.42H1922.97L1930.65 1804.79Z" fill="url(#paint10_radial_2001_14175)"/>
<path d="M1600.61 2097.89L1930.42 1757.85L1858.9 1704.05L1539.7 2035.04L1600.61 2097.89Z" fill="url(#paint11_linear_2001_14175)"/>
<path d="M1903.12 1670.98L1913.59 1704.21H1947.46L1920.06 1724.75L1930.53 1757.99L1903.12 1737.45L1875.72 1757.99L1886.19 1724.75L1858.79 1704.21H1892.66L1903.12 1670.98Z" fill="url(#paint12_radial_2001_14175)"/>
<rect width="772.105" height="166.869" rx="83.4344" transform="matrix(-0.707107 0.707107 0.707107 0.707107 2476.41 952.43)" fill="url(#paint13_linear_2001_14175)"/>
<rect width="701.941" height="228.626" rx="114.313" transform="matrix(-0.707107 0.707107 0.707107 0.707107 2305.77 835.867)" fill="url(#paint14_linear_2001_14175)"/>
<path d="M2410.39 1326.16L2413.18 1361.93L2449.79 1364.65L2413.18 1367.37L2410.39 1403.13L2407.61 1367.37L2370.99 1364.65L2407.61 1361.93L2410.39 1326.16Z" fill="url(#paint15_radial_2001_14175)"/>
<g filter="url(#filter3_f_2001_14175)">
<ellipse cx="2382" cy="1048.23" rx="553" ry="562" fill="#6F00FD"/>
</g>
<defs>
<filter id="filter0_f_2001_14175" x="-114.871" y="498.457" width="3093.99" height="3112.07" filterUnits="userSpaceOnUse" color-interpolation-filters="sRGB">
<feFlood flood-opacity="0" result="BackgroundImageFix"/>
<feBlend mode="normal" in="SourceGraphic" in2="BackgroundImageFix" result="shape"/>
<feGaussianBlur stdDeviation="492.936" result="effect1_foregroundBlur_2001_14175"/>
</filter>
<filter id="filter1_f_2001_14175" x="1950.44" y="1601.26" width="385.352" height="345.774" filterUnits="userSpaceOnUse" color-interpolation-filters="sRGB">
<feFlood flood-opacity="0" result="BackgroundImageFix"/>
<feBlend mode="normal" in="SourceGraphic" in2="BackgroundImageFix" result="shape"/>
<feGaussianBlur stdDeviation="22.7403" result="effect1_foregroundBlur_2001_14175"/>
</filter>
<filter id="filter2_f_2001_14175" x="1991.5" y="1642.32" width="303.234" height="263.656" filterUnits="userSpaceOnUse" color-interpolation-filters="sRGB">
<feFlood flood-opacity="0" result="BackgroundImageFix"/>
<feBlend mode="normal" in="SourceGraphic" in2="BackgroundImageFix" result="shape"/>
<feGaussianBlur stdDeviation="2.21086" result="effect1_foregroundBlur_2001_14175"/>
</filter>
<filter id="filter3_f_2001_14175" x="1229" y="-113.773" width="2306" height="2324" filterUnits="userSpaceOnUse" color-interpolation-filters="sRGB">
<feFlood flood-opacity="0" result="BackgroundImageFix"/>
<feBlend mode="normal" in="SourceGraphic" in2="BackgroundImageFix" result="shape"/>
<feGaussianBlur stdDeviation="300" result="effect1_foregroundBlur_2001_14175"/>
</filter>
<linearGradient id="paint0_linear_2001_14175" x1="-94.0516" y1="734.312" x2="2403.5" y2="598.211" gradientUnits="userSpaceOnUse">
<stop stop-color="#02D9F7"/>
<stop offset="0.65" stop-color="#A000FF" stop-opacity="0"/>
</linearGradient>
<linearGradient id="paint1_linear_2001_14175" x1="-37.9905" y1="117.069" x2="954.919" y2="-20.0212" gradientUnits="userSpaceOnUse">
<stop stop-color="#FF0099"/>
<stop offset="0.65" stop-color="#A000FF" stop-opacity="0"/>
</linearGradient>
<radialGradient id="paint2_radial_2001_14175" cx="0" cy="0" r="1" gradientUnits="userSpaceOnUse" gradientTransform="translate(1330.38 1747.01) rotate(49.4615) scale(88.2062 121.811)">
<stop stop-color="#FF00D6"/>
<stop offset="0.562168" stop-color="#FF004D"/>
<stop offset="1" stop-color="#FF6291"/>
</radialGradient>
<radialGradient id="paint3_radial_2001_14175" cx="0" cy="0" r="1" gradientUnits="userSpaceOnUse" gradientTransform="translate(1635.2 1839.93) rotate(137.083) scale(159.855 223.292)">
<stop stop-color="#009FF0"/>
<stop offset="0.562168" stop-color="#00F0EA" stop-opacity="0.1"/>
<stop offset="1" stop-color="#0074F0" stop-opacity="0"/>
</radialGradient>
<radialGradient id="paint4_radial_2001_14175" cx="0" cy="0" r="1" gradientUnits="userSpaceOnUse" gradientTransform="translate(1663.47 1822.43) rotate(147.075) scale(132.311 184.944)">
<stop stop-color="#00F0D6"/>
<stop offset="0.562168" stop-color="#0088F0"/>
<stop offset="1" stop-color="#52B4FF"/>
</radialGradient>
<radialGradient id="paint5_radial_2001_14175" cx="0" cy="0" r="1" gradientUnits="userSpaceOnUse" gradientTransform="translate(2321.78 1809.75) rotate(136.953) scale(139.594 195.053)">
<stop stop-color="#FF00C7"/>
<stop offset="0.562168" stop-color="#DB00FF" stop-opacity="0.1"/>
<stop offset="1" stop-color="#FF0099" stop-opacity="0"/>
</radialGradient>
<radialGradient id="paint6_radial_2001_14175" cx="0" cy="0" r="1" gradientUnits="userSpaceOnUse" gradientTransform="translate(2333.26 1804.97) rotate(134.657) scale(58.3613 81.5774)">
<stop stop-color="#02D9F7"/>
<stop offset="0.562168" stop-color="#A000FF"/>
<stop offset="1" stop-color="#FF0099"/>
</radialGradient>
<radialGradient id="paint7_radial_2001_14175" cx="0" cy="0" r="1" gradientUnits="userSpaceOnUse" gradientTransform="translate(2381.74 1536.65) rotate(136.73) scale(25.4163 31.9947)">
<stop stop-color="#ADFFEE"/>
<stop offset="1" stop-color="#2DF9FF"/>
</radialGradient>
<linearGradient id="paint8_linear_2001_14175" x1="2084.1" y1="1698.13" x2="1742.84" y2="2070.12" gradientUnits="userSpaceOnUse">
<stop stop-color="#0CFFDE"/>
<stop offset="0.65" stop-color="#0CFFDE" stop-opacity="0"/>
</linearGradient>
<linearGradient id="paint9_linear_2001_14175" x1="1753.56" y1="2006.65" x2="1920.72" y2="1837.17" gradientUnits="userSpaceOnUse">
<stop stop-color="#FF8C00" stop-opacity="0"/>
<stop offset="0.571863" stop-color="#FF002B" stop-opacity="0.31"/>
<stop offset="1" stop-color="#ED00FF"/>
</linearGradient>
<radialGradient id="paint10_radial_2001_14175" cx="0" cy="0" r="1" gradientUnits="userSpaceOnUse" gradientTransform="translate(1910.42 1811.37) rotate(49.4615) scale(67.0304 92.5678)">
<stop stop-color="#FF3E00"/>
<stop offset="0.562168" stop-color="#FFC800"/>
<stop offset="1" stop-color="#FFDD62"/>
</radialGradient>
<linearGradient id="paint11_linear_2001_14175" x1="1649.55" y1="1966.91" x2="1897.2" y2="1724.29" gradientUnits="userSpaceOnUse">
<stop stop-color="#5900FF" stop-opacity="0"/>
<stop offset="0.473957" stop-color="#005EFF" stop-opacity="0.31"/>
<stop offset="1" stop-color="#00FFBA"/>
</linearGradient>
<radialGradient id="paint12_radial_2001_14175" cx="0" cy="0" r="1" gradientUnits="userSpaceOnUse" gradientTransform="translate(1875.55 1680.23) rotate(50.346) scale(93.0666 127.839)">
<stop stop-color="#026FF7"/>
<stop offset="0.562168" stop-color="#FF00EF"/>
<stop offset="1" stop-color="#FF002B"/>
</radialGradient>
<linearGradient id="paint13_linear_2001_14175" x1="-32.9068" y1="122.323" x2="832.196" y2="23.307" gradientUnits="userSpaceOnUse">
<stop stop-color="#02D9F7"/>
<stop offset="0.65" stop-color="#A000FF" stop-opacity="0"/>
</linearGradient>
<linearGradient id="paint14_linear_2001_14175" x1="-29.9164" y1="167.595" x2="762.305" y2="107.427" gradientUnits="userSpaceOnUse">
<stop stop-color="#FF0099"/>
<stop offset="0.65" stop-color="#A000FF" stop-opacity="0"/>
</linearGradient>
<radialGradient id="paint15_radial_2001_14175" cx="0" cy="0" r="1" gradientUnits="userSpaceOnUse" gradientTransform="translate(2410.41 1341.29) rotate(137.402) scale(51.4257 64.6264)">
<stop stop-color="#FFE4AD"/>
<stop offset="1" stop-color="#FFEC2D"/>
</radialGradient>
</defs>
</svg>
