<svg width="404" height="363" viewBox="0 0 404 363" fill="none" xmlns="http://www.w3.org/2000/svg">
<g filter="url(#filter0_f_975_31644)">
<path d="M107.284 185.049L107.29 185.055L107.295 185.061L165.71 243.866L165.722 243.878L201.996 280.147L238.269 243.878L238.281 243.866L296.696 185.061L296.702 185.055L296.708 185.049C318.247 163.512 318.247 129.257 296.708 107.72L296.693 107.706L296.678 107.69C275.561 86.2096 240.924 86.1664 219.367 107.72L215.906 104.259L219.367 107.72L205.457 121.629L201.996 125.09L198.534 121.629L184.624 107.72C163.067 86.1664 128.431 86.2096 107.313 107.69L107.299 107.706L107.284 107.72C85.7439 129.257 85.7439 163.512 107.284 185.049Z" stroke="#00FFE1" stroke-width="9.79096"/>
</g>
<g filter="url(#filter1_f_975_31644)">
<path d="M78.7722 181.038L78.7815 181.048L153.747 256.514L153.756 256.523L201.997 304.758L250.238 256.523L250.248 256.514L325.213 181.048L325.222 181.038C353.795 152.469 353.795 107.001 325.222 78.4315L325.21 78.4196L325.199 78.4077C297.157 49.8831 251.187 49.8488 222.601 78.4315L204.751 96.2791L201.997 99.0328L199.243 96.2791L181.393 78.4315C152.807 49.8488 106.837 49.8831 78.7957 78.4077L78.784 78.4196L78.7722 78.4315C50.1994 107.001 50.1994 152.469 78.7722 181.038Z" stroke="#00FFE1" stroke-width="7.79"/>
</g>
<path d="M105.516 186.817L105.521 186.823L163.942 245.634L163.948 245.64L201.996 283.683L240.043 245.64L240.049 245.634L298.47 186.823L298.476 186.817C320.992 164.304 320.992 128.466 298.476 105.952L298.468 105.945L298.461 105.938C276.356 83.4514 240.124 83.4303 217.599 105.952L203.689 119.861L201.996 121.554L200.302 119.861L186.392 105.952C163.867 83.4303 127.636 83.4514 105.53 105.938L105.523 105.945L105.516 105.952C82.9993 128.466 82.9993 164.304 105.516 186.817Z" stroke="#00FFE1" stroke-width="4.79"/>
<g filter="url(#filter2_f_975_31644)">
<path d="M104.307 188.027L104.308 188.028L162.733 246.843L162.735 246.845L201.996 286.101L241.256 246.845L241.258 246.843L299.683 188.028L299.685 188.027C322.869 164.845 322.869 127.924 299.685 104.743L299.685 104.743L299.68 104.739C276.899 81.5652 239.577 81.5592 216.39 104.743L202.48 118.651L201.996 119.136L201.511 118.651L187.601 104.743C164.414 81.5592 127.092 81.5652 104.311 104.739L104.307 104.743C81.1223 127.924 81.1223 164.845 104.307 188.027Z" stroke="#96FFC0" stroke-width="1.37"/>
</g>
<defs>
<filter id="filter0_f_975_31644" x="40.7538" y="41.1913" width="322.485" height="291.36" filterUnits="userSpaceOnUse" color-interpolation-filters="sRGB">
<feFlood flood-opacity="0" result="BackgroundImageFix"/>
<feBlend mode="normal" in="SourceGraphic" in2="BackgroundImageFix" result="shape"/>
<feGaussianBlur stdDeviation="22.7403" result="effect1_foregroundBlur_975_31644"/>
</filter>
<filter id="filter1_f_975_31644" x="0.965313" y="0.629375" width="402.062" height="362.116" filterUnits="userSpaceOnUse" color-interpolation-filters="sRGB">
<feFlood flood-opacity="0" result="BackgroundImageFix"/>
<feBlend mode="normal" in="SourceGraphic" in2="BackgroundImageFix" result="shape"/>
<feGaussianBlur stdDeviation="26.24" result="effect1_foregroundBlur_975_31644"/>
</filter>
<filter id="filter2_f_975_31644" x="81.8127" y="82.2502" width="240.367" height="209.242" filterUnits="userSpaceOnUse" color-interpolation-filters="sRGB">
<feFlood flood-opacity="0" result="BackgroundImageFix"/>
<feBlend mode="normal" in="SourceGraphic" in2="BackgroundImageFix" result="shape"/>
<feGaussianBlur stdDeviation="2.21086" result="effect1_foregroundBlur_975_31644"/>
</filter>
</defs>
</svg>
