<svg width="93" height="62" viewBox="0 0 93 62" fill="none" xmlns="http://www.w3.org/2000/svg">
<path d="M42.799 0.28125C46.2235 0.28125 49.1714 0.987332 51.6427 2.39949C54.114 3.81166 56.0204 5.87695 57.3619 8.59537C58.7035 11.2785 59.3743 14.6324 59.3743 18.657C59.3743 22.9288 58.5623 26.5475 56.9383 29.513C55.3496 32.4786 53.1431 34.738 50.3188 36.2914C47.4944 37.8448 44.2112 38.6215 40.4689 38.6215C38.5272 38.6215 36.6561 38.4097 34.8556 37.986C33.0551 37.5624 31.5017 36.9269 30.1954 36.0796L33.3728 29.7778C34.3966 30.4839 35.4911 30.9782 36.6561 31.2606C37.8211 31.5077 39.0391 31.6313 40.3101 31.6313C43.4874 31.6313 46.0117 30.6604 47.8828 28.7187C49.7892 26.777 50.7424 23.8997 50.7424 20.0868C50.7424 19.4514 50.7248 18.7453 50.6895 17.9686C50.6542 17.1919 50.5659 16.4152 50.4247 15.6385L52.7548 17.8627C52.1546 19.2395 51.3073 20.4046 50.2129 21.3578C49.1184 22.2757 47.8475 22.9818 46.4 23.476C44.9526 23.935 43.3286 24.1645 41.5281 24.1645C39.1627 24.1645 37.0091 23.6879 35.0674 22.7347C33.161 21.7814 31.6253 20.4399 30.4602 18.71C29.3305 16.9801 28.7656 14.9501 28.7656 12.62C28.7656 10.0781 29.3834 7.88928 30.6191 6.05347C31.89 4.21766 33.5846 2.80549 35.7029 1.81698C37.8564 0.79316 40.2218 0.28125 42.799 0.28125ZM43.3286 6.68894C42.0929 6.68894 41.0161 6.91842 40.0982 7.37737C39.1803 7.80102 38.4566 8.43649 37.927 9.28379C37.3975 10.0958 37.1327 11.0667 37.1327 12.1964C37.1327 13.891 37.6976 15.2502 38.8273 16.274C39.9923 17.2625 41.5281 17.7568 43.4345 17.7568C44.6701 17.7568 45.7645 17.5273 46.7178 17.0683C47.7063 16.5741 48.4653 15.9033 48.9949 15.056C49.5244 14.2087 49.7892 13.2555 49.7892 12.1964C49.7892 11.1373 49.5244 10.2017 48.9949 9.38971C48.5006 8.54241 47.7769 7.88928 46.8237 7.43033C45.8705 6.93607 44.7054 6.68894 43.3286 6.68894Z" fill="white"/>
<path d="M17.5293 34.9119L13.6635 31.0991H25.1021V37.9834H0.265625V31.0991H12.7633L8.89748 34.9119V4.09143L12.6044 7.79836H0.954056V0.914062H17.5293V34.9119Z" fill="white"/>
<path d="M81.7578 13.5787V0.429688H91.6759V2.02636H83.6175V5.78323H87.7124C89.2778 5.78323 90.4675 6.10882 91.2815 6.76001C92.0955 7.4112 92.5025 8.35668 92.5025 9.59645C92.5025 10.8738 92.0579 11.8568 91.1688 12.5456C90.2922 13.2344 89.0336 13.5787 87.3931 13.5787H81.7578ZM83.6175 12.0948H87.318C88.4075 12.0948 89.2277 11.8881 89.7787 11.4749C90.3423 11.0616 90.624 10.448 90.624 9.63402C90.624 8.05613 89.522 7.26719 87.318 7.26719H83.6175V12.0948Z" fill="white"/>
<path d="M73.5908 13.7308C72.589 13.7308 71.6623 13.568 70.8108 13.2424C69.9717 12.9043 69.2391 12.4347 68.613 11.8336C67.9994 11.22 67.5172 10.5062 67.1666 9.69221C66.8159 8.87822 66.6406 7.98283 66.6406 7.00604C66.6406 6.02926 66.8159 5.13387 67.1666 4.31988C67.5172 3.5059 68.0056 2.79835 68.6318 2.19725C69.2579 1.58363 69.9905 1.11402 70.8295 0.788426C71.6811 0.450309 72.6078 0.28125 73.6096 0.28125C74.624 0.28125 75.5569 0.45657 76.4085 0.807211C77.2726 1.14533 78.0052 1.65251 78.6063 2.32874L77.3853 3.51216C76.8844 2.9862 76.3208 2.59799 75.6947 2.34753C75.0685 2.08455 74.3986 1.95306 73.6848 1.95306C72.9459 1.95306 72.2571 2.07828 71.6185 2.32874C70.9923 2.5792 70.4476 2.92984 69.9842 3.38067C69.5209 3.83149 69.1577 4.36998 68.8947 4.99612C68.6443 5.60974 68.5191 6.27972 68.5191 7.00604C68.5191 7.73237 68.6443 8.40861 68.8947 9.03475C69.1577 9.64838 69.5209 10.1806 69.9842 10.6314C70.4476 11.0822 70.9923 11.4329 71.6185 11.6833C72.2571 11.9338 72.9459 12.059 73.6848 12.059C74.3986 12.059 75.0685 11.9338 75.6947 11.6833C76.3208 11.4204 76.8844 11.0196 77.3853 10.4811L78.6063 11.6646C78.0052 12.3408 77.2726 12.8542 76.4085 13.2049C75.5569 13.5555 74.6177 13.7308 73.5908 13.7308Z" fill="white"/>
<path d="M90.5269 61.0006V56.7178L91.0153 57.1686H86.9016C85.8371 57.1686 84.9167 56.987 84.1403 56.6239C83.3764 56.2607 82.7878 55.741 82.3745 55.0648C81.9738 54.376 81.7734 53.5495 81.7734 52.5852C81.7734 51.5834 81.9926 50.7318 82.4309 50.0305C82.8692 49.3167 83.4891 48.7783 84.2905 48.4151C85.092 48.0394 86.025 47.8516 87.0894 47.8516H92.3678V61.0006H90.5269ZM81.7734 61.0006L85.0231 56.3421H86.9391L83.7646 61.0006H81.7734ZM90.5269 56.1167V48.9411L91.0153 49.4858H87.1645C86.0375 49.4858 85.1734 49.7488 84.5723 50.2747C83.9712 50.7882 83.6707 51.5521 83.6707 52.5664C83.6707 53.5307 83.9524 54.2758 84.516 54.8018C85.092 55.3277 85.9373 55.5907 87.0518 55.5907H91.0153L90.5269 56.1167Z" fill="white"/>
<path d="M69.2344 61.0006V47.8516H74.3625C75.5146 47.8516 76.4977 48.0331 77.3116 48.3963C78.1256 48.7595 78.7518 49.2854 79.1901 49.9742C79.6284 50.663 79.8475 51.4832 79.8475 52.4349C79.8475 53.3867 79.6284 54.2069 79.1901 54.8957C78.7518 55.5719 78.1256 56.0979 77.3116 56.4736C76.4977 56.8367 75.5146 57.0183 74.3625 57.0183H70.2675L71.1128 56.1355V61.0006H69.2344ZM71.1128 56.3233L70.2675 55.3841H74.3062C75.5083 55.3841 76.4163 55.1274 77.0299 54.6139C77.656 54.1005 77.9691 53.3742 77.9691 52.4349C77.9691 51.4957 77.656 50.7694 77.0299 50.256C76.4163 49.7425 75.5083 49.4858 74.3062 49.4858H70.2675L71.1128 48.5466V56.3233Z" fill="white"/>
<path d="M55.4922 61.0006V47.8516H65.4103V49.4482H57.3518V53.2051H61.4468C63.0122 53.2051 64.2019 53.5307 65.0158 54.1819C65.8298 54.8331 66.2368 55.7786 66.2368 57.0183C66.2368 58.2957 65.7923 59.2787 64.9031 59.9675C64.0265 60.6562 62.768 61.0006 61.1275 61.0006H55.4922ZM57.3518 59.5166H61.0524C62.1418 59.5166 62.9621 59.31 63.5131 58.8968C64.0766 58.4835 64.3584 57.8699 64.3584 57.0559C64.3584 55.478 63.2564 54.6891 61.0524 54.6891H57.3518V59.5166Z" fill="white"/>
<path d="M50.3004 61.0006V56.7178L50.7888 57.1686H46.675C45.6106 57.1686 44.6901 56.987 43.9137 56.6239C43.1498 56.2607 42.5612 55.741 42.148 55.0648C41.7472 54.376 41.5469 53.5495 41.5469 52.5852C41.5469 51.5834 41.766 50.7318 42.2043 50.0305C42.6426 49.3167 43.2625 48.7783 44.064 48.4151C44.8654 48.0394 45.7984 47.8516 46.8628 47.8516H52.1412V61.0006H50.3004ZM41.5469 61.0006L44.7966 56.3421H46.7126L43.538 61.0006H41.5469ZM50.3004 56.1167V48.9411L50.7888 49.4858H46.938C45.8109 49.4858 44.9468 49.7488 44.3457 50.2747C43.7446 50.7882 43.4441 51.5521 43.4441 52.5664C43.4441 53.5307 43.7259 54.2758 44.2894 54.8018C44.8654 55.3277 45.7107 55.5907 46.8253 55.5907H50.7888L50.3004 56.1167Z" fill="white"/>
<path d="M33.8801 61.0006V48.9974L34.3497 49.4858H29.3906V47.8516H40.2292V49.4858H35.2701L35.7209 48.9974V61.0006H33.8801Z" fill="white"/>
<path d="M26.6912 61.0006L21.92 54.52L23.4415 53.5808L28.8326 61.0006H26.6912ZM17.8438 61.0006V47.8516H19.6846V61.0006H17.8438ZM19.1211 55.215V53.562H23.3851V55.215H19.1211ZM23.6105 54.6327L21.8824 54.3697L26.5973 47.8516H28.6072L23.6105 54.6327Z" fill="white"/>
<path d="M7.27219 61.1527C6.27035 61.1527 5.3374 60.9837 4.47332 60.6455C3.62176 60.3074 2.88291 59.8378 2.25677 59.2367C1.63062 58.6231 1.14223 57.9093 0.791587 57.0953C0.440946 56.2813 0.265625 55.3922 0.265625 54.4279C0.265625 53.4637 0.440946 52.5745 0.791587 51.7605C1.14223 50.9466 1.63062 50.239 2.25677 49.6379C2.88291 49.0243 3.62176 48.5484 4.47332 48.2103C5.32488 47.8722 6.25783 47.7031 7.27219 47.7031C8.27402 47.7031 9.19445 47.8722 10.0335 48.2103C10.885 48.5359 11.6239 49.0055 12.25 49.6191C12.8887 50.2202 13.3771 50.9278 13.7152 51.7418C14.0659 52.5557 14.2412 53.4511 14.2412 54.4279C14.2412 55.4047 14.0659 56.3001 13.7152 57.1141C13.3771 57.9281 12.8887 58.6419 12.25 59.2555C11.6239 59.8566 10.885 60.3262 10.0335 60.6643C9.19445 60.9899 8.27402 61.1527 7.27219 61.1527ZM7.27219 59.4809C7.99851 59.4809 8.66849 59.3557 9.28211 59.1052C9.90825 58.8548 10.4467 58.5041 10.8976 58.0533C11.3609 57.59 11.7178 57.0515 11.9683 56.4378C12.2313 55.8242 12.3627 55.1542 12.3627 54.4279C12.3627 53.7016 12.2313 53.0316 11.9683 52.418C11.7178 51.8044 11.3609 51.2721 10.8976 50.8213C10.4467 50.358 9.90825 50.0011 9.28211 49.7506C8.66849 49.5002 7.99851 49.3749 7.27219 49.3749C6.53333 49.3749 5.85084 49.5002 5.22469 49.7506C4.61107 50.0011 4.07259 50.358 3.60924 50.8213C3.14589 51.2721 2.78273 51.8044 2.51975 52.418C2.26929 53.0316 2.14406 53.7016 2.14406 54.4279C2.14406 55.1542 2.26929 55.8242 2.51975 56.4378C2.78273 57.0515 3.14589 57.59 3.60924 58.0533C4.07259 58.5041 4.61107 58.8548 5.22469 59.1052C5.85084 59.3557 6.53333 59.4809 7.27219 59.4809Z" fill="white"/>
</svg>
