<svg width="1280" height="863" viewBox="0 0 1280 863" fill="none" xmlns="http://www.w3.org/2000/svg">
<g clip-path="url(#clip0_984_14204)">
<rect width="1280" height="862" transform="translate(0 0.492188)" fill="#0D020D"/>
<g filter="url(#filter0_f_984_14204)">
<ellipse cx="1135" cy="-13.2109" rx="553" ry="562" fill="#6F00FD"/>
</g>
<rect width="2206.77" height="1001.72" rx="500.86" transform="matrix(-0.707107 0.707107 0.707107 0.707107 1289.37 -697.438)" fill="url(#paint0_linear_984_14204)"/>
<rect width="891.388" height="263.176" rx="131.588" transform="matrix(-0.707107 0.707107 0.707107 0.707107 1478.3 387.789)" fill="url(#paint1_linear_984_14204)"/>
<g filter="url(#filter1_f_984_14204)">
<ellipse cx="183.625" cy="982.576" rx="561.125" ry="570.162" fill="#090088"/>
</g>
<rect width="772.105" height="166.869" rx="83.4344" transform="matrix(-0.707107 0.707107 0.707107 0.707107 1229.41 -109.008)" fill="url(#paint2_linear_984_14204)"/>
<rect width="701.941" height="228.626" rx="114.313" transform="matrix(-0.707107 0.707107 0.707107 0.707107 1058.77 -225.57)" fill="url(#paint3_linear_984_14204)"/>
<path opacity="0.15" d="M125.328 501.641L143.324 738.609L379.828 756.641L143.324 774.672L125.328 1011.64L107.332 774.672L-129.172 756.641L107.332 738.609L125.328 501.641Z" fill="#02D9F7"/>
</g>
<defs>
<filter id="filter0_f_984_14204" x="-18" y="-1175.21" width="2306" height="2324" filterUnits="userSpaceOnUse" color-interpolation-filters="sRGB">
<feFlood flood-opacity="0" result="BackgroundImageFix"/>
<feBlend mode="normal" in="SourceGraphic" in2="BackgroundImageFix" result="shape"/>
<feGaussianBlur stdDeviation="300" result="effect1_foregroundBlur_984_14204"/>
</filter>
<filter id="filter1_f_984_14204" x="-1363.37" y="-573.457" width="3093.99" height="3112.07" filterUnits="userSpaceOnUse" color-interpolation-filters="sRGB">
<feFlood flood-opacity="0" result="BackgroundImageFix"/>
<feBlend mode="normal" in="SourceGraphic" in2="BackgroundImageFix" result="shape"/>
<feGaussianBlur stdDeviation="492.936" result="effect1_foregroundBlur_984_14204"/>
</filter>
<linearGradient id="paint0_linear_984_14204" x1="-94.0516" y1="734.312" x2="2403.5" y2="598.211" gradientUnits="userSpaceOnUse">
<stop stop-color="#02D9F7"/>
<stop offset="0.65" stop-color="#A000FF" stop-opacity="0"/>
</linearGradient>
<linearGradient id="paint1_linear_984_14204" x1="-37.9905" y1="192.922" x2="966.793" y2="108.737" gradientUnits="userSpaceOnUse">
<stop stop-color="#FF0099"/>
<stop offset="0.65" stop-color="#A000FF" stop-opacity="0"/>
</linearGradient>
<linearGradient id="paint2_linear_984_14204" x1="-32.9068" y1="122.323" x2="832.196" y2="23.307" gradientUnits="userSpaceOnUse">
<stop stop-color="#02D9F7"/>
<stop offset="0.65" stop-color="#A000FF" stop-opacity="0"/>
</linearGradient>
<linearGradient id="paint3_linear_984_14204" x1="-29.9164" y1="167.595" x2="762.305" y2="107.427" gradientUnits="userSpaceOnUse">
<stop stop-color="#FF0099"/>
<stop offset="0.65" stop-color="#A000FF" stop-opacity="0"/>
</linearGradient>
<clipPath id="clip0_984_14204">
<rect width="1280" height="862" fill="white" transform="translate(0 0.492188)"/>
</clipPath>
</defs>
</svg>
