<svg width="320" height="584" viewBox="0 0 320 584" fill="none" xmlns="http://www.w3.org/2000/svg">
<g clip-path="url(#clip0_984_14724)">
<rect width="320" height="583" transform="translate(0 0.5)" fill="#0D020D"/>
<g filter="url(#filter0_f_984_14724)">
<ellipse cx="164.047" cy="1006.57" rx="561.125" ry="570.162" fill="#090088"/>
</g>
<rect width="781.081" height="354.556" rx="177.278" transform="matrix(-0.707107 0.707107 0.707107 0.707107 355.922 -220.898)" fill="url(#paint0_linear_984_14724)"/>
<rect width="423.42" height="75.8599" rx="37.93" transform="matrix(-0.707107 0.707107 0.707107 0.707107 456.539 -14.2891)" fill="url(#paint1_linear_984_14724)"/>
<path fill-rule="evenodd" clip-rule="evenodd" d="M75.3924 180.209L75.4012 180.218L80.6524 174.967L88.3715 167.197C91.4699 164.099 91.4699 159.164 88.3715 156.066C85.326 152.968 80.3373 152.968 77.239 156.066L75.4012 157.903L73.5635 156.066C70.4651 152.968 65.4764 152.968 62.4309 156.066C62.0879 156.409 61.7828 156.774 61.5157 157.157L13.4957 205.177L31.96 223.642L75.3924 180.209Z" fill="url(#paint2_radial_984_14724)"/>
<path d="M62.4309 167.197L70.15 174.967L75.4012 180.218L80.6524 174.967L88.3715 167.197C91.4699 164.099 91.4699 159.164 88.3715 156.066C85.326 152.968 80.3373 152.968 77.239 156.066L75.4012 157.903L73.5634 156.066C70.4651 152.968 65.4764 152.968 62.4309 156.066C59.3325 159.164 59.3325 164.099 62.4309 167.197Z" fill="url(#paint3_radial_984_14724)"/>
<path fill-rule="evenodd" clip-rule="evenodd" d="M222.822 177.832L224.087 176.567L259.376 141.042C273.541 126.879 273.541 104.317 259.376 90.1535C245.453 75.9905 222.647 75.9905 208.482 90.1535L200.08 98.5541L191.679 90.1535C177.514 75.9905 154.707 75.9905 140.784 90.1535C139.144 91.7936 137.693 93.5463 136.433 95.3855C136.145 95.6316 135.864 95.8908 135.592 96.1633L7.14145 224.614C1.51691 230.238 1.51691 239.357 7.14145 244.982L71.6065 309.447C77.231 315.072 86.3503 315.072 91.9748 309.447L220.425 180.997C221.389 180.033 222.188 178.966 222.822 177.832Z" fill="url(#paint4_linear_984_14724)" fill-opacity="0.25"/>
<g filter="url(#filter1_f_984_14724)">
<path d="M142.428 139.397L142.434 139.403L177.718 174.922L177.723 174.928L200.08 197.282L222.437 174.928L222.443 174.922L257.727 139.403L257.732 139.397C270.989 126.142 270.989 105.053 257.732 91.7979L257.725 91.7909L257.718 91.7837C244.714 78.5555 223.391 78.535 210.126 91.7979L201.724 100.199L200.08 101.843L198.436 100.199L190.034 91.7979C176.77 78.535 155.447 78.5555 142.442 91.7837L142.435 91.7909L142.428 91.7979C129.172 105.053 129.172 126.142 142.428 139.397Z" stroke="#00FFE1" stroke-width="4.65082"/>
</g>
<path d="M142.428 139.397L142.434 139.403L177.718 174.922L177.723 174.928L200.08 197.282L222.437 174.928L222.443 174.922L257.727 139.403L257.732 139.397C270.989 126.142 270.989 105.053 257.732 91.7979L257.725 91.7909L257.718 91.7837C244.714 78.5555 223.391 78.535 210.126 91.7979L201.724 100.199L200.08 101.843L198.436 100.199L190.034 91.7979C176.77 78.535 155.447 78.5555 142.442 91.7837L142.435 91.7909L142.428 91.7979C129.172 105.053 129.172 126.142 142.428 139.397Z" stroke="#00FFE1" stroke-width="4.65082"/>
<g filter="url(#filter2_f_984_14724)">
<path d="M141.686 140.14L141.689 140.143L176.975 175.665L176.978 175.668L200.08 198.767L223.182 175.668L223.185 175.665L258.472 140.143L258.475 140.14C272.141 126.475 272.141 104.72 258.475 91.0553L258.475 91.0553L258.467 91.0475C245.048 77.3971 223.055 77.3859 209.384 91.0553L200.982 99.4559L200.08 100.357L199.179 99.4559L190.777 91.0553C177.106 77.3859 155.113 77.3971 141.693 91.0475L141.686 91.0553C128.019 104.72 128.019 126.475 141.686 140.14Z" stroke="#96FFC0" stroke-width="2.55045"/>
</g>
<path d="M196.044 315.06L281.929 229.242L263.305 215.663L180.182 299.197L196.044 315.06Z" fill="url(#paint5_linear_984_14724)"/>
<path d="M274.819 207.312L277.545 215.701H286.365L279.229 220.885L281.955 229.273L274.819 224.089L267.684 229.273L270.409 220.885L263.274 215.701H272.094L274.819 207.312Z" fill="url(#paint6_radial_984_14724)"/>
<path d="M157.665 311.359L274.743 190.649L249.354 171.548L136.041 289.046L157.665 311.359Z" fill="url(#paint7_linear_984_14724)"/>
<path d="M265.049 159.805L268.764 171.604H280.787L271.06 178.896L274.776 190.694L265.049 183.402L255.322 190.694L259.037 178.896L249.31 171.604H261.333L265.049 159.805Z" fill="url(#paint8_radial_984_14724)"/>
</g>
<defs>
<filter id="filter0_f_984_14724" x="-1382.95" y="-549.465" width="3093.99" height="3112.07" filterUnits="userSpaceOnUse" color-interpolation-filters="sRGB">
<feFlood flood-opacity="0" result="BackgroundImageFix"/>
<feBlend mode="normal" in="SourceGraphic" in2="BackgroundImageFix" result="shape"/>
<feGaussianBlur stdDeviation="492.936" result="effect1_foregroundBlur_984_14724"/>
</filter>
<filter id="filter1_f_984_14724" x="108.56" y="57.9274" width="183.044" height="164.247" filterUnits="userSpaceOnUse" color-interpolation-filters="sRGB">
<feFlood flood-opacity="0" result="BackgroundImageFix"/>
<feBlend mode="normal" in="SourceGraphic" in2="BackgroundImageFix" result="shape"/>
<feGaussianBlur stdDeviation="10.8019" result="effect1_foregroundBlur_984_14724"/>
</filter>
<filter id="filter2_f_984_14724" x="128.064" y="77.4309" width="144.037" height="125.24" filterUnits="userSpaceOnUse" color-interpolation-filters="sRGB">
<feFlood flood-opacity="0" result="BackgroundImageFix"/>
<feBlend mode="normal" in="SourceGraphic" in2="BackgroundImageFix" result="shape"/>
<feGaussianBlur stdDeviation="1.05019" result="effect1_foregroundBlur_984_14724"/>
</filter>
<linearGradient id="paint0_linear_984_14724" x1="-33.2893" y1="259.908" x2="850.711" y2="211.735" gradientUnits="userSpaceOnUse">
<stop stop-color="#02D9F7"/>
<stop offset="0.65" stop-color="#A000FF" stop-opacity="0"/>
</linearGradient>
<linearGradient id="paint1_linear_984_14724" x1="-18.046" y1="55.6092" x2="453.598" y2="-9.51032" gradientUnits="userSpaceOnUse">
<stop stop-color="#FF0099"/>
<stop offset="0.65" stop-color="#A000FF" stop-opacity="0"/>
</linearGradient>
<radialGradient id="paint2_radial_984_14724" cx="0" cy="0" r="1" gradientUnits="userSpaceOnUse" gradientTransform="translate(78.9943 158.558) rotate(136.954) scale(66.3121 92.6571)">
<stop stop-color="#FF00C7"/>
<stop offset="0.562168" stop-color="#DB00FF" stop-opacity="0.1"/>
<stop offset="1" stop-color="#FF0099" stop-opacity="0"/>
</radialGradient>
<radialGradient id="paint3_radial_984_14724" cx="0" cy="0" r="1" gradientUnits="userSpaceOnUse" gradientTransform="translate(84.4484 156.288) rotate(134.657) scale(27.7223 38.7503)">
<stop stop-color="#02D9F7"/>
<stop offset="0.562168" stop-color="#A000FF"/>
<stop offset="1" stop-color="#FF0099"/>
</radialGradient>
<linearGradient id="paint4_linear_984_14724" x1="172.047" y1="103.94" x2="9.94431" y2="280.639" gradientUnits="userSpaceOnUse">
<stop stop-color="#0CFFDE"/>
<stop offset="0.65" stop-color="#0CFFDE" stop-opacity="0"/>
</linearGradient>
<linearGradient id="paint5_linear_984_14724" x1="211.956" y1="278.978" x2="271.298" y2="218.813" gradientUnits="userSpaceOnUse">
<stop stop-color="#FF8C00" stop-opacity="0"/>
<stop offset="0.571863" stop-color="#FF002B" stop-opacity="0.31"/>
<stop offset="1" stop-color="#ED00FF"/>
</linearGradient>
<radialGradient id="paint6_radial_984_14724" cx="0" cy="0" r="1" gradientUnits="userSpaceOnUse" gradientTransform="translate(267.638 209.647) rotate(49.4615) scale(23.7953 32.8609)">
<stop stop-color="#FF3E00"/>
<stop offset="0.562168" stop-color="#FFC800"/>
<stop offset="1" stop-color="#FFDD62"/>
</radialGradient>
<linearGradient id="paint7_linear_984_14724" x1="175.036" y1="264.863" x2="262.95" y2="178.733" gradientUnits="userSpaceOnUse">
<stop stop-color="#5900FF" stop-opacity="0"/>
<stop offset="0.473957" stop-color="#005EFF" stop-opacity="0.31"/>
<stop offset="1" stop-color="#00FFBA"/>
</linearGradient>
<radialGradient id="paint8_radial_984_14724" cx="0" cy="0" r="1" gradientUnits="userSpaceOnUse" gradientTransform="translate(255.259 163.088) rotate(50.346) scale(33.038 45.382)">
<stop stop-color="#026FF7"/>
<stop offset="0.562168" stop-color="#FF00EF"/>
<stop offset="1" stop-color="#FF002B"/>
</radialGradient>
<clipPath id="clip0_984_14724">
<rect width="320" height="583" fill="white" transform="translate(0 0.5)"/>
</clipPath>
</defs>
</svg>
