<svg width="1280" height="1160" viewBox="0 0 1280 1160" fill="none" xmlns="http://www.w3.org/2000/svg">
<g filter="url(#filter0_f_2010_31073)">
<ellipse cx="1135" cy="-14" rx="553" ry="562" fill="#6F00FD"/>
</g>
<rect width="2206.77" height="1001.72" rx="500.86" transform="matrix(-0.707107 0.707107 0.707107 0.707107 1289.37 -698.227)" fill="url(#paint0_linear_2010_31073)"/>
<rect width="891.388" height="159.701" rx="79.8505" transform="matrix(-0.707107 0.707107 0.707107 0.707107 1478.3 387)" fill="url(#paint1_linear_2010_31073)"/>
<g filter="url(#filter1_f_2010_31073)">
<ellipse cx="185.125" cy="992.264" rx="561.125" ry="570.162" fill="#090088"/>
</g>
<rect width="772.105" height="166.869" rx="83.4344" transform="matrix(-0.707107 0.707107 0.707107 0.707107 1229.41 -109.797)" fill="url(#paint2_linear_2010_31073)"/>
<rect width="701.941" height="228.626" rx="114.313" transform="matrix(-0.707107 0.707107 0.707107 0.707107 1058.77 -226.359)" fill="url(#paint3_linear_2010_31073)"/>
<path d="M783.123 348.305L784.567 361.618L797.707 363.08L784.567 364.543L783.123 377.856L781.679 364.543L768.539 363.08L781.679 361.618L783.123 348.305Z" fill="#FFC700"/>
<path d="M110 676.125L113.182 717.943L155 721.125L113.182 724.307L110 766.125L106.818 724.307L65 721.125L106.818 717.943L110 676.125Z" fill="url(#paint4_radial_2010_31073)"/>
<path d="M1134.74 466.852L1136.1 484.75L1154 486.112L1136.1 487.474L1134.74 505.373L1133.38 487.474L1115.48 486.112L1133.38 484.75L1134.74 466.852Z" fill="url(#paint5_radial_2010_31073)"/>
<path d="M1163.39 263.938L1166.18 299.699L1202.79 302.42L1166.18 305.141L1163.39 340.903L1160.61 305.141L1123.99 302.42L1160.61 299.699L1163.39 263.938Z" fill="url(#paint6_radial_2010_31073)"/>
<defs>
<filter id="filter0_f_2010_31073" x="-18" y="-1176" width="2306" height="2324" filterUnits="userSpaceOnUse" color-interpolation-filters="sRGB">
<feFlood flood-opacity="0" result="BackgroundImageFix"/>
<feBlend mode="normal" in="SourceGraphic" in2="BackgroundImageFix" result="shape"/>
<feGaussianBlur stdDeviation="300" result="effect1_foregroundBlur_2010_31073"/>
</filter>
<filter id="filter1_f_2010_31073" x="-1361.87" y="-563.77" width="3093.99" height="3112.07" filterUnits="userSpaceOnUse" color-interpolation-filters="sRGB">
<feFlood flood-opacity="0" result="BackgroundImageFix"/>
<feBlend mode="normal" in="SourceGraphic" in2="BackgroundImageFix" result="shape"/>
<feGaussianBlur stdDeviation="492.936" result="effect1_foregroundBlur_2010_31073"/>
</filter>
<linearGradient id="paint0_linear_2010_31073" x1="-94.0516" y1="734.312" x2="2403.5" y2="598.211" gradientUnits="userSpaceOnUse">
<stop stop-color="#02D9F7"/>
<stop offset="0.65" stop-color="#A000FF" stop-opacity="0"/>
</linearGradient>
<linearGradient id="paint1_linear_2010_31073" x1="-37.9905" y1="117.069" x2="954.919" y2="-20.0212" gradientUnits="userSpaceOnUse">
<stop stop-color="#FF0099"/>
<stop offset="0.65" stop-color="#A000FF" stop-opacity="0"/>
</linearGradient>
<linearGradient id="paint2_linear_2010_31073" x1="-32.9068" y1="122.323" x2="832.196" y2="23.307" gradientUnits="userSpaceOnUse">
<stop stop-color="#02D9F7"/>
<stop offset="0.65" stop-color="#A000FF" stop-opacity="0"/>
</linearGradient>
<linearGradient id="paint3_linear_2010_31073" x1="-29.9164" y1="167.595" x2="762.305" y2="107.427" gradientUnits="userSpaceOnUse">
<stop stop-color="#FF0099"/>
<stop offset="0.65" stop-color="#A000FF" stop-opacity="0"/>
</linearGradient>
<radialGradient id="paint4_radial_2010_31073" cx="0" cy="0" r="1" gradientUnits="userSpaceOnUse" gradientTransform="translate(83.3803 684.779) rotate(49.4615) scale(88.2062 121.811)">
<stop stop-color="#FF00D6"/>
<stop offset="0.562168" stop-color="#FF004D"/>
<stop offset="1" stop-color="#FF6291"/>
</radialGradient>
<radialGradient id="paint5_radial_2010_31073" cx="0" cy="0" r="1" gradientUnits="userSpaceOnUse" gradientTransform="translate(1134.74 474.42) rotate(136.73) scale(25.4163 31.9947)">
<stop stop-color="#ADFFEE"/>
<stop offset="1" stop-color="#2DF9FF"/>
</radialGradient>
<radialGradient id="paint6_radial_2010_31073" cx="0" cy="0" r="1" gradientUnits="userSpaceOnUse" gradientTransform="translate(1163.41 279.059) rotate(137.402) scale(51.4257 64.6264)">
<stop stop-color="#FFE4AD"/>
<stop offset="1" stop-color="#FFEC2D"/>
</radialGradient>
</defs>
</svg>
