<svg width="2711" height="3237" viewBox="0 0 2711 3237" fill="none" xmlns="http://www.w3.org/2000/svg">
<g filter="url(#filter0_f_2001_14176)">
<ellipse cx="1765.5" cy="684.227" rx="553" ry="562" fill="#6F00FD"/>
</g>
<rect width="2206.77" height="1001.72" rx="500.86" transform="matrix(-0.707107 0.707107 0.707107 0.707107 1919.87 0)" fill="url(#paint0_linear_2001_14176)"/>
<rect width="891.388" height="263.176" rx="131.588" transform="matrix(-0.707107 0.707107 0.707107 0.707107 2108.8 1085.23)" fill="url(#paint1_linear_2001_14176)"/>
<g filter="url(#filter1_f_2001_14176)">
<ellipse cx="814.125" cy="1680.01" rx="561.125" ry="570.162" fill="#090088"/>
</g>
<rect width="772.105" height="166.869" rx="83.4344" transform="matrix(-0.707107 0.707107 0.707107 0.707107 1859.91 588.43)" fill="url(#paint2_linear_2001_14176)"/>
<rect width="701.941" height="228.626" rx="114.313" transform="matrix(-0.707107 0.707107 0.707107 0.707107 1689.27 471.867)" fill="url(#paint3_linear_2001_14176)"/>
<path opacity="0.15" d="M755.828 1199.08L773.824 1436.05L1010.33 1454.08L773.824 1472.11L755.828 1709.08L737.832 1472.11L501.328 1454.08L737.832 1436.05L755.828 1199.08Z" fill="#02D9F7"/>
<defs>
<filter id="filter0_f_2001_14176" x="612.5" y="-477.773" width="2306" height="2324" filterUnits="userSpaceOnUse" color-interpolation-filters="sRGB">
<feFlood flood-opacity="0" result="BackgroundImageFix"/>
<feBlend mode="normal" in="SourceGraphic" in2="BackgroundImageFix" result="shape"/>
<feGaussianBlur stdDeviation="300" result="effect1_foregroundBlur_2001_14176"/>
</filter>
<filter id="filter1_f_2001_14176" x="-732.871" y="123.98" width="3093.99" height="3112.07" filterUnits="userSpaceOnUse" color-interpolation-filters="sRGB">
<feFlood flood-opacity="0" result="BackgroundImageFix"/>
<feBlend mode="normal" in="SourceGraphic" in2="BackgroundImageFix" result="shape"/>
<feGaussianBlur stdDeviation="492.936" result="effect1_foregroundBlur_2001_14176"/>
</filter>
<linearGradient id="paint0_linear_2001_14176" x1="-94.0516" y1="734.312" x2="2403.5" y2="598.211" gradientUnits="userSpaceOnUse">
<stop stop-color="#02D9F7"/>
<stop offset="0.65" stop-color="#A000FF" stop-opacity="0"/>
</linearGradient>
<linearGradient id="paint1_linear_2001_14176" x1="-37.9905" y1="192.922" x2="966.793" y2="108.737" gradientUnits="userSpaceOnUse">
<stop stop-color="#FF0099"/>
<stop offset="0.65" stop-color="#A000FF" stop-opacity="0"/>
</linearGradient>
<linearGradient id="paint2_linear_2001_14176" x1="-32.9068" y1="122.323" x2="832.196" y2="23.307" gradientUnits="userSpaceOnUse">
<stop stop-color="#02D9F7"/>
<stop offset="0.65" stop-color="#A000FF" stop-opacity="0"/>
</linearGradient>
<linearGradient id="paint3_linear_2001_14176" x1="-29.9164" y1="167.595" x2="762.305" y2="107.427" gradientUnits="userSpaceOnUse">
<stop stop-color="#FF0099"/>
<stop offset="0.65" stop-color="#A000FF" stop-opacity="0"/>
</linearGradient>
</defs>
</svg>
